<svg width="167" height="596" viewBox="0 0 167 596" fill="none" xmlns="http://www.w3.org/2000/svg">
<g filter="url(#filter0_bdi_133_131)">
<path d="M9 67.5C9 35.1913 35.1913 9 67.5 9V9C99.8087 9 126 35.1913 126 67.5V496.5C126 528.809 99.8087 555 67.5 555V555C35.1913 555 9 528.809 9 496.5V67.5Z" fill="#E6E6DA" fill-opacity="0.1" shape-rendering="crispEdges"/>
</g>
<g filter="url(#filter1_bdi_133_131)">
<path fill-rule="evenodd" clip-rule="evenodd" d="M125 496.5V67.5C125 35.7436 99.2564 10 67.5 10C35.7436 10 10 35.7436 10 67.5V496.5C10 528.256 35.7436 554 67.5 554C99.2564 554 125 528.256 125 496.5ZM67.5 9C35.1913 9 9 35.1913 9 67.5V496.5C9 528.809 35.1913 555 67.5 555C99.8087 555 126 528.809 126 496.5V67.5C126 35.1913 99.8087 9 67.5 9Z" fill="white"/>
</g>
<path fill-rule="evenodd" clip-rule="evenodd" d="M80 330V234C80 227.373 74.6274 222 68 222C61.3726 222 56 227.373 56 234V330C56 336.627 61.3726 342 68 342C74.6274 342 80 336.627 80 330ZM68 221C60.8203 221 55 226.82 55 234V330C55 337.18 60.8203 343 68 343C75.1797 343 81 337.18 81 330V234C81 226.82 75.1797 221 68 221Z" fill="white"/>
<path fill-rule="evenodd" clip-rule="evenodd" d="M67 76C76.9411 76 85 67.9411 85 58C85 48.0589 76.9411 40 67 40C57.0589 40 49 48.0589 49 58C49 67.9411 57.0589 76 67 76ZM67 77C77.4934 77 86 68.4934 86 58C86 47.5066 77.4934 39 67 39C56.5066 39 48 47.5066 48 58C48 68.4934 56.5066 77 67 77Z" fill="white"/>
<path fill-rule="evenodd" clip-rule="evenodd" d="M67 525C76.9411 525 85 516.941 85 507C85 497.059 76.9411 489 67 489C57.0589 489 49 497.059 49 507C49 516.941 57.0589 525 67 525ZM67 526C77.4934 526 86 517.493 86 507C86 496.507 77.4934 488 67 488C56.5066 488 48 496.507 48 507C48 517.493 56.5066 526 67 526Z" fill="white"/>
<path d="M62.2802 520.52H66.4402V495.8C65.3602 496.88 63.5602 498.36 61.4402 499.52L61.2002 499.16C64.3602 497.32 67.2402 494.72 69.0002 491.2H69.4402V520.52H73.6002V521H62.2802V520.52Z" fill="white"/>
<path d="M62.0002 298.519L62.2402 298.519L62.2402 300.099L76.9602 300.099C76.7602 299.379 76.7202 298.519 76.7202 298.519L76.9602 298.519C77.0402 299.659 77.3202 300.679 77.7202 301.459L70.7602 301.459C71.5802 302.639 71.8602 303.719 71.8602 304.459C71.8602 307.319 69.7802 307.499 68.1602 307.499L62.2402 307.499L62.2402 309.079L62.0002 309.079L62.0002 304.559L62.2402 304.559L62.2402 306.139L68.4802 306.139C71.2602 306.139 71.5002 304.879 71.5002 303.999C71.5002 303.079 71.0002 302.219 70.4602 301.459L62.2402 301.459L62.2402 303.039L62.0002 303.039L62.0002 298.519Z" fill="white"/>
<path d="M64.5999 297.505L64.5199 297.725C63.4599 297.305 61.7799 296.365 61.7799 294.045C61.7799 291.585 63.5799 289.605 66.7199 289.605C69.3399 289.605 71.8599 291.085 71.8599 294.345C71.8599 295.865 70.7999 297.005 69.3799 297.545L69.2999 297.305C70.6599 296.805 71.6199 295.785 71.6199 294.345C71.6199 292.645 70.4799 291.185 66.7199 291.185C63.5999 291.185 62.1199 292.625 62.1199 294.365C62.1199 295.585 62.8799 296.785 64.5999 297.505Z" fill="white"/>
<path d="M61.9999 281.195L62.2399 281.195L62.2399 282.775L71.1199 282.775C70.9399 282.035 70.8799 281.195 70.8799 281.195L71.1199 281.195C71.2199 282.515 71.5599 283.395 71.8999 284.135L69.9599 284.135C71.0799 284.675 71.8599 285.575 71.8599 286.575C71.8599 287.115 71.6399 287.515 71.4199 287.815L71.8599 287.795L71.8599 288.055L66.5199 288.155L66.5199 287.935L70.2599 287.835C70.8199 287.835 71.6199 287.355 71.6199 286.475C71.6199 285.095 69.7999 284.135 68.1399 284.135L62.2399 284.135L62.2399 285.915L61.9999 285.915L61.9999 281.195Z" fill="white"/>
<path d="M68.2199 279.441L68.2199 273.101C67.8599 273.061 67.4999 273.041 67.0999 273.041C62.9999 273.041 62.0199 274.701 62.0199 276.041C62.0199 278.601 64.5799 280.121 67.4599 280.121C68.0599 280.121 68.6999 280.041 69.3199 279.881L69.3999 280.121C68.7599 280.281 68.0599 280.361 67.4599 280.361C64.4599 280.361 61.7799 278.761 61.7799 276.041C61.7799 274.021 63.0199 271.461 66.8199 271.461C69.6399 271.461 71.8599 273.101 71.8599 275.821C71.8599 278.301 69.9799 279.421 68.2199 279.441ZM71.6199 275.661C71.6199 274.421 70.3799 273.441 68.4599 273.141L68.4599 277.941C70.1599 277.921 71.6199 277.241 71.6199 275.661Z" fill="white"/>
<path d="M62.2402 254.1L62.2402 256.08L76.2202 256.08L76.2202 254.32L76.4602 254.32L76.4602 257.98C73.9802 259.24 71.6002 260.66 69.0202 261.94C71.8002 263.94 74.8602 267 77.7202 271.16L77.5002 271.32C75.6802 268.92 74.0202 268.56 71.4402 268.56L62.2402 268.56L62.2402 270.52L62.0002 270.52L62.0002 264.9L62.2402 264.9L62.2402 266.9L71.1002 266.9C73.2202 266.9 73.9802 266.96 75.6802 268.78C73.3602 265.88 70.9802 263.64 68.8002 262.08C66.1002 263.4 64.2802 264.1 62.5602 264.1C60.7602 264.1 58.8602 263.26 58.8402 261.16L58.8402 261.14C58.8602 259.66 60.2402 258.86 61.7802 258.86C63.2402 258.86 65.3002 259.56 67.5802 260.96C70.4402 259.5 73.2202 257.94 76.2202 256.32L62.2402 256.32L62.2402 258.3L62.0002 258.3L62.0002 254.1L62.2402 254.1ZM59.0802 261.16C59.0802 262.6 60.2002 263.06 61.3602 263.06C62.8802 263.06 64.8202 262.34 67.3402 261.1C65.1402 259.76 63.1802 259.1 61.7802 259.1C60.3602 259.1 59.0802 259.82 59.0802 261.16Z" fill="white"/>
<path d="M67.0001 43.48C73.6401 43.48 76.4001 51.68 76.4001 58.48C76.4001 64.84 73.5601 73.6 67.0001 73.6C60.4001 73.6 57.6001 66.12 57.6001 58.48C57.6001 50.96 60.4001 43.48 67.0001 43.48ZM62.5601 67.04C62.5601 69.92 63.6801 73.12 67.0001 73.12C70.8401 73.12 73.0801 67.04 73.0801 58.48C73.0801 53.56 72.1601 46.08 68.6001 44.28C68.6801 44.56 68.7601 44.92 68.7601 45.32C68.7601 47 67.6801 49.84 66.3601 53.12C64.6001 57.56 62.5601 62.8 62.5601 67.04ZM60.9201 58.48C60.9201 62 61.2401 65.52 62.1201 68.28C62.0801 67.88 62.0801 67.48 62.0801 67.04C62.0801 62.68 64.1601 57.36 65.9601 52.88C67.2001 49.68 68.3201 46.92 68.3201 45.32C68.3201 44.48 67.9601 43.96 67.0001 43.96C61.9601 43.96 60.9201 52.24 60.9201 58.48Z" fill="white"/>
<path fill-rule="evenodd" clip-rule="evenodd" d="M68 133L68 221.006H67L67 133H68Z" fill="white"/>
<path fill-rule="evenodd" clip-rule="evenodd" d="M68.4941 343.003L68.4941 431.009H67.4941L67.4941 343.003H68.4941Z" fill="white"/>
<defs>
<filter id="filter0_bdi_133_131" x="-1" y="-1" width="168" height="597" filterUnits="userSpaceOnUse" color-interpolation-filters="sRGB">
<feFlood flood-opacity="0" result="BackgroundImageFix"/>
<feGaussianBlur in="BackgroundImageFix" stdDeviation="5"/>
<feComposite in2="SourceAlpha" operator="in" result="effect1_backgroundBlur_133_131"/>
<feColorMatrix in="SourceAlpha" type="matrix" values="0 0 0 0 0 0 0 0 0 0 0 0 0 0 0 0 0 0 127 0" result="hardAlpha"/>
<feOffset dx="16" dy="16"/>
<feGaussianBlur stdDeviation="12.5"/>
<feComposite in2="hardAlpha" operator="out"/>
<feColorMatrix type="matrix" values="0 0 0 0 0 0 0 0 0 0 0 0 0 0 0 0 0 0 0.25 0"/>
<feBlend mode="normal" in2="effect1_backgroundBlur_133_131" result="effect2_dropShadow_133_131"/>
<feBlend mode="normal" in="SourceGraphic" in2="effect2_dropShadow_133_131" result="shape"/>
<feColorMatrix in="SourceAlpha" type="matrix" values="0 0 0 0 0 0 0 0 0 0 0 0 0 0 0 0 0 0 127 0" result="hardAlpha"/>
<feOffset dx="16" dy="16"/>
<feGaussianBlur stdDeviation="12.5"/>
<feComposite in2="hardAlpha" operator="arithmetic" k2="-1" k3="1"/>
<feColorMatrix type="matrix" values="0 0 0 0 1 0 0 0 0 1 0 0 0 0 1 0 0 0 0.6 0"/>
<feBlend mode="normal" in2="shape" result="effect3_innerShadow_133_131"/>
</filter>
<filter id="filter1_bdi_133_131" x="-1" y="-1" width="168" height="597" filterUnits="userSpaceOnUse" color-interpolation-filters="sRGB">
<feFlood flood-opacity="0" result="BackgroundImageFix"/>
<feGaussianBlur in="BackgroundImageFix" stdDeviation="5"/>
<feComposite in2="SourceAlpha" operator="in" result="effect1_backgroundBlur_133_131"/>
<feColorMatrix in="SourceAlpha" type="matrix" values="0 0 0 0 0 0 0 0 0 0 0 0 0 0 0 0 0 0 127 0" result="hardAlpha"/>
<feOffset dx="16" dy="16"/>
<feGaussianBlur stdDeviation="12.5"/>
<feComposite in2="hardAlpha" operator="out"/>
<feColorMatrix type="matrix" values="0 0 0 0 0 0 0 0 0 0 0 0 0 0 0 0 0 0 0.25 0"/>
<feBlend mode="normal" in2="effect1_backgroundBlur_133_131" result="effect2_dropShadow_133_131"/>
<feBlend mode="normal" in="SourceGraphic" in2="effect2_dropShadow_133_131" result="shape"/>
<feColorMatrix in="SourceAlpha" type="matrix" values="0 0 0 0 0 0 0 0 0 0 0 0 0 0 0 0 0 0 127 0" result="hardAlpha"/>
<feOffset dx="16" dy="16"/>
<feGaussianBlur stdDeviation="12.5"/>
<feComposite in2="hardAlpha" operator="arithmetic" k2="-1" k3="1"/>
<feColorMatrix type="matrix" values="0 0 0 0 1 0 0 0 0 1 0 0 0 0 1 0 0 0 0.6 0"/>
<feBlend mode="normal" in2="shape" result="effect3_innerShadow_133_131"/>
</filter>
</defs>
</svg>
