<svg width="167" height="596" viewBox="0 0 167 596" fill="none" xmlns="http://www.w3.org/2000/svg">
<g filter="url(#filter0_bdi_133_114)">
<path d="M9 67.5C9 35.1913 35.1913 9 67.5 9V9C99.8087 9 126 35.1913 126 67.5V496.5C126 528.809 99.8087 555 67.5 555V555C35.1913 555 9 528.809 9 496.5V67.5Z" fill="#E6E6DA" fill-opacity="0.1" shape-rendering="crispEdges"/>
</g>
<g filter="url(#filter1_bdi_133_114)">
<path fill-rule="evenodd" clip-rule="evenodd" d="M125 496.5V67.5C125 35.7436 99.2564 10 67.5 10C35.7436 10 10 35.7436 10 67.5V496.5C10 528.256 35.7436 554 67.5 554C99.2564 554 125 528.256 125 496.5ZM67.5 9C35.1913 9 9 35.1913 9 67.5V496.5C9 528.809 35.1913 555 67.5 555C99.8087 555 126 528.809 126 496.5V67.5C126 35.1913 99.8087 9 67.5 9Z" fill="white"/>
</g>
<path fill-rule="evenodd" clip-rule="evenodd" d="M80 330V234C80 227.373 74.6274 222 68 222C61.3726 222 56 227.373 56 234V330C56 336.627 61.3726 342 68 342C74.6274 342 80 336.627 80 330ZM68 221C60.8203 221 55 226.82 55 234V330C55 337.18 60.8203 343 68 343C75.1797 343 81 337.18 81 330V234C81 226.82 75.1797 221 68 221Z" fill="white"/>
<path fill-rule="evenodd" clip-rule="evenodd" d="M67 76C76.9411 76 85 67.9411 85 58C85 48.0589 76.9411 40 67 40C57.0589 40 49 48.0589 49 58C49 67.9411 57.0589 76 67 76ZM67 77C77.4934 77 86 68.4934 86 58C86 47.5066 77.4934 39 67 39C56.5066 39 48 47.5066 48 58C48 68.4934 56.5066 77 67 77Z" fill="white"/>
<path fill-rule="evenodd" clip-rule="evenodd" d="M67 525C76.9411 525 85 516.941 85 507C85 497.059 76.9411 489 67 489C57.0589 489 49 497.059 49 507C49 516.941 57.0589 525 67 525ZM67 526C77.4934 526 86 517.493 86 507C86 496.507 77.4934 488 67 488C56.5066 488 48 496.507 48 507C48 517.493 56.5066 526 67 526Z" fill="white"/>
<path d="M57.6398 520V519.44C65.0398 511.52 65.2398 511.32 65.8798 510.6C59.3198 507.12 56.7998 502.76 56.7998 499C56.7998 494.2 60.8798 490.44 65.6398 490.44C70.9998 490.44 75.0798 492.88 75.0798 498.64C75.0798 502.6 71.4398 506.36 68.7998 508.92L67.0398 510.68C68.5598 511.4 70.2798 512.12 72.2798 512.76L72.1198 513.24C69.9998 512.56 68.2398 511.8 66.7198 511.04L60.1998 517.4H68.5998C72.1998 517.4 73.9598 516.88 74.3198 516.6L75.5198 505.76H75.9998L74.5598 520H57.6398ZM66.1998 510.24C69.2798 506.8 71.7598 503.36 71.7598 498.84C71.7598 495 69.8798 491.04 65.6398 490.92C61.1998 491 57.2798 494.52 57.2798 499C57.2798 502.64 59.7198 506.84 66.1998 510.24Z" fill="white"/>
<path d="M66.9599 305.115L66.7999 305.275C65.9999 304.455 65.0999 304.095 64.3399 304.095C62.5599 304.095 61.8399 305.995 61.8399 307.795C61.8399 309.555 62.5999 311.255 63.7399 311.255C64.7599 311.255 65.3799 309.875 66.0799 308.335C66.3199 307.815 66.5599 307.275 66.8399 306.755C67.4399 305.695 68.1399 304.755 69.4999 304.755C71.2599 304.755 71.8599 306.275 71.8599 307.495C71.8599 308.215 71.6799 309.035 70.9199 309.815L71.6399 309.795L71.6399 310.075L67.4399 310.195L67.4399 309.955L70.1199 309.855C70.7399 309.515 71.6199 308.815 71.6199 307.515C71.6199 306.435 70.9599 305.895 70.1799 305.895C68.8599 305.895 68.1799 307.335 67.7399 308.395C67.1199 309.875 66.3799 311.495 64.0399 311.495C61.5599 311.495 60.4399 309.755 60.4399 307.815C60.4399 305.855 61.6399 303.775 63.9799 303.775C65.0599 303.775 66.0799 304.215 66.9599 305.115Z" fill="white"/>
<path d="M61.9999 295.805L62.2399 295.805L62.2399 297.385L71.1199 297.385C70.9399 296.645 70.8799 295.805 70.8799 295.805L71.1199 295.805C71.2199 297.125 71.5599 298.005 71.8999 298.745L69.9599 298.745C71.0799 299.285 71.8599 300.185 71.8599 301.185C71.8599 301.725 71.6399 302.125 71.4199 302.425L71.8599 302.405L71.8599 302.665L66.5199 302.765L66.5199 302.545L70.2599 302.445C70.8199 302.445 71.6199 301.965 71.6199 301.085C71.6199 299.705 69.7999 298.745 68.1399 298.745L62.2399 298.745L62.2399 300.525L61.9999 300.525L61.9999 295.805Z" fill="white"/>
<path d="M68.2199 294.05L68.2199 287.71C67.8599 287.67 67.4999 287.65 67.0999 287.65C62.9999 287.65 62.0199 289.31 62.0199 290.65C62.0199 293.21 64.5799 294.73 67.4599 294.73C68.0599 294.73 68.6999 294.65 69.3199 294.49L69.3999 294.73C68.7599 294.89 68.0599 294.97 67.4599 294.97C64.4599 294.97 61.7799 293.37 61.7799 290.65C61.7799 288.63 63.0199 286.07 66.8199 286.07C69.6399 286.07 71.8599 287.71 71.8599 290.43C71.8599 292.91 69.9799 294.03 68.2199 294.05ZM71.6199 290.27C71.6199 289.03 70.3799 288.05 68.4599 287.75L68.4599 292.55C70.1599 292.53 71.6199 291.85 71.6199 290.27Z" fill="white"/>
<path d="M64.7 280.277L71.38 280.277L71.38 278.297L71.62 278.297L71.62 278.617C71.62 280.637 73.98 281.357 76 281.377L76 281.637L71.62 281.637L71.62 282.157C71.62 283.517 71.68 284.557 71.8 285.157L71.38 284.977L71.38 281.637C69.36 281.657 68.14 282.677 67.04 283.597C66.08 284.377 65.22 285.097 64.06 285.097C63.02 285.097 61.78 284.397 61.78 282.697C61.78 281.117 62.86 280.277 64.7 280.277ZM69.78 281.637L64.42 281.637C62.74 281.637 62.26 282.457 62.26 283.197C62.26 283.977 62.8 284.857 64.06 284.857C65.14 284.857 65.96 284.177 66.86 283.417C67.66 282.737 68.56 282.017 69.78 281.637Z" fill="white"/>
<path d="M66.9599 271.423L66.7999 271.583C65.9999 270.763 65.0999 270.403 64.3399 270.403C62.5599 270.403 61.8399 272.303 61.8399 274.103C61.8399 275.863 62.5999 277.563 63.7399 277.563C64.7599 277.563 65.3799 276.183 66.0799 274.643C66.3199 274.123 66.5599 273.583 66.8399 273.063C67.4399 272.003 68.1399 271.063 69.4999 271.063C71.2599 271.063 71.8599 272.583 71.8599 273.803C71.8599 274.523 71.6799 275.343 70.9199 276.123L71.6399 276.103L71.6399 276.383L67.4399 276.503L67.4399 276.263L70.1199 276.163C70.7399 275.823 71.6199 275.123 71.6199 273.823C71.6199 272.743 70.9599 272.203 70.1799 272.203C68.8599 272.203 68.1799 273.643 67.7399 274.703C67.1199 276.183 66.3799 277.803 64.0399 277.803C61.5599 277.803 60.4399 276.063 60.4399 274.123C60.4399 272.163 61.6399 270.083 63.9799 270.083C65.0599 270.083 66.0799 270.523 66.9599 271.423Z" fill="white"/>
<path d="M61.7799 264.227C61.7799 261.527 63.7399 259.547 66.7999 259.547C70.1799 259.547 71.8599 261.527 71.8599 264.227C71.8599 266.907 70.3199 268.907 66.7999 268.907C63.7799 268.907 61.7799 266.907 61.7799 264.227ZM62.0199 264.227C62.0199 265.787 63.1199 267.327 66.7999 267.327C70.4999 267.327 71.6199 265.787 71.6199 264.227C71.6199 262.647 70.4999 261.127 66.7999 261.127C63.1199 261.127 62.0199 262.647 62.0199 264.227Z" fill="white"/>
<path d="M62 249.1L62.24 249.1L62.24 251.08L76.22 251.08L76.22 249.1L76.46 249.1L76.46 251.76C76.46 256.82 74.76 258.9 72.62 258.9C70.72 258.9 68.42 257 66.62 253.5C65.98 253.3 65.36 253.04 64.7 252.74L62.24 252.74L62.24 254.74L62 254.74L62 249.1ZM76.22 251.68L76.22 251.56C75.04 253.32 72.96 254.16 70.54 254.16C69.4 254.16 68.16 253.96 66.94 253.6C68.42 256.16 70.38 257.26 72.08 257.26C74.34 257.26 76.22 255.38 76.22 251.68ZM74.74 252.74L65.28 252.74C67.1 253.54 68.88 253.92 70.54 253.92C72.16 253.92 73.6 253.54 74.74 252.74Z" fill="white"/>
<path d="M62.2802 71.52H66.4402V46.8C65.3602 47.88 63.5602 49.36 61.4402 50.52L61.2002 50.16C64.3602 48.32 67.2402 45.72 69.0002 42.2H69.4402V71.52H73.6002V72H62.2802V71.52Z" fill="white"/>
<path fill-rule="evenodd" clip-rule="evenodd" d="M68 133L68 221.006H67L67 133H68Z" fill="white"/>
<path fill-rule="evenodd" clip-rule="evenodd" d="M68.4941 343.003L68.4941 431.009H67.4941L67.4941 343.003H68.4941Z" fill="white"/>
<defs>
<filter id="filter0_bdi_133_114" x="-1" y="-1" width="168" height="597" filterUnits="userSpaceOnUse" color-interpolation-filters="sRGB">
<feFlood flood-opacity="0" result="BackgroundImageFix"/>
<feGaussianBlur in="BackgroundImageFix" stdDeviation="5"/>
<feComposite in2="SourceAlpha" operator="in" result="effect1_backgroundBlur_133_114"/>
<feColorMatrix in="SourceAlpha" type="matrix" values="0 0 0 0 0 0 0 0 0 0 0 0 0 0 0 0 0 0 127 0" result="hardAlpha"/>
<feOffset dx="16" dy="16"/>
<feGaussianBlur stdDeviation="12.5"/>
<feComposite in2="hardAlpha" operator="out"/>
<feColorMatrix type="matrix" values="0 0 0 0 0 0 0 0 0 0 0 0 0 0 0 0 0 0 0.25 0"/>
<feBlend mode="normal" in2="effect1_backgroundBlur_133_114" result="effect2_dropShadow_133_114"/>
<feBlend mode="normal" in="SourceGraphic" in2="effect2_dropShadow_133_114" result="shape"/>
<feColorMatrix in="SourceAlpha" type="matrix" values="0 0 0 0 0 0 0 0 0 0 0 0 0 0 0 0 0 0 127 0" result="hardAlpha"/>
<feOffset dx="16" dy="16"/>
<feGaussianBlur stdDeviation="12.5"/>
<feComposite in2="hardAlpha" operator="arithmetic" k2="-1" k3="1"/>
<feColorMatrix type="matrix" values="0 0 0 0 1 0 0 0 0 1 0 0 0 0 1 0 0 0 0.6 0"/>
<feBlend mode="normal" in2="shape" result="effect3_innerShadow_133_114"/>
</filter>
<filter id="filter1_bdi_133_114" x="-1" y="-1" width="168" height="597" filterUnits="userSpaceOnUse" color-interpolation-filters="sRGB">
<feFlood flood-opacity="0" result="BackgroundImageFix"/>
<feGaussianBlur in="BackgroundImageFix" stdDeviation="5"/>
<feComposite in2="SourceAlpha" operator="in" result="effect1_backgroundBlur_133_114"/>
<feColorMatrix in="SourceAlpha" type="matrix" values="0 0 0 0 0 0 0 0 0 0 0 0 0 0 0 0 0 0 127 0" result="hardAlpha"/>
<feOffset dx="16" dy="16"/>
<feGaussianBlur stdDeviation="12.5"/>
<feComposite in2="hardAlpha" operator="out"/>
<feColorMatrix type="matrix" values="0 0 0 0 0 0 0 0 0 0 0 0 0 0 0 0 0 0 0.25 0"/>
<feBlend mode="normal" in2="effect1_backgroundBlur_133_114" result="effect2_dropShadow_133_114"/>
<feBlend mode="normal" in="SourceGraphic" in2="effect2_dropShadow_133_114" result="shape"/>
<feColorMatrix in="SourceAlpha" type="matrix" values="0 0 0 0 0 0 0 0 0 0 0 0 0 0 0 0 0 0 127 0" result="hardAlpha"/>
<feOffset dx="16" dy="16"/>
<feGaussianBlur stdDeviation="12.5"/>
<feComposite in2="hardAlpha" operator="arithmetic" k2="-1" k3="1"/>
<feColorMatrix type="matrix" values="0 0 0 0 1 0 0 0 0 1 0 0 0 0 1 0 0 0 0.6 0"/>
<feBlend mode="normal" in2="shape" result="effect3_innerShadow_133_114"/>
</filter>
</defs>
</svg>
