<svg width="167" height="596" viewBox="0 0 167 596" fill="none" xmlns="http://www.w3.org/2000/svg">
<g filter="url(#filter0_bdi_76_245)">
<path d="M9 67.5C9 35.1913 35.1913 9 67.5 9V9C99.8087 9 126 35.1913 126 67.5V496.5C126 528.809 99.8087 555 67.5 555V555C35.1913 555 9 528.809 9 496.5V67.5Z" fill="#E6E6DA" fill-opacity="0.1" shape-rendering="crispEdges"/>
</g>
<g filter="url(#filter1_bdi_76_245)">
<path fill-rule="evenodd" clip-rule="evenodd" d="M125 496.5V67.5C125 35.7436 99.2564 10 67.5 10C35.7436 10 10 35.7436 10 67.5V496.5C10 528.256 35.7436 554 67.5 554C99.2564 554 125 528.256 125 496.5ZM67.5 9C35.1913 9 9 35.1913 9 67.5V496.5C9 528.809 35.1913 555 67.5 555C99.8087 555 126 528.809 126 496.5V67.5C126 35.1913 99.8087 9 67.5 9Z" fill="white"/>
</g>
<path fill-rule="evenodd" clip-rule="evenodd" d="M68 76C77.9411 76 86 67.9411 86 58C86 48.0589 77.9411 40 68 40C58.0589 40 50 48.0589 50 58C50 67.9411 58.0589 76 68 76ZM68 77C78.4934 77 87 68.4934 87 58C87 47.5066 78.4934 39 68 39C57.5066 39 49 47.5066 49 58C49 68.4934 57.5066 77 68 77Z" fill="white"/>
<path fill-rule="evenodd" clip-rule="evenodd" d="M68 525C77.9411 525 86 516.941 86 507C86 497.059 77.9411 489 68 489C58.0589 489 50 497.059 50 507C50 516.941 58.0589 525 68 525ZM68 526C78.4934 526 87 517.493 87 507C87 496.507 78.4934 488 68 488C57.5066 488 49 496.507 49 507C49 517.493 57.5066 526 68 526Z" fill="white"/>
<path fill-rule="evenodd" clip-rule="evenodd" d="M80 330.003V234.003C80 227.375 74.6274 222.003 68 222.003C61.3726 222.003 56 227.375 56 234.003V330.003C56 336.63 61.3726 342.003 68 342.003C74.6274 342.003 80 336.63 80 330.003ZM68 221.003C60.8203 221.003 55 226.823 55 234.003V330.003C55 337.182 60.8203 343.003 68 343.003C75.1797 343.003 81 337.182 81 330.003V234.003C81 226.823 75.1797 221.003 68 221.003Z" fill="white"/>
<path fill-rule="evenodd" clip-rule="evenodd" d="M68.5 133L68.5 221.006H67.5L67.5 133H68.5Z" fill="white"/>
<path fill-rule="evenodd" clip-rule="evenodd" d="M69 343.003L69 431.008H68L68 343.003H69Z" fill="white"/>
<path d="M62.2802 521.52H66.4402V496.8C65.3602 497.88 63.5602 499.36 61.4402 500.52L61.2002 500.16C64.3602 498.32 67.2402 495.72 69.0002 492.2H69.4402V521.52H73.6002V522H62.2802V521.52Z" fill="white"/>
<path d="M68.0001 42.48C74.6401 42.48 77.4001 50.68 77.4001 57.48C77.4001 63.84 74.5601 72.6 68.0001 72.6C61.4001 72.6 58.6001 65.12 58.6001 57.48C58.6001 49.96 61.4001 42.48 68.0001 42.48ZM63.5601 66.04C63.5601 68.92 64.6801 72.12 68.0001 72.12C71.8401 72.12 74.0801 66.04 74.0801 57.48C74.0801 52.56 73.1601 45.08 69.6001 43.28C69.6801 43.56 69.7601 43.92 69.7601 44.32C69.7601 46 68.6801 48.84 67.3601 52.12C65.6001 56.56 63.5601 61.8 63.5601 66.04ZM61.9201 57.48C61.9201 61 62.2401 64.52 63.1201 67.28C63.0801 66.88 63.0801 66.48 63.0801 66.04C63.0801 61.68 65.1601 56.36 66.9601 51.88C68.2001 48.68 69.3201 45.92 69.3201 44.32C69.3201 43.48 68.9601 42.96 68.0001 42.96C62.9601 42.96 61.9201 51.24 61.9201 57.48Z" fill="white"/>
<path d="M64.7 326.334L71.38 326.334L71.38 324.354L71.62 324.354L71.62 324.674C71.62 326.694 73.98 327.414 76 327.434L76 327.694L71.62 327.694L71.62 328.214C71.62 329.574 71.68 330.614 71.8 331.214L71.38 331.034L71.38 327.694C69.36 327.714 68.14 328.734 67.04 329.654C66.08 330.434 65.22 331.154 64.06 331.154C63.02 331.154 61.78 330.454 61.78 328.754C61.78 327.174 62.86 326.334 64.7 326.334ZM69.78 327.694L64.42 327.694C62.74 327.694 62.26 328.514 62.26 329.254C62.26 330.034 62.8 330.914 64.06 330.914C65.14 330.914 65.96 330.234 66.86 329.474C67.66 328.794 68.56 328.074 69.78 327.694Z" fill="white"/>
<path d="M68.6599 322.525L67.4399 322.525C66.7599 322.545 66.0199 322.905 65.3199 323.265C64.5599 323.625 63.8199 324.005 63.0999 324.005C61.9399 324.005 61.7799 323.305 61.7799 322.725C61.7799 321.645 62.4599 321.185 63.8199 321.165C61.9799 319.405 61.7799 318.205 61.7799 317.425C61.7799 315.865 62.6799 315.165 63.8199 315.165C65.0799 315.165 65.9199 316.065 66.5199 317.265C67.2799 316.425 68.1999 315.985 69.1799 315.985C70.6199 315.985 71.8599 317.105 71.8599 319.085C71.8599 320.765 71.1799 322.525 68.6599 322.525ZM67.6399 321.165L68.6599 321.165C70.5799 321.165 71.5999 320.705 71.5999 318.965C71.5999 317.345 70.5399 316.225 69.1799 316.225C68.2199 316.225 67.3799 316.625 66.6199 317.485C67.0999 318.545 67.3999 319.745 67.6399 321.165ZM65.2799 319.785L65.0399 319.705C65.3999 318.885 65.7399 318.245 66.1199 317.725C65.6399 317.105 64.9799 316.745 64.0799 316.745C62.8599 316.745 62.4199 317.445 62.4199 318.285C62.4199 319.245 63.4799 320.525 64.1799 321.165L67.3999 321.165C67.1799 319.925 66.8399 318.765 66.2599 317.925C65.9199 318.425 65.5999 319.025 65.2799 319.785ZM66.1799 322.525L63.3599 322.525C62.8599 322.525 62.2599 322.645 62.2599 323.165C62.2599 323.465 62.4599 323.765 63.0999 323.765C64.0799 323.765 65.1799 323.045 66.1799 322.525Z" fill="white"/>
<path d="M61.9999 307.155L62.2399 307.155L62.2399 308.735L71.1199 308.735C70.9399 307.995 70.8799 307.155 70.8799 307.155L71.1199 307.155C71.2199 308.475 71.5599 309.355 71.8999 310.095L69.9599 310.095C71.0799 310.635 71.8599 311.535 71.8599 312.535C71.8599 313.075 71.6399 313.475 71.4199 313.775L71.8599 313.755L71.8599 314.015L66.5199 314.115L66.5199 313.895L70.2599 313.795C70.8199 313.795 71.6199 313.315 71.6199 312.435C71.6199 311.055 69.7999 310.095 68.1399 310.095L62.2399 310.095L62.2399 311.875L61.9999 311.875L61.9999 307.155Z" fill="white"/>
<path d="M61.9999 299.226L62.2399 299.226L62.2399 300.806L71.1199 300.806C70.9399 300.066 70.8799 299.226 70.8799 299.226L71.1199 299.226C71.2199 300.546 71.5599 301.426 71.8999 302.166L69.9599 302.166C71.0799 302.706 71.8599 303.606 71.8599 304.606C71.8599 305.146 71.6399 305.546 71.4199 305.846L71.8599 305.826L71.8599 306.086L66.5199 306.186L66.5199 305.966L70.2599 305.866C70.8199 305.866 71.6199 305.386 71.6199 304.506C71.6199 303.126 69.7999 302.166 68.1399 302.166L62.2399 302.166L62.2399 303.946L61.9999 303.946L61.9999 299.226Z" fill="white"/>
<path d="M68.2199 297.471L68.2199 291.131C67.8599 291.091 67.4999 291.071 67.0999 291.071C62.9999 291.071 62.0199 292.731 62.0199 294.071C62.0199 296.631 64.5799 298.151 67.4599 298.151C68.0599 298.151 68.6999 298.071 69.3199 297.911L69.3999 298.151C68.7599 298.311 68.0599 298.391 67.4599 298.391C64.4599 298.391 61.7799 296.791 61.7799 294.071C61.7799 292.051 63.0199 289.491 66.8199 289.491C69.6399 289.491 71.8599 291.131 71.8599 293.851C71.8599 296.331 69.9799 297.451 68.2199 297.471ZM71.6199 293.691C71.6199 292.451 70.3799 291.471 68.4599 291.171L68.4599 295.971C70.1599 295.951 71.6199 295.271 71.6199 293.691Z" fill="white"/>
<path d="M66.9599 281.797L66.7999 281.957C65.9999 281.137 65.0999 280.777 64.3399 280.777C62.5599 280.777 61.8399 282.677 61.8399 284.477C61.8399 286.237 62.5999 287.937 63.7399 287.937C64.7599 287.937 65.3799 286.557 66.0799 285.017C66.3199 284.497 66.5599 283.957 66.8399 283.437C67.4399 282.377 68.1399 281.437 69.4999 281.437C71.2599 281.437 71.8599 282.957 71.8599 284.177C71.8599 284.897 71.6799 285.717 70.9199 286.497L71.6399 286.477L71.6399 286.757L67.4399 286.877L67.4399 286.637L70.1199 286.537C70.7399 286.197 71.6199 285.497 71.6199 284.197C71.6199 283.117 70.9599 282.577 70.1799 282.577C68.8599 282.577 68.1799 284.017 67.7399 285.077C67.1199 286.557 66.3799 288.177 64.0399 288.177C61.5599 288.177 60.4399 286.437 60.4399 284.497C60.4399 282.537 61.6399 280.457 63.9799 280.457C65.0599 280.457 66.0799 280.897 66.9599 281.797Z" fill="white"/>
<path d="M64.7 274.596L71.38 274.596L71.38 272.616L71.62 272.616L71.62 272.936C71.62 274.956 73.98 275.676 76 275.696L76 275.956L71.62 275.956L71.62 276.476C71.62 277.836 71.68 278.876 71.8 279.476L71.38 279.296L71.38 275.956C69.36 275.976 68.14 276.996 67.04 277.916C66.08 278.696 65.22 279.416 64.06 279.416C63.02 279.416 61.78 278.716 61.78 277.016C61.78 275.436 62.86 274.596 64.7 274.596ZM69.78 275.956L64.42 275.956C62.74 275.956 62.26 276.776 62.26 277.516C62.26 278.296 62.8 279.176 64.06 279.176C65.14 279.176 65.96 278.496 66.86 277.736C67.66 277.056 68.56 276.336 69.78 275.956Z" fill="white"/>
<path d="M62.2399 261.96L62.2399 263.54L71.1199 263.54C70.9199 262.82 70.8799 261.96 70.8799 261.96L71.1199 261.96C71.1999 263.26 71.5599 264.18 71.8999 264.9L70.7599 264.9C71.5799 266.08 71.8599 267.16 71.8599 267.9C71.8599 270.76 69.7799 270.94 68.1599 270.94L62.2399 270.94L62.2399 272.52L61.9999 272.52L61.9999 261.96L62.2399 261.96ZM62.2399 269.58L68.4799 269.58C71.2599 269.58 71.4999 268.24 71.4999 267.42C71.4999 266.58 70.9199 265.54 70.4599 264.9L62.2399 264.9L62.2399 269.58Z" fill="white"/>
<path d="M61.7799 256.143C61.7799 253.443 63.7399 251.463 66.7999 251.463C70.1799 251.463 71.8599 253.443 71.8599 256.143C71.8599 258.823 70.3199 260.823 66.7999 260.823C63.7799 260.823 61.7799 258.823 61.7799 256.143ZM62.0199 256.143C62.0199 257.703 63.1199 259.243 66.7999 259.243C70.4999 259.243 71.6199 257.703 71.6199 256.143C71.6199 254.563 70.4999 253.043 66.7999 253.043C63.1199 253.043 62.0199 254.563 62.0199 256.143Z" fill="white"/>
<path d="M62.2397 234.103L62.2397 236.083L76.2197 236.083L76.2197 234.323L76.4597 234.323L76.4597 237.983C73.9797 239.243 71.5997 240.663 69.0197 241.943C71.7997 243.943 74.8597 247.003 77.7197 251.163L77.4997 251.323C75.6797 248.923 74.0197 248.563 71.4397 248.563L62.2397 248.563L62.2397 250.523L61.9997 250.523L61.9997 244.903L62.2397 244.903L62.2397 246.903L71.0997 246.903C73.2197 246.903 73.9797 246.963 75.6797 248.783C73.3597 245.883 70.9797 243.643 68.7997 242.083C66.0997 243.403 64.2797 244.103 62.5597 244.103C60.7597 244.103 58.8597 243.263 58.8397 241.163L58.8397 241.143C58.8597 239.663 60.2397 238.863 61.7797 238.863C63.2397 238.863 65.2997 239.563 67.5797 240.963C70.4397 239.503 73.2197 237.943 76.2197 236.323L62.2397 236.323L62.2397 238.303L61.9997 238.303L61.9997 234.103L62.2397 234.103ZM59.0797 241.163C59.0797 242.603 60.1997 243.063 61.3597 243.063C62.8797 243.063 64.8197 242.343 67.3397 241.103C65.1397 239.763 63.1797 239.103 61.7797 239.103C60.3597 239.103 59.0797 239.823 59.0797 241.163Z" fill="white"/>
<defs>
<filter id="filter0_bdi_76_245" x="-1" y="-1" width="168" height="597" filterUnits="userSpaceOnUse" color-interpolation-filters="sRGB">
<feFlood flood-opacity="0" result="BackgroundImageFix"/>
<feGaussianBlur in="BackgroundImageFix" stdDeviation="5"/>
<feComposite in2="SourceAlpha" operator="in" result="effect1_backgroundBlur_76_245"/>
<feColorMatrix in="SourceAlpha" type="matrix" values="0 0 0 0 0 0 0 0 0 0 0 0 0 0 0 0 0 0 127 0" result="hardAlpha"/>
<feOffset dx="16" dy="16"/>
<feGaussianBlur stdDeviation="12.5"/>
<feComposite in2="hardAlpha" operator="out"/>
<feColorMatrix type="matrix" values="0 0 0 0 0 0 0 0 0 0 0 0 0 0 0 0 0 0 0.25 0"/>
<feBlend mode="normal" in2="effect1_backgroundBlur_76_245" result="effect2_dropShadow_76_245"/>
<feBlend mode="normal" in="SourceGraphic" in2="effect2_dropShadow_76_245" result="shape"/>
<feColorMatrix in="SourceAlpha" type="matrix" values="0 0 0 0 0 0 0 0 0 0 0 0 0 0 0 0 0 0 127 0" result="hardAlpha"/>
<feOffset dx="16" dy="16"/>
<feGaussianBlur stdDeviation="12.5"/>
<feComposite in2="hardAlpha" operator="arithmetic" k2="-1" k3="1"/>
<feColorMatrix type="matrix" values="0 0 0 0 1 0 0 0 0 1 0 0 0 0 1 0 0 0 0.6 0"/>
<feBlend mode="normal" in2="shape" result="effect3_innerShadow_76_245"/>
</filter>
<filter id="filter1_bdi_76_245" x="-1" y="-1" width="168" height="597" filterUnits="userSpaceOnUse" color-interpolation-filters="sRGB">
<feFlood flood-opacity="0" result="BackgroundImageFix"/>
<feGaussianBlur in="BackgroundImageFix" stdDeviation="5"/>
<feComposite in2="SourceAlpha" operator="in" result="effect1_backgroundBlur_76_245"/>
<feColorMatrix in="SourceAlpha" type="matrix" values="0 0 0 0 0 0 0 0 0 0 0 0 0 0 0 0 0 0 127 0" result="hardAlpha"/>
<feOffset dx="16" dy="16"/>
<feGaussianBlur stdDeviation="12.5"/>
<feComposite in2="hardAlpha" operator="out"/>
<feColorMatrix type="matrix" values="0 0 0 0 0 0 0 0 0 0 0 0 0 0 0 0 0 0 0.25 0"/>
<feBlend mode="normal" in2="effect1_backgroundBlur_76_245" result="effect2_dropShadow_76_245"/>
<feBlend mode="normal" in="SourceGraphic" in2="effect2_dropShadow_76_245" result="shape"/>
<feColorMatrix in="SourceAlpha" type="matrix" values="0 0 0 0 0 0 0 0 0 0 0 0 0 0 0 0 0 0 127 0" result="hardAlpha"/>
<feOffset dx="16" dy="16"/>
<feGaussianBlur stdDeviation="12.5"/>
<feComposite in2="hardAlpha" operator="arithmetic" k2="-1" k3="1"/>
<feColorMatrix type="matrix" values="0 0 0 0 1 0 0 0 0 1 0 0 0 0 1 0 0 0 0.6 0"/>
<feBlend mode="normal" in2="shape" result="effect3_innerShadow_76_245"/>
</filter>
</defs>
</svg>
