<svg width="167" height="596" viewBox="0 0 167 596" fill="none" xmlns="http://www.w3.org/2000/svg">
<g filter="url(#filter0_bdi_133_95)">
<path d="M9 67.5C9 35.1913 35.1913 9 67.5 9V9C99.8087 9 126 35.1913 126 67.5V496.5C126 528.809 99.8087 555 67.5 555V555C35.1913 555 9 528.809 9 496.5V67.5Z" fill="#E6E6DA" fill-opacity="0.1" shape-rendering="crispEdges"/>
</g>
<g filter="url(#filter1_bdi_133_95)">
<path fill-rule="evenodd" clip-rule="evenodd" d="M125 496.5V67.5C125 35.7436 99.2564 10 67.5 10C35.7436 10 10 35.7436 10 67.5V496.5C10 528.256 35.7436 554 67.5 554C99.2564 554 125 528.256 125 496.5ZM67.5 9C35.1913 9 9 35.1913 9 67.5V496.5C9 528.809 35.1913 555 67.5 555C99.8087 555 126 528.809 126 496.5V67.5C126 35.1913 99.8087 9 67.5 9Z" fill="white"/>
</g>
<path fill-rule="evenodd" clip-rule="evenodd" d="M80 330V234C80 227.373 74.6274 222 68 222C61.3726 222 56 227.373 56 234V330C56 336.627 61.3726 342 68 342C74.6274 342 80 336.627 80 330ZM68 221C60.8203 221 55 226.82 55 234V330C55 337.18 60.8203 343 68 343C75.1797 343 81 337.18 81 330V234C81 226.82 75.1797 221 68 221Z" fill="white"/>
<path fill-rule="evenodd" clip-rule="evenodd" d="M67 76C76.9411 76 85 67.9411 85 58C85 48.0589 76.9411 40 67 40C57.0589 40 49 48.0589 49 58C49 67.9411 57.0589 76 67 76ZM67 77C77.4934 77 86 68.4934 86 58C86 47.5066 77.4934 39 67 39C56.5066 39 48 47.5066 48 58C48 68.4934 56.5066 77 67 77Z" fill="white"/>
<path fill-rule="evenodd" clip-rule="evenodd" d="M67 525C76.9411 525 85 516.941 85 507C85 497.059 76.9411 489 67 489C57.0589 489 49 497.059 49 507C49 516.941 57.0589 525 67 525ZM67 526C77.4934 526 86 517.493 86 507C86 496.507 77.4934 488 67 488C56.5066 488 48 496.507 48 507C48 517.493 56.5066 526 67 526Z" fill="white"/>
<path d="M79.9199 491.76L76.4799 493.8C71.3199 496.84 67.9199 500.24 64.5599 503.8C65.2399 503.48 66.3199 503.16 67.6799 503.16C73.7599 503.16 76.9599 507.48 76.9599 512.4C76.9599 519.04 71.7599 522.6 66.0399 522.6C60.1599 522.6 55.8799 518.12 55.8799 512.08C55.8799 510.44 56.1999 508.76 56.8399 506.96C55.9599 504.92 55.3999 502.64 55.3999 500.44C55.3999 496.12 57.5999 492.4 62.8399 492.4C66.0799 492.4 69.0799 493.88 72.4399 493.88C74.2799 493.88 76.5999 493.28 79.5999 491.36L79.9199 491.76ZM63.4399 504.96L63.1199 504.64C66.8799 500.6 69.7599 497.52 75.2399 493.96C74.1599 494.28 73.0399 494.4 71.9199 494.4C69.7599 494.4 67.2399 493.96 65.2399 493.96C59.1599 493.96 56.4399 497.96 56.4399 502.44C56.4399 503.76 56.6399 505.12 57.0799 506.36C57.8399 504.6 58.9999 502.6 60.6399 500.72L60.9599 501.04C57.7199 504.96 56.3599 508.8 56.3599 512.08C56.3599 517.8 60.5199 522 66.0399 522.12C71.0799 521.96 73.5999 517.84 73.5999 511.96C73.5999 505.84 70.7199 503.72 67.4399 503.72C65.6799 503.72 64.2399 504.44 63.4399 504.96Z" fill="white"/>
<path d="M61.38 308.257L61.18 308.337C60.8 307.477 60.02 306.597 58.38 306.597C55.88 306.597 54.6 308.537 54.6 311.577C54.6 314.097 55.88 316.277 58.14 316.277C60.2 316.277 61.18 314.437 61.82 311.737L62.2 310.117C62.62 308.277 63.24 307.837 64.04 307.837C64.68 307.837 65.32 308.377 65.5 309.577C66.06 308.157 67.46 307.517 68.68 307.517C70.42 307.517 71.86 308.917 71.86 311.217C71.86 311.737 71.74 312.517 71.4 313.237C72.36 313.377 73.54 313.997 73.54 315.177C73.54 315.777 73.12 316.217 72.36 316.217C71.56 316.217 70.76 315.617 70.38 314.437C69.96 314.717 69.38 314.917 68.72 314.917C66.26 314.917 65.3 312.857 65.3 311.177L65.3 310.437C65.3 309.737 65.22 308.737 64.48 308.737C63.86 308.737 63.58 309.637 63.38 310.477L63 312.137C62.3 315.277 61.02 317.197 58.54 317.197C56.7 317.197 54.36 315.297 54.36 311.577C54.36 307.917 56.24 305.957 58.34 305.957C59.74 305.957 60.92 307.137 61.38 308.257ZM70.18 313.157L70.18 312.997C70.18 312.077 70.38 310.977 70.88 309.697C70.24 309.217 69.24 309.097 68.48 309.097C67.3 309.097 65.54 309.397 65.54 311.157C65.54 312.857 66.84 313.337 68.64 313.337C69.24 313.337 69.78 313.257 70.18 313.157ZM70.58 314.277C70.88 315.397 71.64 315.977 72.36 315.977C73 315.977 73.3 315.657 73.3 315.177C73.3 314.117 72.2 313.557 71.26 313.457C71.08 313.777 70.86 314.017 70.58 314.277ZM70.42 313.077C71.26 312.717 71.62 312.057 71.62 311.137C71.62 310.597 71.4 310.157 71.08 309.857C70.62 311.097 70.42 312.117 70.42 313.077Z" fill="white"/>
<path d="M62.2399 295.981L62.2399 297.561L71.1199 297.561C70.9199 296.841 70.8799 295.981 70.8799 295.981L71.1199 295.981C71.1999 297.281 71.5599 298.201 71.8999 298.921L70.7599 298.921C71.5799 300.101 71.8599 301.181 71.8599 301.921C71.8599 304.781 69.7799 304.961 68.1599 304.961L62.2399 304.961L62.2399 306.541L61.9999 306.541L61.9999 295.981L62.2399 295.981ZM62.2399 303.601L68.4799 303.601C71.2599 303.601 71.4999 302.261 71.4999 301.441C71.4999 300.601 70.9199 299.561 70.4599 298.921L62.2399 298.921L62.2399 303.601Z" fill="white"/>
<path d="M62.2401 290.804L62.2401 292.384L71.1201 292.384C70.9401 291.824 70.8801 290.804 70.8801 290.804L71.1201 290.804C71.2001 292.004 71.5401 293.004 71.9001 293.744L62.2401 293.744L62.2401 295.324L62.0001 295.324L62.0001 290.804L62.2401 290.804ZM72.8201 293.024L72.8201 292.864C73.7601 292.624 74.0401 292.184 74.1001 291.524L74.2801 291.524C74.3401 292.184 74.6001 292.624 75.5601 292.864L75.5601 293.024C74.6001 293.284 74.3401 293.684 74.2801 294.364L74.1001 294.364C74.0401 293.684 73.7601 293.284 72.8201 293.024Z" fill="white"/>
<path d="M62.0002 287.2L63.0402 287.2C62.4202 286.58 61.7802 285.5 61.7802 284.24C61.7802 282.64 62.8002 279.82 66.7202 279.82C69.8402 279.82 71.8602 282.14 71.8602 284.78C71.8602 286.06 71.2402 286.84 70.9202 287.2L76.9602 287.2C76.7802 286.56 76.7202 285.62 76.7202 285.62L76.9602 285.62C77.0202 286.8 77.3602 287.86 77.7202 288.56L62.2402 288.56L62.2402 290.14L62.0002 290.14L62.0002 287.2ZM63.3602 287.2L70.5802 287.2C71.2802 286.5 71.6202 285.78 71.6202 284.84C71.6202 282.6 69.9602 281.4 66.8802 281.4C63.1002 281.4 62.1402 283.28 62.1202 284.62C62.1402 285.84 62.9602 286.8 63.3602 287.2Z" fill="white"/>
<path d="M62.2399 268.344L62.2399 269.924L71.1199 269.924C70.9199 269.204 70.8799 268.344 70.8799 268.344L71.1199 268.344C71.1999 269.644 71.5599 270.564 71.8999 271.284L70.7599 271.284C71.5799 272.464 71.8599 273.544 71.8599 274.284C71.8599 277.144 69.7799 277.324 68.1599 277.324L62.2399 277.324L62.2399 278.904L61.9999 278.904L61.9999 268.344L62.2399 268.344ZM62.2399 275.964L68.4799 275.964C71.2599 275.964 71.4999 274.624 71.4999 273.804C71.4999 272.964 70.9199 271.924 70.4599 271.284L62.2399 271.284L62.2399 275.964Z" fill="white"/>
<path d="M68.6599 266.175L67.4399 266.175C66.7599 266.195 66.0199 266.555 65.3199 266.915C64.5599 267.275 63.8199 267.655 63.0999 267.655C61.9399 267.655 61.7799 266.955 61.7799 266.375C61.7799 265.295 62.4599 264.835 63.8199 264.815C61.9799 263.055 61.7799 261.855 61.7799 261.075C61.7799 259.515 62.6799 258.815 63.8199 258.815C65.0799 258.815 65.9199 259.715 66.5199 260.915C67.2799 260.075 68.1999 259.635 69.1799 259.635C70.6199 259.635 71.8599 260.755 71.8599 262.735C71.8599 264.415 71.1799 266.175 68.6599 266.175ZM67.6399 264.815L68.6599 264.815C70.5799 264.815 71.5999 264.355 71.5999 262.615C71.5999 260.995 70.5399 259.875 69.1799 259.875C68.2199 259.875 67.3799 260.275 66.6199 261.135C67.0999 262.195 67.3999 263.395 67.6399 264.815ZM65.2799 263.435L65.0399 263.355C65.3999 262.535 65.7399 261.895 66.1199 261.375C65.6399 260.755 64.9799 260.395 64.0799 260.395C62.8599 260.395 62.4199 261.095 62.4199 261.935C62.4199 262.895 63.4799 264.175 64.1799 264.815L67.3999 264.815C67.1799 263.575 66.8399 262.415 66.2599 261.575C65.9199 262.075 65.5999 262.675 65.2799 263.435ZM66.1799 266.175L63.3599 266.175C62.8599 266.175 62.2599 266.295 62.2599 266.815C62.2599 267.115 62.4599 267.415 63.0999 267.415C64.0799 267.415 65.1799 266.695 66.1799 266.175Z" fill="white"/>
<path d="M62 249.1L62.24 249.1L62.24 251.1L76.22 251.1L76.22 249.12L76.46 249.12L76.46 254.76L76.22 254.76L76.22 252.76L62.24 252.76L62.24 253.16C62.24 254.2 62.34 255.68 62.7 256.48L70.62 257.76L70.62 258.02L62 256.76L62 249.1Z" fill="white"/>
<path d="M57.6398 72V71.44C65.0398 63.52 65.2398 63.32 65.8798 62.6C59.3198 59.12 56.7998 54.76 56.7998 51C56.7998 46.2 60.8798 42.44 65.6398 42.44C70.9998 42.44 75.0798 44.88 75.0798 50.64C75.0798 54.6 71.4398 58.36 68.7998 60.92L67.0398 62.68C68.5598 63.4 70.2798 64.12 72.2798 64.76L72.1198 65.24C69.9998 64.56 68.2398 63.8 66.7198 63.04L60.1998 69.4H68.5998C72.1998 69.4 73.9598 68.88 74.3198 68.6L75.5198 57.76H75.9998L74.5598 72H57.6398ZM66.1998 62.24C69.2798 58.8 71.7598 55.36 71.7598 50.84C71.7598 47 69.8798 43.04 65.6398 42.92C61.1998 43 57.2798 46.52 57.2798 51C57.2798 54.64 59.7198 58.84 66.1998 62.24Z" fill="white"/>
<path fill-rule="evenodd" clip-rule="evenodd" d="M68.5059 132.997L68.5059 221.003H67.5059L67.5059 132.997H68.5059Z" fill="white"/>
<path fill-rule="evenodd" clip-rule="evenodd" d="M69 343L69 431.006H68L68 343H69Z" fill="white"/>
<path fill-rule="evenodd" clip-rule="evenodd" d="M66.5 221.5V134.5H67.5V221.5H66.5Z" fill="white"/>
<defs>
<filter id="filter0_bdi_133_95" x="-1" y="-1" width="168" height="597" filterUnits="userSpaceOnUse" color-interpolation-filters="sRGB">
<feFlood flood-opacity="0" result="BackgroundImageFix"/>
<feGaussianBlur in="BackgroundImageFix" stdDeviation="5"/>
<feComposite in2="SourceAlpha" operator="in" result="effect1_backgroundBlur_133_95"/>
<feColorMatrix in="SourceAlpha" type="matrix" values="0 0 0 0 0 0 0 0 0 0 0 0 0 0 0 0 0 0 127 0" result="hardAlpha"/>
<feOffset dx="16" dy="16"/>
<feGaussianBlur stdDeviation="12.5"/>
<feComposite in2="hardAlpha" operator="out"/>
<feColorMatrix type="matrix" values="0 0 0 0 0 0 0 0 0 0 0 0 0 0 0 0 0 0 0.25 0"/>
<feBlend mode="normal" in2="effect1_backgroundBlur_133_95" result="effect2_dropShadow_133_95"/>
<feBlend mode="normal" in="SourceGraphic" in2="effect2_dropShadow_133_95" result="shape"/>
<feColorMatrix in="SourceAlpha" type="matrix" values="0 0 0 0 0 0 0 0 0 0 0 0 0 0 0 0 0 0 127 0" result="hardAlpha"/>
<feOffset dx="16" dy="16"/>
<feGaussianBlur stdDeviation="12.5"/>
<feComposite in2="hardAlpha" operator="arithmetic" k2="-1" k3="1"/>
<feColorMatrix type="matrix" values="0 0 0 0 1 0 0 0 0 1 0 0 0 0 1 0 0 0 0.6 0"/>
<feBlend mode="normal" in2="shape" result="effect3_innerShadow_133_95"/>
</filter>
<filter id="filter1_bdi_133_95" x="-1" y="-1" width="168" height="597" filterUnits="userSpaceOnUse" color-interpolation-filters="sRGB">
<feFlood flood-opacity="0" result="BackgroundImageFix"/>
<feGaussianBlur in="BackgroundImageFix" stdDeviation="5"/>
<feComposite in2="SourceAlpha" operator="in" result="effect1_backgroundBlur_133_95"/>
<feColorMatrix in="SourceAlpha" type="matrix" values="0 0 0 0 0 0 0 0 0 0 0 0 0 0 0 0 0 0 127 0" result="hardAlpha"/>
<feOffset dx="16" dy="16"/>
<feGaussianBlur stdDeviation="12.5"/>
<feComposite in2="hardAlpha" operator="out"/>
<feColorMatrix type="matrix" values="0 0 0 0 0 0 0 0 0 0 0 0 0 0 0 0 0 0 0.25 0"/>
<feBlend mode="normal" in2="effect1_backgroundBlur_133_95" result="effect2_dropShadow_133_95"/>
<feBlend mode="normal" in="SourceGraphic" in2="effect2_dropShadow_133_95" result="shape"/>
<feColorMatrix in="SourceAlpha" type="matrix" values="0 0 0 0 0 0 0 0 0 0 0 0 0 0 0 0 0 0 127 0" result="hardAlpha"/>
<feOffset dx="16" dy="16"/>
<feGaussianBlur stdDeviation="12.5"/>
<feComposite in2="hardAlpha" operator="arithmetic" k2="-1" k3="1"/>
<feColorMatrix type="matrix" values="0 0 0 0 1 0 0 0 0 1 0 0 0 0 1 0 0 0 0.6 0"/>
<feBlend mode="normal" in2="shape" result="effect3_innerShadow_133_95"/>
</filter>
</defs>
</svg>
