<svg width="193" height="80" viewBox="0 0 193 80" fill="none" xmlns="http://www.w3.org/2000/svg">
<g filter="url(#filter0_bdi_76_200)">
<path d="M9 24C9 15.7157 15.7157 9 24 9H137C145.284 9 152 15.7157 152 24V24C152 32.2843 145.284 39 137 39H24C15.7157 39 9 32.2843 9 24V24Z" fill="#E6E6DA" fill-opacity="0.1" shape-rendering="crispEdges"/>
</g>
<g filter="url(#filter1_bdi_76_200)">
<path fill-rule="evenodd" clip-rule="evenodd" d="M137 10H24C16.268 10 10 16.268 10 24C10 31.732 16.268 38 24 38H137C144.732 38 151 31.732 151 24C151 16.268 144.732 10 137 10ZM24 9C15.7157 9 9 15.7157 9 24C9 32.2843 15.7157 39 24 39H137C145.284 39 152 32.2843 152 24C152 15.7157 145.284 9 137 9H24Z" fill="white"/>
</g>
<path d="M123.288 23.34V24.56C123.308 25.24 123.668 25.98 124.028 26.68C124.388 27.44 124.768 28.18 124.768 28.9C124.768 30.06 124.068 30.22 123.488 30.22C122.408 30.22 121.948 29.54 121.928 28.18C120.168 30.02 118.968 30.22 118.188 30.22C116.628 30.22 115.928 29.32 115.928 28.18C115.928 26.92 116.828 26.08 118.028 25.48C117.188 24.72 116.748 23.8 116.748 22.82C116.748 21.38 117.868 20.14 119.848 20.14C121.528 20.14 123.288 20.82 123.288 23.34ZM121.928 24.36V23.34C121.928 21.42 121.468 20.4 119.728 20.4C118.108 20.4 116.988 21.46 116.988 22.82C116.988 23.78 117.388 24.62 118.248 25.38C119.308 24.9 120.508 24.6 121.928 24.36ZM120.548 26.72L120.468 26.96C119.648 26.6 119.008 26.26 118.488 25.88C117.868 26.36 117.508 27.02 117.508 27.92C117.508 29.14 118.208 29.58 119.048 29.58C120.008 29.58 121.288 28.52 121.928 27.82V24.6C120.688 24.82 119.528 25.16 118.688 25.74C119.188 26.08 119.788 26.4 120.548 26.72ZM123.288 25.82V28.64C123.288 29.14 123.408 29.74 123.928 29.74C124.228 29.74 124.528 29.54 124.528 28.9C124.528 27.92 123.808 26.82 123.288 25.82Z" fill="white"/>
<path d="M99.5581 30V29.76H101.138V20.86C100.438 21.06 99.5581 21.12 99.5581 21.12V20.88C100.818 20.76 101.738 20.46 102.498 20.1V21.12C103.418 20.42 104.538 20.14 105.258 20.14C106.798 20.14 107.418 20.86 107.718 21.32C108.538 20.7 109.718 20.14 110.838 20.14C113.158 20.14 113.838 21.52 113.838 23.66V29.76H115.418V30H111.098V29.76H112.478V23.44C112.478 21.8 112.118 20.5 110.478 20.5C109.578 20.5 108.618 20.98 107.838 21.54C108.018 21.92 108.158 22.36 108.158 23.3V29.76H109.558V30H105.418V29.76H106.798V23.3C106.798 22.94 106.778 22.64 106.738 22.36C104.838 24.14 102.538 27.2 101.418 30H99.5581ZM102.498 21.4V27.32C103.718 25.24 105.298 23.32 106.698 22.08C106.458 20.92 105.838 20.5 104.878 20.5C103.998 20.5 103.178 20.9 102.498 21.4Z" fill="white"/>
<path d="M97.8233 23.78H91.4833C91.4433 24.14 91.4233 24.5 91.4233 24.9C91.4233 29 93.0833 29.98 94.4233 29.98C96.9833 29.98 98.5033 27.42 98.5033 24.54C98.5033 23.94 98.4233 23.3 98.2633 22.68L98.5033 22.6C98.6633 23.24 98.7433 23.94 98.7433 24.54C98.7433 27.54 97.1433 30.22 94.4233 30.22C92.4033 30.22 89.8433 28.98 89.8433 25.18C89.8433 22.36 91.4833 20.14 94.2033 20.14C96.6833 20.14 97.8033 22.02 97.8233 23.78ZM94.0433 20.38C92.8033 20.38 91.8233 21.62 91.5233 23.54H96.3233C96.3033 21.84 95.6233 20.38 94.0433 20.38Z" fill="white"/>
<path d="M78.3672 29.76H79.9472V20.88C79.2272 21.08 78.3672 21.12 78.3672 21.12V20.88C79.6672 20.8 80.5872 20.44 81.3072 20.1V21.24C82.4872 20.42 83.5672 20.14 84.3072 20.14C87.1672 20.14 87.3472 22.22 87.3472 23.84V29.76H88.9272V30H78.3672V29.76ZM85.9872 29.76V23.52C85.9872 20.74 84.6472 20.5 83.8272 20.5C82.9872 20.5 81.9472 21.08 81.3072 21.54V29.76H85.9872Z" fill="white"/>
<path d="M76.1979 23.34V24.56C76.2179 25.24 76.5779 25.98 76.9379 26.68C77.2979 27.44 77.6779 28.18 77.6779 28.9C77.6779 30.06 76.9779 30.22 76.3979 30.22C75.3179 30.22 74.8579 29.54 74.8379 28.18C73.0779 30.02 71.8779 30.22 71.0979 30.22C69.5379 30.22 68.8379 29.32 68.8379 28.18C68.8379 26.92 69.7379 26.08 70.9379 25.48C70.0979 24.72 69.6579 23.8 69.6579 22.82C69.6579 21.38 70.7779 20.14 72.7579 20.14C74.4379 20.14 76.1979 20.82 76.1979 23.34ZM74.8379 24.36V23.34C74.8379 21.42 74.3779 20.4 72.6379 20.4C71.0179 20.4 69.8979 21.46 69.8979 22.82C69.8979 23.78 70.2979 24.62 71.1579 25.38C72.2179 24.9 73.4179 24.6 74.8379 24.36ZM73.4579 26.72L73.3779 26.96C72.5579 26.6 71.9179 26.26 71.3979 25.88C70.7779 26.36 70.4179 27.02 70.4179 27.92C70.4179 29.14 71.1179 29.58 71.9579 29.58C72.9179 29.58 74.1979 28.52 74.8379 27.82V24.6C73.5979 24.82 72.4379 25.16 71.5979 25.74C72.0979 26.08 72.6979 26.4 73.4579 26.72ZM76.1979 25.82V28.64C76.1979 29.14 76.3179 29.74 76.8379 29.74C77.1379 29.74 77.4379 29.54 77.4379 28.9C77.4379 27.92 76.7179 26.82 76.1979 25.82Z" fill="white"/>
<path d="M67.1983 23.78H60.8583C60.8183 24.14 60.7983 24.5 60.7983 24.9C60.7983 29 62.4583 29.98 63.7983 29.98C66.3583 29.98 67.8783 27.42 67.8783 24.54C67.8783 23.94 67.7983 23.3 67.6383 22.68L67.8783 22.6C68.0383 23.24 68.1183 23.94 68.1183 24.54C68.1183 27.54 66.5183 30.22 63.7983 30.22C61.7783 30.22 59.2183 28.98 59.2183 25.18C59.2183 22.36 60.8583 20.14 63.5783 20.14C66.0583 20.14 67.1783 22.02 67.1983 23.78ZM63.4183 20.38C62.1783 20.38 61.1983 21.62 60.8983 23.54H65.6983C65.6783 21.84 64.9983 20.38 63.4183 20.38Z" fill="white"/>
<path d="M50.8086 30V29.76H52.3886V20.88C51.6486 21.06 50.8086 21.12 50.8086 21.12V20.88C52.1286 20.78 53.0086 20.44 53.7486 20.1V22.04C54.2886 20.92 55.1886 20.14 56.1886 20.14C56.7286 20.14 57.1286 20.36 57.4286 20.58L57.4086 20.14H57.6686L57.7686 25.48H57.5486L57.4486 21.74C57.4486 21.18 56.9686 20.38 56.0886 20.38C54.7086 20.38 53.7486 22.2 53.7486 23.86V29.76H55.5286V30H50.8086Z" fill="white"/>
<path d="M35.1001 29.76H37.0801V15.78H35.1001V15.54H37.9801C38.6001 15.54 39.2801 15.52 40.0001 15.48C40.6601 15.46 41.3001 15.44 41.8401 15.44C49.0401 15.44 49.6601 20.6 49.6601 22.54C49.6601 24.94 48.6601 30.1 41.8401 30.1C41.2801 30.1 40.5401 30.08 39.8401 30.04C39.2401 30.02 38.6801 30 38.3401 30H35.1001V29.76ZM38.7401 19.6V29.76C39.3801 29.8 40.6401 29.86 41.5201 29.86C45.6401 29.86 47.3601 27.34 47.7601 24.2C47.1601 25.54 45.8201 26.36 44.3001 26.36C42.0601 26.36 39.5201 24.52 38.7401 19.6ZM38.7401 15.78V16.38C38.7401 23.54 41.7401 26.14 44.3001 26.14C46.1401 26.14 47.7801 24.68 47.8401 22.7C47.8201 20.02 46.7601 15.68 41.6401 15.68C40.6601 15.68 39.5401 15.72 38.7401 15.78Z" fill="white"/>
<defs>
<filter id="filter0_bdi_76_200" x="-1" y="-1" width="194" height="81" filterUnits="userSpaceOnUse" color-interpolation-filters="sRGB">
<feFlood flood-opacity="0" result="BackgroundImageFix"/>
<feGaussianBlur in="BackgroundImageFix" stdDeviation="5"/>
<feComposite in2="SourceAlpha" operator="in" result="effect1_backgroundBlur_76_200"/>
<feColorMatrix in="SourceAlpha" type="matrix" values="0 0 0 0 0 0 0 0 0 0 0 0 0 0 0 0 0 0 127 0" result="hardAlpha"/>
<feOffset dx="16" dy="16"/>
<feGaussianBlur stdDeviation="12.5"/>
<feComposite in2="hardAlpha" operator="out"/>
<feColorMatrix type="matrix" values="0 0 0 0 0 0 0 0 0 0 0 0 0 0 0 0 0 0 0.25 0"/>
<feBlend mode="normal" in2="effect1_backgroundBlur_76_200" result="effect2_dropShadow_76_200"/>
<feBlend mode="normal" in="SourceGraphic" in2="effect2_dropShadow_76_200" result="shape"/>
<feColorMatrix in="SourceAlpha" type="matrix" values="0 0 0 0 0 0 0 0 0 0 0 0 0 0 0 0 0 0 127 0" result="hardAlpha"/>
<feOffset dx="16" dy="16"/>
<feGaussianBlur stdDeviation="12.5"/>
<feComposite in2="hardAlpha" operator="arithmetic" k2="-1" k3="1"/>
<feColorMatrix type="matrix" values="0 0 0 0 1 0 0 0 0 1 0 0 0 0 1 0 0 0 0.6 0"/>
<feBlend mode="normal" in2="shape" result="effect3_innerShadow_76_200"/>
</filter>
<filter id="filter1_bdi_76_200" x="-1" y="-1" width="194" height="81" filterUnits="userSpaceOnUse" color-interpolation-filters="sRGB">
<feFlood flood-opacity="0" result="BackgroundImageFix"/>
<feGaussianBlur in="BackgroundImageFix" stdDeviation="5"/>
<feComposite in2="SourceAlpha" operator="in" result="effect1_backgroundBlur_76_200"/>
<feColorMatrix in="SourceAlpha" type="matrix" values="0 0 0 0 0 0 0 0 0 0 0 0 0 0 0 0 0 0 127 0" result="hardAlpha"/>
<feOffset dx="16" dy="16"/>
<feGaussianBlur stdDeviation="12.5"/>
<feComposite in2="hardAlpha" operator="out"/>
<feColorMatrix type="matrix" values="0 0 0 0 0 0 0 0 0 0 0 0 0 0 0 0 0 0 0.25 0"/>
<feBlend mode="normal" in2="effect1_backgroundBlur_76_200" result="effect2_dropShadow_76_200"/>
<feBlend mode="normal" in="SourceGraphic" in2="effect2_dropShadow_76_200" result="shape"/>
<feColorMatrix in="SourceAlpha" type="matrix" values="0 0 0 0 0 0 0 0 0 0 0 0 0 0 0 0 0 0 127 0" result="hardAlpha"/>
<feOffset dx="16" dy="16"/>
<feGaussianBlur stdDeviation="12.5"/>
<feComposite in2="hardAlpha" operator="arithmetic" k2="-1" k3="1"/>
<feColorMatrix type="matrix" values="0 0 0 0 1 0 0 0 0 1 0 0 0 0 1 0 0 0 0.6 0"/>
<feBlend mode="normal" in2="shape" result="effect3_innerShadow_76_200"/>
</filter>
</defs>
</svg>
