<svg width="685" height="681" viewBox="0 0 685 681" fill="none" xmlns="http://www.w3.org/2000/svg">
<path fill-rule="evenodd" clip-rule="evenodd" d="M660 667.399V667.399C666.774 667.399 672.265 661.908 672.265 655.134V654H672.266V655.134C672.266 661.908 677.757 667.399 684.531 667.399V667.399C677.757 667.399 672.266 672.891 672.266 679.665V680.798H672.265V679.665C672.265 672.891 666.774 667.399 660 667.399Z" fill="#BD00FF"/>
<path d="M524.974 26.616H526.35C524.43 18.84 523.95 16.536 522.574 9.65601H522.958C523.502 11.544 523.726 11.608 525.038 11.608H535.246C536.526 11.608 536.75 11.544 537.326 9.65601H537.71C536.302 16.568 535.886 18.776 533.902 26.616H535.31V27H524.974V26.616ZM526.734 26.616H529.038V11.992H525.614C524.334 11.992 524.078 12.152 524.078 13.72C524.078 15.864 525.454 21.368 526.286 24.728C526.478 25.528 526.638 26.136 526.734 26.616ZM531.214 11.992V26.616H533.55C533.614 26.136 533.774 25.496 533.966 24.728C534.83 21.368 536.174 15.864 536.174 13.72C536.174 12.152 535.95 11.992 534.67 11.992H531.214Z" fill="#BD00FF"/>
<path d="M519.792 16.3441V18.2961C519.824 19.3841 520.4 20.5681 520.976 21.6881C521.552 22.9041 522.16 24.0881 522.16 25.2401C522.16 27.0961 521.04 27.3521 520.112 27.3521C518.384 27.3521 517.648 26.2641 517.616 24.0881C514.8 27.0321 512.88 27.3521 511.632 27.3521C509.136 27.3521 508.016 25.9121 508.016 24.0881C508.016 22.0721 509.456 20.7281 511.376 19.7681C510.032 18.5521 509.328 17.0801 509.328 15.5121C509.328 13.2081 511.12 11.2241 514.288 11.2241C516.976 11.2241 519.792 12.3121 519.792 16.3441ZM517.616 17.9761V16.3441C517.616 13.2721 516.88 11.6401 514.096 11.6401C511.504 11.6401 509.712 13.3361 509.712 15.5121C509.712 17.0481 510.352 18.3921 511.728 19.6081C513.424 18.8401 515.344 18.3601 517.616 17.9761ZM515.408 21.7521L515.28 22.1361C513.968 21.5601 512.944 21.0161 512.112 20.4081C511.12 21.1761 510.544 22.2321 510.544 23.6721C510.544 25.6241 511.664 26.3281 513.008 26.3281C514.544 26.3281 516.592 24.6321 517.616 23.5121V18.3601C515.632 18.7121 513.776 19.2561 512.432 20.1841C513.232 20.7281 514.192 21.2401 515.408 21.7521ZM519.792 20.3121V24.8241C519.792 25.6241 519.984 26.5841 520.816 26.5841C521.296 26.5841 521.776 26.2641 521.776 25.2401C521.776 23.6721 520.624 21.9121 519.792 20.3121Z" fill="#BD00FF"/>
<path d="M490.481 26.9999V26.6159H493.009V11.9919H490.481V11.6079H497.713V11.9919H495.185V18.4879H496.689C497.041 18.4879 497.425 18.4879 497.873 18.5519L502.641 11.9919H500.369V11.6079H505.457V11.9919H503.153L498.289 18.6479C498.865 18.7439 499.505 18.9999 500.177 19.4159C500.337 19.3839 500.497 19.3839 500.689 19.3839C503.793 19.3839 506.865 21.6879 506.865 25.3039C506.865 27.0959 506.097 27.9599 504.817 27.9599C502.993 27.9599 501.809 26.5199 500.913 24.2159C499.569 20.8879 499.697 20.8559 498.961 20.0559C496.881 20.6959 495.217 22.7759 495.185 26.6159H497.713V26.9999H490.481ZM500.689 19.7679L500.785 19.8319C502.289 20.8559 503.249 23.1279 503.985 25.1439C504.465 26.4239 504.785 27.3839 505.425 27.3839C506.065 27.3839 506.513 26.4559 506.513 25.3039C506.513 21.9439 503.569 19.7679 500.689 19.7679ZM495.185 18.8719V23.7679C495.825 21.6239 497.169 20.3119 498.737 19.7359C498.193 19.0959 497.521 18.8719 496.497 18.8719H495.185Z" fill="#BD00FF"/>
<path d="M487.01 16.3441V18.2961C487.042 19.3841 487.618 20.5681 488.194 21.6881C488.77 22.9041 489.379 24.0881 489.379 25.2401C489.379 27.0961 488.259 27.3521 487.331 27.3521C485.603 27.3521 484.867 26.2641 484.835 24.0881C482.019 27.0321 480.098 27.3521 478.85 27.3521C476.354 27.3521 475.234 25.9121 475.234 24.0881C475.234 22.0721 476.675 20.7281 478.595 19.7681C477.251 18.5521 476.547 17.0801 476.547 15.5121C476.547 13.2081 478.339 11.2241 481.507 11.2241C484.195 11.2241 487.01 12.3121 487.01 16.3441ZM484.835 17.9761V16.3441C484.835 13.2721 484.099 11.6401 481.315 11.6401C478.723 11.6401 476.931 13.3361 476.931 15.5121C476.931 17.0481 477.571 18.3921 478.947 19.6081C480.643 18.8401 482.563 18.3601 484.835 17.9761ZM482.626 21.7521L482.499 22.1361C481.187 21.5601 480.163 21.0161 479.331 20.4081C478.339 21.1761 477.763 22.2321 477.763 23.6721C477.763 25.6241 478.883 26.3281 480.227 26.3281C481.763 26.3281 483.811 24.6321 484.835 23.5121V18.3601C482.851 18.7121 480.995 19.2561 479.651 20.1841C480.451 20.7281 481.41 21.2401 482.626 21.7521ZM487.01 20.3121V24.8241C487.01 25.6241 487.203 26.5841 488.035 26.5841C488.515 26.5841 488.995 26.2641 488.995 25.2401C488.995 23.6721 487.842 21.9121 487.01 20.3121Z" fill="#BD00FF"/>
<path d="M458.283 26.9679L459.051 21.3999L459.435 21.4639L458.827 26.0399C459.051 26.2959 459.467 26.5519 459.979 26.5519C462.123 26.5519 462.731 24.1839 463.115 22.4559C463.883 19.0959 464.043 15.4479 464.043 11.9919H461.419V11.6079H474.059V11.9919H471.531V26.6159H474.059V26.9999H466.827V26.6159H469.355V11.9919H464.491C464.395 15.6079 464.395 19.3199 463.435 23.0319C462.539 26.3919 461.227 27.2879 459.627 27.2879C459.115 27.2879 458.635 27.0959 458.283 26.9679Z" fill="#BD00FF"/>
<path d="M434.94 27V26.616H438.172V4.24801H434.94V3.86401H458.076V4.24801H454.844V26.616H458.076V27H448.924V26.616H452.156V4.24801H440.828V26.616H444.092V27H434.94Z" fill="#BD00FF"/>
<path d="M425.226 18.8401V18.4561H433.226V18.8401H425.226Z" fill="#BD00FF"/>
<path d="M408.253 27.3519V3.19193C407.229 3.51192 406.365 3.63993 405.629 3.63993C403.709 3.63993 402.589 2.77592 402.589 1.97592C402.589 1.07992 403.741 0.471924 405.245 0.471924C406.589 0.471924 408.221 0.919924 409.629 2.23192L410.429 1.87992V2.99992C411.837 4.66393 412.861 7.31993 412.861 11.1599V11.5759C413.789 11.2879 414.493 11.2239 414.973 11.2239C418.973 11.2239 422.301 13.7199 422.301 18.8079C422.301 24.8879 418.269 27.3519 414.397 27.3519C412.765 27.3519 411.133 26.9359 409.565 25.5599L408.605 27.3519H408.253ZM414.461 26.9679C417.117 26.9679 419.773 24.4719 419.773 19.1279C419.773 15.5759 418.109 11.9919 414.077 11.9919C413.661 11.9919 413.277 12.0559 412.829 12.1519C412.733 15.1279 411.965 18.9679 410.429 23.4799C410.493 25.9119 412.605 26.9679 414.461 26.9679ZM410.429 3.60793V22.2959C411.869 17.7839 412.477 14.0719 412.477 11.1599C412.477 7.63993 411.645 5.23993 410.429 3.60793ZM409.309 2.42393C407.965 1.23992 406.525 0.855925 405.245 0.855925C403.933 0.855925 402.973 1.33592 402.973 1.97592C402.973 2.61592 403.901 3.25592 405.629 3.25592C406.621 3.25592 407.837 3.03193 409.309 2.42393Z" fill="#BD00FF"/>
<path d="M403.205 17.0481H393.061C392.997 17.6241 392.965 18.2001 392.965 18.8401C392.965 25.4001 395.621 26.9681 397.765 26.9681C401.861 26.9681 404.293 22.8721 404.293 18.2641C404.293 17.3041 404.165 16.2801 403.909 15.2881L404.293 15.1601C404.549 16.1841 404.677 17.3041 404.677 18.2641C404.677 23.0641 402.117 27.3521 397.765 27.3521C394.533 27.3521 390.437 25.3681 390.437 19.2881C390.437 14.7761 393.061 11.2241 397.413 11.2241C401.381 11.2241 403.173 14.2321 403.205 17.0481ZM397.157 11.6081C395.173 11.6081 393.605 13.5921 393.125 16.6641H400.805C400.773 13.9441 399.685 11.6081 397.157 11.6081Z" fill="#BD00FF"/>
<path d="M363.253 27V26.616H366.325V4.24801H363.445V3.86401H374.741V4.24801H368.981L368.757 22.168L378.485 3.86401H383.893V4.24801H381.109V21.848L390.517 4.24801H387.381V3.86401H393.621V4.24801H390.965L379.029 26.616H388.149V27H363.253ZM378.453 26.616V4.79202L366.901 26.616H378.453Z" fill="#BD00FF"/>
<path d="M338.294 26.6161H340.822V11.9921H338.294V11.6081H355.542V11.9921H353.014V26.6161H355.542V27.0001H338.294V26.6161ZM342.998 24.6001V26.6161H350.838V14.5521L342.998 24.6001ZM342.998 11.9921V23.8641L350.838 13.8161V11.9921H342.998ZM344.15 4.1521H344.566C344.118 4.6641 343.894 5.3041 343.894 6.0401C343.894 7.7681 344.918 8.9841 346.934 8.9841C349.846 8.9841 350.838 6.8081 350.998 4.6321H351.35C351.254 7.1601 349.974 9.4001 346.902 9.4001C344.246 9.4001 342.454 7.9601 342.454 6.2641C342.454 5.2401 343.158 4.4721 344.15 4.1521Z" fill="#BD00FF"/>
<path d="M315.668 26.6159H318.196V11.9919H315.668V11.6079H322.9V11.9919H320.372V17.5599C321.652 17.2079 322.644 17.1439 323.668 17.1439C328.18 17.1439 329.588 19.9919 329.588 22.0719C329.588 24.5679 327.988 27.2559 323.732 27.2559C321.908 27.2559 320.404 26.9999 317.972 26.9999H315.668V26.6159ZM320.372 17.9439V26.6799C321.012 26.7439 322.356 26.8719 323.188 26.8719C325.556 26.8719 327.06 25.1119 327.06 22.0719C327.06 20.4079 326.612 17.5279 322.836 17.5279C321.972 17.5279 320.98 17.7519 320.372 17.9439ZM330.004 26.6159H332.532V11.9919H330.004V11.6079H337.236V11.9919H334.708V26.6159H337.236V26.9999H330.004V26.6159Z" fill="#BD00FF"/>
<path d="M297.543 26.6159H300.071V11.9919H297.543V11.6079H314.631V11.9919H312.103V26.6159H314.631V26.9999H297.543V26.6159ZM309.927 26.6159V18.8719H302.247V26.6159H309.927ZM302.247 11.9919V18.4879H309.927V11.9919H302.247Z" fill="#BD00FF"/>
<path d="M279.418 26.6159H281.946V11.9919H279.418V11.6079H296.506V11.9919H293.978V26.6159H296.506V26.9999H279.418V26.6159ZM291.802 26.6159V18.8719H284.122V26.6159H291.802ZM284.122 11.9919V18.4879H291.802V11.9919H284.122Z" fill="#BD00FF"/>
<path d="M275.979 16.3441V18.2961C276.011 19.3841 276.587 20.5681 277.163 21.6881C277.739 22.9041 278.347 24.0881 278.347 25.2401C278.347 27.0961 277.227 27.3521 276.299 27.3521C274.571 27.3521 273.835 26.2641 273.803 24.0881C270.987 27.0321 269.067 27.3521 267.819 27.3521C265.323 27.3521 264.203 25.9121 264.203 24.0881C264.203 22.0721 265.643 20.7281 267.563 19.7681C266.219 18.5521 265.515 17.0801 265.515 15.5121C265.515 13.2081 267.307 11.2241 270.475 11.2241C273.163 11.2241 275.979 12.3121 275.979 16.3441ZM273.803 17.9761V16.3441C273.803 13.2721 273.067 11.6401 270.283 11.6401C267.691 11.6401 265.899 13.3361 265.899 15.5121C265.899 17.0481 266.539 18.3921 267.915 19.6081C269.611 18.8401 271.531 18.3601 273.803 17.9761ZM271.595 21.7521L271.467 22.1361C270.155 21.5601 269.131 21.0161 268.299 20.4081C267.307 21.1761 266.731 22.2321 266.731 23.6721C266.731 25.6241 267.851 26.3281 269.195 26.3281C270.731 26.3281 272.779 24.6321 273.803 23.5121V18.3601C271.819 18.7121 269.963 19.2561 268.619 20.1841C269.419 20.7281 270.379 21.2401 271.595 21.7521ZM275.979 20.3121V24.8241C275.979 25.6241 276.171 26.5841 277.003 26.5841C277.483 26.5841 277.963 26.2641 277.963 25.2401C277.963 23.6721 276.811 21.9121 275.979 20.3121Z" fill="#BD00FF"/>
<path d="M248.106 26.9999V26.6159H250.634V11.9919H248.106V11.6079H256.106C259.882 11.6079 261.322 12.9839 261.322 14.9039C261.322 17.0799 259.114 18.2319 257.354 18.6159C260.234 18.9039 262.218 20.3439 262.218 22.6799C262.218 25.0159 260.17 26.9999 256.586 26.9999H248.106ZM252.842 18.8719V26.6159H254.698C256.17 26.6159 259.69 26.5839 259.69 22.7439C259.69 19.0959 256.746 18.8719 255.306 18.8719H252.842ZM252.842 11.9919V18.4879H255.434C258.09 18.4879 258.954 17.1759 258.954 15.1599C258.954 12.5679 257.226 11.9919 255.21 11.9919H252.842Z" fill="#BD00FF"/>
<path d="M238.831 27.3521C234.511 27.3521 231.343 24.2161 231.343 19.3201C231.343 13.9121 234.511 11.2241 238.831 11.2241C243.119 11.2241 246.319 13.6881 246.319 19.3201C246.319 24.1521 243.119 27.3521 238.831 27.3521ZM238.831 26.9681C241.327 26.9681 243.791 25.2081 243.791 19.3201C243.791 13.4001 241.327 11.6081 238.831 11.6081C236.303 11.6081 233.871 13.4001 233.871 19.3201C233.871 25.2081 236.303 26.9681 238.831 26.9681Z" fill="#BD00FF"/>
<path d="M212.699 34.1039V33.7199H215.227V24.2799C212.987 21.0479 212.699 16.3439 212.699 12.5359V12.0239C212.955 12.0559 213.499 12.0879 213.755 12.0879C215.195 12.0879 216.379 11.6079 217.403 11.1599V13.2399C218.427 12.3119 219.995 11.2239 222.235 11.2239C225.307 11.2239 229.019 13.0799 229.019 19.2559C229.019 23.6719 226.363 27.2879 221.499 27.3519C219.835 27.3519 218.523 26.9679 217.403 26.2959V33.7199H219.931V34.1039H212.699ZM217.403 13.6879V25.8479C218.491 26.5519 219.835 26.9679 221.499 26.9679C224.475 26.9679 226.491 24.0879 226.491 19.3519C226.491 14.1999 224.539 11.7999 221.499 11.7999C219.739 11.7999 218.523 12.7599 217.403 13.6879ZM215.227 23.6079V12.3759C214.619 12.5359 213.499 12.5359 213.083 12.4719C213.083 16.2479 213.307 20.5679 215.227 23.6079Z" fill="#BD00FF"/>
<path d="M194.388 26.6159H196.916V11.9919H194.388V11.6079H211.636V11.9919H209.108V26.6159H211.636V26.9999H194.388V26.6159ZM199.092 24.5999V26.6159H206.932V14.5519L199.092 24.5999ZM199.092 11.9919V23.8639L206.932 13.8159V11.9919H199.092Z" fill="#BD00FF"/>
<path d="M173.951 26.6159H176.415V11.9919H173.887V11.6079H178.591L183.679 21.8479L188.831 11.6079H193.343V11.9919H190.751V26.6159H193.343V26.9999H173.951V26.6159ZM188.575 26.6159V12.9839L182.911 24.2479C182.367 25.3359 181.791 26.1679 181.247 26.6159H188.575ZM182.527 24.2159L176.799 12.8559V13.2399C176.927 20.4399 178.399 26.6159 180.319 26.6159C180.959 26.6159 181.759 25.7199 182.527 24.2159ZM176.799 18.9679V26.6159H179.423C178.207 25.6239 177.279 22.6799 176.799 18.9679Z" fill="#BD00FF"/>
<path d="M155.575 26.6159H158.103V11.9919H155.575V11.6079H172.823V11.9919H170.295V26.6159H172.823V26.9999H155.575V26.6159ZM160.279 24.5999V26.6159H168.119V14.5519L160.279 24.5999ZM160.279 11.9919V23.8639L168.119 13.8159V11.9919H160.279Z" fill="#BD00FF"/>
<path d="M137.418 26.6159H139.946V11.9919H137.418V11.6079H154.506V11.9919H151.978V26.6159H154.506V26.9999H137.418V26.6159ZM149.802 26.6159V18.8719H142.122V26.6159H149.802ZM142.122 11.9919V18.4879H149.802V11.9919H142.122Z" fill="#BD00FF"/>
<path d="M128.992 27V26.616H132.704L129.6 18.04C128.736 23.256 122.016 26.712 116.384 27.288C117.088 24.312 118.816 21.848 120.8 19.768C120.032 18.936 119.68 17.88 119.68 16.92C119.712 15.032 120.992 13.464 122.848 12.952L126.272 3.86401H127.04L135.488 26.616H137.984V27H128.992ZM129.12 17.624C129.12 16.024 128.48 14.552 127.04 13.816C126.56 14.52 125.824 15.288 125.024 16.152C122.24 19.064 119.744 21.88 119.744 26.168C124.064 25.176 129.12 21.816 129.12 17.624ZM121.088 19.48C121.888 18.552 122.848 17.656 123.712 16.856C124.928 15.64 126.016 14.584 126.688 13.624C125.984 13.304 125.248 13.144 124.448 13.144C122.016 13.144 120.096 14.744 120.096 16.92C120.096 17.688 120.384 18.712 121.088 19.48ZM128.192 14.136L125.664 6.74401L123.36 12.824C123.712 12.76 124.096 12.728 124.416 12.728C125.92 12.728 127.264 13.24 128.192 14.136Z" fill="#BD00FF"/>
<path d="M650.523 672.075C649.783 672.075 649.108 671.925 648.498 671.625C647.888 671.315 647.363 670.905 646.923 670.395C646.483 669.885 646.143 669.31 645.903 668.67C645.663 668.02 645.543 667.355 645.543 666.675C645.543 665.965 645.668 665.29 645.918 664.65C646.168 664 646.518 663.425 646.968 662.925C647.428 662.415 647.958 662.015 648.558 661.725C649.168 661.425 649.828 661.275 650.538 661.275C651.288 661.275 651.963 661.43 652.563 661.74C653.173 662.05 653.698 662.465 654.138 662.985C654.578 663.505 654.918 664.085 655.158 664.725C655.398 665.365 655.518 666.015 655.518 666.675C655.518 667.395 655.393 668.08 655.143 668.73C654.893 669.37 654.538 669.945 654.078 670.455C653.628 670.955 653.098 671.35 652.488 671.64C651.888 671.93 651.233 672.075 650.523 672.075ZM646.308 666.675C646.308 667.285 646.413 667.87 646.623 668.43C646.833 668.99 647.123 669.49 647.493 669.93C647.873 670.37 648.318 670.72 648.828 670.98C649.348 671.24 649.918 671.37 650.538 671.37C651.168 671.37 651.743 671.235 652.263 670.965C652.783 670.695 653.228 670.335 653.598 669.885C653.968 669.435 654.248 668.935 654.438 668.385C654.638 667.825 654.738 667.255 654.738 666.675C654.738 666.065 654.633 665.48 654.423 664.92C654.223 664.36 653.933 663.86 653.553 663.42C653.173 662.98 652.723 662.63 652.203 662.37C651.693 662.11 651.138 661.98 650.538 661.98C649.898 661.98 649.318 662.115 648.798 662.385C648.278 662.655 647.833 663.015 647.463 663.465C647.103 663.915 646.818 664.42 646.608 664.98C646.408 665.53 646.308 666.095 646.308 666.675Z" fill="#BD00FF"/>
<path d="M639.786 672.075C639.066 672.075 638.401 671.92 637.791 671.61C637.181 671.3 636.651 670.89 636.201 670.38C635.751 669.86 635.401 669.28 635.151 668.64C634.911 667.99 634.791 667.33 634.791 666.66C634.791 665.96 634.911 665.29 635.151 664.65C635.391 664 635.731 663.425 636.171 662.925C636.611 662.415 637.131 662.015 637.731 661.725C638.331 661.425 638.986 661.275 639.696 661.275C640.756 661.275 641.611 661.495 642.261 661.935C642.921 662.365 643.421 662.92 643.761 663.6L643.131 663.975C642.771 663.275 642.291 662.77 641.691 662.46C641.101 662.14 640.431 661.98 639.681 661.98C639.051 661.98 638.481 662.115 637.971 662.385C637.461 662.645 637.026 663 636.666 663.45C636.306 663.89 636.031 664.39 635.841 664.95C635.651 665.51 635.556 666.085 635.556 666.675C635.556 667.305 635.666 667.9 635.886 668.46C636.106 669.02 636.411 669.52 636.801 669.96C637.191 670.4 637.646 670.745 638.166 670.995C638.686 671.245 639.241 671.37 639.831 671.37C640.521 671.37 641.171 671.205 641.781 670.875C642.391 670.535 642.976 670.005 643.536 669.285V670.14C642.476 671.43 641.226 672.075 639.786 672.075ZM643.371 667.44H640.956V666.825H644.031V672H643.371V667.44Z" fill="#BD00FF"/>
<path d="M625.785 672V661.35H630.21C630.67 661.35 631.085 661.445 631.455 661.635C631.835 661.825 632.16 662.08 632.43 662.4C632.71 662.71 632.925 663.06 633.075 663.45C633.235 663.84 633.315 664.24 633.315 664.65C633.315 665.18 633.21 665.675 633 666.135C632.79 666.595 632.495 666.98 632.115 667.29C631.745 667.6 631.31 667.79 630.81 667.86L633.465 672H632.58L630 667.98H626.55V672H625.785ZM626.55 667.275H630.285C630.745 667.275 631.145 667.15 631.485 666.9C631.825 666.65 632.085 666.325 632.265 665.925C632.455 665.525 632.55 665.1 632.55 664.65C632.55 664.19 632.44 663.765 632.22 663.375C632.01 662.975 631.725 662.655 631.365 662.415C631.015 662.165 630.62 662.04 630.18 662.04H626.55V667.275Z" fill="#BD00FF"/>
<path d="M619.008 661.35H619.668L624.168 672H623.358L621.873 668.49H616.788L615.303 672H614.478L619.008 661.35ZM621.663 667.86L619.338 662.28L616.968 667.86H621.663Z" fill="#BD00FF"/>
<path d="M612.109 672V662.835L607.924 670.005H607.414L603.229 662.835V672H602.464V661.35H603.229L607.669 668.97L612.109 661.35H612.874V672H612.109Z" fill="#BD00FF"/>
<path d="M594.281 672.69V672H600.071V672.69H594.281Z" fill="#BD00FF"/>
<path d="M587.909 661.35H588.569L593.069 672H592.259L590.774 668.49H585.689L584.204 672H583.379L587.909 661.35ZM590.564 667.86L588.239 662.28L585.869 667.86H590.564Z" fill="#BD00FF"/>
<path d="M573.727 662.775V672H572.962V661.35H573.592L581.017 670.725V661.35H581.782V672H581.032L573.727 662.775Z" fill="#BD00FF"/>
<path d="M569.403 672V661.35H570.168V672H569.403Z" fill="#BD00FF"/>
<path d="M567.746 662.04H563.846V672H563.081V662.04H559.181V661.35H567.746V662.04Z" fill="#BD00FF"/>
<path d="M549.47 662.775V672H548.705V661.35H549.335L556.76 670.725V661.35H557.525V672H556.775L549.47 662.775Z" fill="#BD00FF"/>
<path d="M546.615 671.31V672H539.52V661.35H546.48V662.04H540.285V666.225H545.7V666.885H540.285V671.31H546.615Z" fill="#BD00FF"/>
<path d="M530.804 672V661.35H531.569V671.31H537.929V672H530.804Z" fill="#BD00FF"/>
<path d="M524.027 661.35H524.687L529.187 672H528.377L526.892 668.49H521.807L520.322 672H519.497L524.027 661.35ZM526.682 667.86L524.357 662.28L521.987 667.86H526.682Z" fill="#BD00FF"/>
<path d="M511.035 661.35L515.085 671.04L519.135 661.35H519.945L515.46 672H514.725L510.225 661.35H511.035Z" fill="#BD00FF"/>
<path fill-rule="evenodd" clip-rule="evenodd" d="M500 667L8.74228e-08 667L0 666L500 666L500 667Z" fill="#BD00FF"/>
<path fill-rule="evenodd" clip-rule="evenodd" d="M685 49L185 49L185 48L685 48L685 49Z" fill="#BD00FF"/>
<path d="M152.465 141.872C152.465 141.2 153.017 140.672 153.665 140.672C154.361 140.672 154.865 141.224 154.865 141.872C154.865 142.52 154.361 143.048 153.665 143.048C153.017 143.048 152.465 142.568 152.465 141.872ZM153.665 133.544C153.017 133.544 152.465 133.064 152.465 132.368C152.465 131.696 153.017 131.168 153.665 131.168C154.361 131.168 154.865 131.72 154.865 132.368C154.865 133.016 154.361 133.544 153.665 133.544Z" fill="#BD00FF"/>
<path d="M148.422 135.008V136.472C148.446 137.288 148.878 138.176 149.31 139.016C149.742 139.928 150.198 140.816 150.198 141.68C150.198 143.072 149.358 143.264 148.662 143.264C147.366 143.264 146.814 142.448 146.79 140.816C144.678 143.024 143.238 143.264 142.302 143.264C140.43 143.264 139.59 142.184 139.59 140.816C139.59 139.304 140.67 138.296 142.11 137.576C141.102 136.664 140.574 135.56 140.574 134.384C140.574 132.656 141.918 131.168 144.294 131.168C146.31 131.168 148.422 131.984 148.422 135.008ZM146.79 136.232V135.008C146.79 132.704 146.238 131.48 144.15 131.48C142.206 131.48 140.862 132.752 140.862 134.384C140.862 135.536 141.342 136.544 142.374 137.456C143.646 136.88 145.086 136.52 146.79 136.232ZM145.134 139.064L145.038 139.352C144.054 138.92 143.286 138.512 142.662 138.056C141.918 138.632 141.486 139.424 141.486 140.504C141.486 141.968 142.326 142.496 143.334 142.496C144.486 142.496 146.022 141.224 146.79 140.384V136.52C145.302 136.784 143.91 137.192 142.902 137.888C143.502 138.296 144.222 138.68 145.134 139.064ZM148.422 137.984V141.368C148.422 141.968 148.566 142.688 149.19 142.688C149.55 142.688 149.91 142.448 149.91 141.68C149.91 140.504 149.046 139.184 148.422 137.984Z" fill="#BD00FF"/>
<path d="M129.293 142.712H130.325C128.885 136.88 128.525 135.152 127.493 129.992H127.781C128.189 131.408 128.357 131.456 129.341 131.456H136.997C137.957 131.456 138.125 131.408 138.557 129.992H138.845C137.789 135.176 137.477 136.832 135.989 142.712H137.045V143H129.293V142.712ZM130.613 142.712H132.341V131.744H129.773C128.813 131.744 128.621 131.864 128.621 133.04C128.621 134.648 129.653 138.776 130.277 141.296C130.421 141.896 130.541 142.352 130.613 142.712ZM133.973 131.744V142.712H135.725C135.773 142.352 135.893 141.872 136.037 141.296C136.685 138.776 137.693 134.648 137.693 133.04C137.693 131.864 137.525 131.744 136.565 131.744H133.973Z" fill="#BD00FF"/>
<path d="M125.406 135.008V136.472C125.43 137.288 125.862 138.176 126.294 139.016C126.726 139.928 127.182 140.816 127.182 141.68C127.182 143.072 126.342 143.264 125.646 143.264C124.35 143.264 123.798 142.448 123.774 140.816C121.662 143.024 120.222 143.264 119.286 143.264C117.414 143.264 116.574 142.184 116.574 140.816C116.574 139.304 117.654 138.296 119.094 137.576C118.086 136.664 117.558 135.56 117.558 134.384C117.558 132.656 118.902 131.168 121.278 131.168C123.294 131.168 125.406 131.984 125.406 135.008ZM123.774 136.232V135.008C123.774 132.704 123.222 131.48 121.134 131.48C119.19 131.48 117.846 132.752 117.846 134.384C117.846 135.536 118.326 136.544 119.358 137.456C120.63 136.88 122.07 136.52 123.774 136.232ZM122.118 139.064L122.022 139.352C121.038 138.92 120.27 138.512 119.646 138.056C118.902 138.632 118.47 139.424 118.47 140.504C118.47 141.968 119.31 142.496 120.318 142.496C121.47 142.496 123.006 141.224 123.774 140.384V136.52C122.286 136.784 120.894 137.192 119.886 137.888C120.486 138.296 121.206 138.68 122.118 139.064ZM125.406 137.984V141.368C125.406 141.968 125.55 142.688 126.174 142.688C126.534 142.688 126.894 142.448 126.894 141.68C126.894 140.504 126.03 139.184 125.406 137.984Z" fill="#BD00FF"/>
<path d="M103.424 143V142.712H105.32V131.744H103.424V131.456H108.848V131.744H106.952V136.616H108.08C108.344 136.616 108.632 136.616 108.968 136.664L112.544 131.744H110.84V131.456H114.656V131.744H112.928L109.28 136.736C109.712 136.808 110.192 137 110.696 137.312C110.816 137.288 110.936 137.288 111.08 137.288C113.408 137.288 115.712 139.016 115.712 141.728C115.712 143.072 115.136 143.72 114.176 143.72C112.808 143.72 111.92 142.64 111.248 140.912C110.24 138.416 110.336 138.392 109.784 137.792C108.224 138.272 106.976 139.832 106.952 142.712H108.848V143H103.424ZM111.08 137.576L111.152 137.624C112.28 138.392 113 140.096 113.552 141.608C113.912 142.568 114.152 143.288 114.632 143.288C115.112 143.288 115.448 142.592 115.448 141.728C115.448 139.208 113.24 137.576 111.08 137.576ZM106.952 136.904V140.576C107.432 138.968 108.44 137.984 109.616 137.552C109.208 137.072 108.704 136.904 107.936 136.904H106.952Z" fill="#BD00FF"/>
<path d="M100.82 135.008V136.472C100.844 137.288 101.276 138.176 101.708 139.016C102.14 139.928 102.596 140.816 102.596 141.68C102.596 143.072 101.756 143.264 101.06 143.264C99.7644 143.264 99.2124 142.448 99.1884 140.816C97.0764 143.024 95.6364 143.264 94.7004 143.264C92.8284 143.264 91.9884 142.184 91.9884 140.816C91.9884 139.304 93.0684 138.296 94.5084 137.576C93.5004 136.664 92.9724 135.56 92.9724 134.384C92.9724 132.656 94.3164 131.168 96.6924 131.168C98.7084 131.168 100.82 131.984 100.82 135.008ZM99.1884 136.232V135.008C99.1884 132.704 98.6364 131.48 96.5484 131.48C94.6044 131.48 93.2604 132.752 93.2604 134.384C93.2604 135.536 93.7404 136.544 94.7724 137.456C96.0444 136.88 97.4844 136.52 99.1884 136.232ZM97.5324 139.064L97.4364 139.352C96.4524 138.92 95.6844 138.512 95.0604 138.056C94.3164 138.632 93.8844 139.424 93.8844 140.504C93.8844 141.968 94.7244 142.496 95.7324 142.496C96.8844 142.496 98.4204 141.224 99.1884 140.384V136.52C97.7004 136.784 96.3084 137.192 95.3004 137.888C95.9004 138.296 96.6204 138.68 97.5324 139.064ZM100.82 137.984V141.368C100.82 141.968 100.964 142.688 101.588 142.688C101.948 142.688 102.308 142.448 102.308 141.68C102.308 140.504 101.444 139.184 100.82 137.984Z" fill="#BD00FF"/>
<path d="M79.2745 142.976L79.8505 138.8L80.1385 138.848L79.6825 142.28C79.8505 142.472 80.1625 142.664 80.5465 142.664C82.1545 142.664 82.6105 140.888 82.8985 139.592C83.4745 137.072 83.5945 134.336 83.5945 131.744H81.6265V131.456H91.1065V131.744H89.2105V142.712H91.1065V143H85.6825V142.712H87.5785V131.744H83.9305C83.8585 134.456 83.8585 137.24 83.1385 140.024C82.4665 142.544 81.4825 143.216 80.2825 143.216C79.8985 143.216 79.5385 143.072 79.2745 142.976Z" fill="#BD00FF"/>
<path d="M66.1575 143V142.712H68.0535V131.744H66.1575V131.456H78.8535V131.744H76.9575V142.712H78.8535V143H73.6695V142.712H75.3255V131.744H69.6855V142.712H71.3415V143H66.1575Z" fill="#BD00FF"/>
<path d="M54.6369 143V142.712H56.5329C56.4129 140.816 54.7089 139.544 52.7169 139.232C51.9009 140.552 51.1329 143.72 49.0929 143.72C48.1809 143.72 47.3169 143.24 47.3169 141.968C47.3169 140.12 49.2369 139.136 51.0129 138.896C51.6609 138.104 52.6209 137.768 53.6049 137.432C50.8449 137.36 49.7889 135.944 49.7889 134.408C49.7889 132.848 50.8689 131.384 53.7489 131.384C54.6849 131.384 55.5969 131.432 56.7009 131.456H60.1089V131.744H58.1889V142.712H60.0849V143H54.6369ZM56.5329 137.072V131.744C56.0289 131.72 54.6129 131.672 54.3249 131.672C52.5969 131.672 51.6849 132.872 51.6849 134.504C51.6849 135.536 51.9969 137.192 54.6609 137.192C55.0449 137.192 55.9809 137.168 56.5329 137.072ZM56.5329 141.488V137.432H55.9809C54.3249 137.432 53.5329 137.912 52.8609 138.968C54.5169 139.232 55.9329 140.096 56.5329 141.488ZM48.2529 142.832C49.1889 142.856 50.3889 140.048 50.7969 139.232C49.1889 139.496 47.6289 140.384 47.6289 141.896C47.6289 142.352 47.7729 142.808 48.2529 142.832Z" fill="#BD00FF"/>
<path d="M46.0991 135.536H38.4911C38.4431 135.968 38.4191 136.4 38.4191 136.88C38.4191 141.8 40.4111 142.976 42.0191 142.976C45.0911 142.976 46.9151 139.904 46.9151 136.448C46.9151 135.728 46.8191 134.96 46.6271 134.216L46.9151 134.12C47.1071 134.888 47.2031 135.728 47.2031 136.448C47.2031 140.048 45.2831 143.264 42.0191 143.264C39.5951 143.264 36.5231 141.776 36.5231 137.216C36.5231 133.832 38.4911 131.168 41.7551 131.168C44.7311 131.168 46.0751 133.424 46.0991 135.536ZM41.5631 131.456C40.0751 131.456 38.8991 132.944 38.5391 135.248H44.2991C44.2751 133.208 43.4591 131.456 41.5631 131.456Z" fill="#BD00FF"/>
<path d="M22.4865 134.456H22.1985C22.5105 129.272 24.5505 122.168 29.6625 122.168C33.6225 122.168 34.9425 126.8 34.9425 130.4C34.9425 136.28 32.3745 143.384 28.3425 143.384C25.3905 143.384 24.1425 140.888 24.1425 138.176C24.1425 134.864 26.2065 131.168 29.7825 131.168C31.5105 131.168 32.5185 132.08 33.0465 133.016C33.1185 132.104 33.1665 130.976 33.1665 129.824C33.1665 126.368 32.5665 122.456 29.5425 122.456C26.2065 122.456 23.1105 126.344 22.4865 134.456ZM28.4625 143.096C31.5105 143.096 32.7585 137.048 32.9985 133.52C32.7105 132.752 31.7265 131.504 30.1185 131.504C27.6225 131.504 26.1585 135.44 26.1585 138.752C26.1585 141.032 26.8785 143.096 28.4625 143.096Z" fill="#BD00FF"/>
<path d="M7.496 143.384V125.936H5.12V125.648H11.888V125.936H9.488V140.456L20.696 125.36H20.912V142.712H23.312V143H16.544V142.712H18.92V128.288L7.75999 143.384H7.496Z" fill="#BD00FF"/>
<path d="M490.187 248V246.04H491.367V248H490.187Z" fill="#BD00FF"/>
<path d="M478.648 245C478.648 244.347 478.835 243.787 479.208 243.32C479.582 242.84 480.095 242.473 480.748 242.22C481.415 241.953 482.182 241.82 483.048 241.82C483.555 241.82 484.082 241.86 484.628 241.94C485.175 242.02 485.662 242.14 486.088 242.3V241.42C486.088 240.54 485.828 239.84 485.308 239.32C484.788 238.8 484.068 238.54 483.148 238.54C482.588 238.54 482.035 238.647 481.488 238.86C480.955 239.06 480.395 239.36 479.808 239.76L479.288 238.8C479.968 238.333 480.635 237.987 481.288 237.76C481.942 237.52 482.608 237.4 483.288 237.4C484.568 237.4 485.582 237.767 486.328 238.5C487.075 239.233 487.448 240.247 487.448 241.54V246.36C487.448 246.547 487.488 246.687 487.568 246.78C487.648 246.86 487.775 246.907 487.948 246.92V248C487.802 248.013 487.675 248.027 487.568 248.04C487.462 248.053 487.382 248.053 487.328 248.04C486.995 248.027 486.742 247.92 486.568 247.72C486.395 247.52 486.302 247.307 486.288 247.08L486.268 246.32C485.802 246.92 485.195 247.387 484.448 247.72C483.702 248.04 482.942 248.2 482.168 248.2C481.502 248.2 480.895 248.06 480.348 247.78C479.815 247.487 479.395 247.1 479.088 246.62C478.795 246.127 478.648 245.587 478.648 245ZM485.628 245.8C485.775 245.613 485.888 245.433 485.968 245.26C486.048 245.087 486.088 244.933 486.088 244.8V243.28C485.635 243.107 485.162 242.973 484.668 242.88C484.188 242.787 483.702 242.74 483.208 242.74C482.235 242.74 481.448 242.933 480.848 243.32C480.248 243.707 479.948 244.233 479.948 244.9C479.948 245.287 480.048 245.653 480.248 246C480.448 246.333 480.742 246.613 481.128 246.84C481.515 247.053 481.968 247.16 482.488 247.16C483.142 247.16 483.748 247.033 484.308 246.78C484.882 246.527 485.322 246.2 485.628 245.8Z" fill="#BD00FF"/>
<path d="M467.808 248V237.58H469.168V242.06H475.128V237.58H476.488V248H475.128V243.28H469.168V248H467.808Z" fill="#BD00FF"/>
<path d="M461.372 248.2C460.612 248.2 459.912 248.06 459.272 247.78C458.645 247.487 458.092 247.087 457.612 246.58C457.145 246.073 456.778 245.493 456.512 244.84C456.258 244.187 456.132 243.493 456.132 242.76C456.132 241.773 456.352 240.873 456.792 240.06C457.232 239.247 457.845 238.6 458.632 238.12C459.418 237.64 460.325 237.4 461.352 237.4C462.325 237.4 463.185 237.627 463.932 238.08C464.678 238.52 465.232 239.12 465.592 239.88L464.272 240.3C463.978 239.767 463.565 239.353 463.032 239.06C462.512 238.753 461.932 238.6 461.292 238.6C460.598 238.6 459.965 238.78 459.392 239.14C458.818 239.5 458.358 239.993 458.012 240.62C457.678 241.247 457.512 241.96 457.512 242.76C457.512 243.547 457.685 244.26 458.032 244.9C458.378 245.54 458.838 246.053 459.412 246.44C459.985 246.813 460.618 247 461.312 247C461.765 247 462.198 246.92 462.612 246.76C463.038 246.6 463.405 246.387 463.712 246.12C464.032 245.84 464.245 245.54 464.352 245.22L465.692 245.62C465.505 246.113 465.192 246.56 464.752 246.96C464.325 247.347 463.818 247.653 463.232 247.88C462.658 248.093 462.038 248.2 461.372 248.2Z" fill="#BD00FF"/>
<path d="M439.859 248V237.6H441.219V246.16L447.559 237.58H448.779V248H447.419V239.58L441.179 248H439.859ZM444.339 236.26C443.432 236.26 442.732 236.047 442.239 235.62C441.746 235.193 441.499 234.653 441.499 234H442.499C442.499 234.4 442.646 234.733 442.939 235C443.246 235.267 443.712 235.4 444.339 235.4C444.952 235.4 445.399 235.273 445.679 235.02C445.972 234.767 446.139 234.427 446.179 234H447.159C447.159 234.653 446.912 235.193 446.419 235.62C445.926 236.047 445.232 236.26 444.339 236.26Z" fill="#BD00FF"/>
<path d="M427.984 248V237.6H429.344V246.16L435.684 237.58H436.904V248H435.544V239.58L429.304 248H427.984Z" fill="#BD00FF"/>
<path d="M415.242 250.42V246.78H415.422C415.729 246.78 416.009 246.687 416.262 246.5C416.516 246.313 416.742 245.987 416.942 245.52C417.142 245.053 417.302 244.413 417.422 243.6C417.542 242.773 417.622 241.733 417.662 240.48L417.762 237.58H424.542V246.78H425.942V250.42H424.722V248H416.442V250.42H415.242ZM417.482 246.78H423.182V238.8H418.982L418.922 240.6C418.882 241.84 418.796 242.88 418.662 243.72C418.542 244.547 418.382 245.207 418.182 245.7C417.996 246.18 417.762 246.54 417.482 246.78Z" fill="#BD00FF"/>
<path d="M404.664 245C404.664 244.347 404.851 243.787 405.224 243.32C405.597 242.84 406.111 242.473 406.764 242.22C407.431 241.953 408.197 241.82 409.064 241.82C409.571 241.82 410.097 241.86 410.644 241.94C411.191 242.02 411.677 242.14 412.104 242.3V241.42C412.104 240.54 411.844 239.84 411.324 239.32C410.804 238.8 410.084 238.54 409.164 238.54C408.604 238.54 408.051 238.647 407.504 238.86C406.971 239.06 406.411 239.36 405.824 239.76L405.304 238.8C405.984 238.333 406.651 237.987 407.304 237.76C407.957 237.52 408.624 237.4 409.304 237.4C410.584 237.4 411.597 237.767 412.344 238.5C413.091 239.233 413.464 240.247 413.464 241.54V246.36C413.464 246.547 413.504 246.687 413.584 246.78C413.664 246.86 413.791 246.907 413.964 246.92V248C413.817 248.013 413.691 248.027 413.584 248.04C413.477 248.053 413.397 248.053 413.344 248.04C413.011 248.027 412.757 247.92 412.584 247.72C412.411 247.52 412.317 247.307 412.304 247.08L412.284 246.32C411.817 246.92 411.211 247.387 410.464 247.72C409.717 248.04 408.957 248.2 408.184 248.2C407.517 248.2 406.911 248.06 406.364 247.78C405.831 247.487 405.411 247.1 405.104 246.62C404.811 246.127 404.664 245.587 404.664 245ZM411.644 245.8C411.791 245.613 411.904 245.433 411.984 245.26C412.064 245.087 412.104 244.933 412.104 244.8V243.28C411.651 243.107 411.177 242.973 410.684 242.88C410.204 242.787 409.717 242.74 409.224 242.74C408.251 242.74 407.464 242.933 406.864 243.32C406.264 243.707 405.964 244.233 405.964 244.9C405.964 245.287 406.064 245.653 406.264 246C406.464 246.333 406.757 246.613 407.144 246.84C407.531 247.053 407.984 247.16 408.504 247.16C409.157 247.16 409.764 247.033 410.324 246.78C410.897 246.527 411.337 246.2 411.644 245.8Z" fill="#BD00FF"/>
<path d="M398.631 248V238.8H394.911V237.58H403.711V238.8H399.991V248H398.631Z" fill="#BD00FF"/>
<path d="M389.575 248.2C388.815 248.2 388.115 248.06 387.475 247.78C386.848 247.487 386.295 247.087 385.815 246.58C385.348 246.073 384.981 245.493 384.715 244.84C384.461 244.187 384.335 243.493 384.335 242.76C384.335 241.773 384.555 240.873 384.995 240.06C385.435 239.247 386.048 238.6 386.835 238.12C387.621 237.64 388.528 237.4 389.555 237.4C390.528 237.4 391.388 237.627 392.135 238.08C392.881 238.52 393.435 239.12 393.795 239.88L392.475 240.3C392.181 239.767 391.768 239.353 391.235 239.06C390.715 238.753 390.135 238.6 389.495 238.6C388.801 238.6 388.168 238.78 387.595 239.14C387.021 239.5 386.561 239.993 386.215 240.62C385.881 241.247 385.715 241.96 385.715 242.76C385.715 243.547 385.888 244.26 386.235 244.9C386.581 245.54 387.041 246.053 387.615 246.44C388.188 246.813 388.821 247 389.515 247C389.968 247 390.401 246.92 390.815 246.76C391.241 246.6 391.608 246.387 391.915 246.12C392.235 245.84 392.448 245.54 392.555 245.22L393.895 245.62C393.708 246.113 393.395 246.56 392.955 246.96C392.528 247.347 392.021 247.653 391.435 247.88C390.861 248.093 390.241 248.2 389.575 248.2Z" fill="#BD00FF"/>
<path d="M370.171 248V237.58H371.531V241.26H374.231C375.418 241.26 376.311 241.567 376.911 242.18C377.525 242.78 377.831 243.573 377.831 244.56C377.831 245.2 377.698 245.78 377.431 246.3C377.165 246.82 376.771 247.233 376.251 247.54C375.745 247.847 375.105 248 374.331 248H370.171ZM371.531 246.92H374.151C374.698 246.92 375.138 246.813 375.471 246.6C375.805 246.373 376.051 246.087 376.211 245.74C376.371 245.38 376.451 244.993 376.451 244.58C376.451 244.18 376.378 243.813 376.231 243.48C376.098 243.133 375.858 242.86 375.511 242.66C375.178 242.447 374.711 242.34 374.111 242.34H371.531V246.92Z" fill="#BD00FF"/>
<path d="M363.26 248V238.8H359.54V237.58H368.34V238.8H364.62V248H363.26Z" fill="#BD00FF"/>
<path d="M354.204 248.2C353.444 248.2 352.744 248.06 352.104 247.78C351.477 247.487 350.924 247.087 350.444 246.58C349.977 246.073 349.61 245.493 349.344 244.84C349.09 244.187 348.964 243.493 348.964 242.76C348.964 241.773 349.184 240.873 349.624 240.06C350.064 239.247 350.677 238.6 351.464 238.12C352.25 237.64 353.157 237.4 354.184 237.4C355.157 237.4 356.017 237.627 356.764 238.08C357.51 238.52 358.064 239.12 358.424 239.88L357.104 240.3C356.81 239.767 356.397 239.353 355.864 239.06C355.344 238.753 354.764 238.6 354.124 238.6C353.43 238.6 352.797 238.78 352.224 239.14C351.65 239.5 351.19 239.993 350.844 240.62C350.51 241.247 350.344 241.96 350.344 242.76C350.344 243.547 350.517 244.26 350.864 244.9C351.21 245.54 351.67 246.053 352.244 246.44C352.817 246.813 353.45 247 354.144 247C354.597 247 355.03 246.92 355.444 246.76C355.87 246.6 356.237 246.387 356.544 246.12C356.864 245.84 357.077 245.54 357.184 245.22L358.524 245.62C358.337 246.113 358.024 246.56 357.584 246.96C357.157 247.347 356.65 247.653 356.064 247.88C355.49 248.093 354.87 248.2 354.204 248.2Z" fill="#BD00FF"/>
<path d="M342.229 248.2C341.482 248.2 340.789 248.06 340.149 247.78C339.522 247.487 338.976 247.093 338.509 246.6C338.056 246.093 337.702 245.52 337.449 244.88C337.196 244.227 337.069 243.54 337.069 242.82C337.069 242.073 337.196 241.38 337.449 240.74C337.702 240.087 338.062 239.513 338.529 239.02C338.996 238.513 339.542 238.12 340.169 237.84C340.809 237.547 341.502 237.4 342.249 237.4C342.996 237.4 343.682 237.547 344.309 237.84C344.936 238.12 345.482 238.513 345.949 239.02C346.416 239.513 346.776 240.087 347.029 240.74C347.282 241.38 347.409 242.073 347.409 242.82C347.409 243.54 347.282 244.227 347.029 244.88C346.776 245.52 346.416 246.093 345.949 246.6C345.496 247.093 344.949 247.487 344.309 247.78C343.682 248.06 342.989 248.2 342.229 248.2ZM338.449 242.84C338.449 243.613 338.616 244.32 338.949 244.96C339.296 245.587 339.756 246.087 340.329 246.46C340.902 246.82 341.536 247 342.229 247C342.922 247 343.556 246.813 344.129 246.44C344.702 246.067 345.162 245.56 345.509 244.92C345.856 244.267 346.029 243.56 346.029 242.8C346.029 242.027 345.856 241.32 345.509 240.68C345.162 240.04 344.702 239.533 344.129 239.16C343.556 238.787 342.922 238.6 342.229 238.6C341.536 238.6 340.902 238.793 340.329 239.18C339.769 239.567 339.316 240.08 338.969 240.72C338.622 241.347 338.449 242.053 338.449 242.84Z" fill="#BD00FF"/>
<path d="M326.109 248V237.58H327.469V242.06H333.429V237.58H334.789V248H333.429V243.28H327.469V248H326.109Z" fill="#BD00FF"/>
<path d="M321.776 248V243.64C321.35 243.84 320.903 243.993 320.436 244.1C319.97 244.193 319.47 244.24 318.936 244.24C317.79 244.24 316.923 243.947 316.336 243.36C315.763 242.773 315.476 241.873 315.476 240.66V237.58H316.836V240.48C316.836 241.413 317.023 242.093 317.396 242.52C317.783 242.947 318.396 243.16 319.236 243.16C319.703 243.16 320.17 243.107 320.636 243C321.103 242.893 321.483 242.753 321.776 242.58V237.58H323.136V248H321.776Z" fill="#BD00FF"/>
<path d="M303.921 248V237.6H305.281V246.16L311.621 237.58H312.841V248H311.481V239.58L305.241 248H303.921Z" fill="#BD00FF"/>
<path d="M291.555 248.06V246.82C291.915 246.82 292.235 246.727 292.515 246.54C292.795 246.34 293.041 246.007 293.255 245.54C293.481 245.073 293.661 244.433 293.795 243.62C293.928 242.793 294.015 241.747 294.055 240.48L294.175 237.58H300.935V248H299.575V238.8H295.375L295.335 240.6C295.281 242.04 295.168 243.247 294.995 244.22C294.821 245.18 294.575 245.94 294.255 246.5C293.948 247.06 293.568 247.46 293.115 247.7C292.661 247.94 292.141 248.06 291.555 248.06Z" fill="#BD00FF"/>
<path d="M282.144 248V237.58H283.504V242.04H285.064L288.564 237.58H290.124L286.144 242.64L290.624 248H289.024L285.064 243.3H283.504V248H282.144Z" fill="#BD00FF"/>
<path d="M270.269 248V237.6H271.629V246.16L277.969 237.58H279.189V248H277.829V239.58L271.589 248H270.269Z" fill="#BD00FF"/>
<path d="M267.007 250.42V248H258.687V237.58H260.047V246.8H265.447V237.58H266.807V246.8H268.227V250.42H267.007Z" fill="#BD00FF"/>
<path d="M244.7 244.12V243.14H250.74V244.12H244.7ZM244.7 241.82V240.84H250.74V241.82H244.7Z" fill="#BD00FF"/>
<path d="M229.019 248V237.58H234.219C234.806 237.58 235.299 237.707 235.699 237.96C236.099 238.2 236.399 238.513 236.599 238.9C236.812 239.287 236.919 239.7 236.919 240.14C236.919 240.7 236.786 241.207 236.519 241.66C236.252 242.1 235.866 242.433 235.359 242.66C235.959 242.833 236.446 243.147 236.819 243.6C237.192 244.053 237.379 244.6 237.379 245.24C237.379 245.8 237.239 246.287 236.959 246.7C236.692 247.113 236.319 247.433 235.839 247.66C235.372 247.887 234.832 248 234.219 248H229.019ZM230.319 247.02H234.179C234.526 247.02 234.839 246.933 235.119 246.76C235.412 246.573 235.639 246.333 235.799 246.04C235.972 245.747 236.059 245.44 236.059 245.12C236.059 244.773 235.979 244.46 235.819 244.18C235.659 243.887 235.446 243.653 235.179 243.48C234.912 243.307 234.606 243.22 234.259 243.22H230.319V247.02ZM230.319 242.28H233.859C234.206 242.28 234.512 242.187 234.779 242C235.046 241.813 235.252 241.573 235.399 241.28C235.546 240.987 235.619 240.68 235.619 240.36C235.619 239.88 235.459 239.46 235.139 239.1C234.832 238.74 234.432 238.56 233.939 238.56H230.319V242.28Z" fill="#BD00FF"/>
<path d="M221.585 248.2C220.838 248.2 220.145 248.06 219.505 247.78C218.878 247.487 218.331 247.093 217.865 246.6C217.411 246.093 217.058 245.52 216.805 244.88C216.551 244.227 216.425 243.54 216.425 242.82C216.425 242.073 216.551 241.38 216.805 240.74C217.058 240.087 217.418 239.513 217.885 239.02C218.351 238.513 218.898 238.12 219.525 237.84C220.165 237.547 220.858 237.4 221.605 237.4C222.351 237.4 223.038 237.547 223.665 237.84C224.291 238.12 224.838 238.513 225.305 239.02C225.771 239.513 226.131 240.087 226.385 240.74C226.638 241.38 226.765 242.073 226.765 242.82C226.765 243.54 226.638 244.227 226.385 244.88C226.131 245.52 225.771 246.093 225.305 246.6C224.851 247.093 224.305 247.487 223.665 247.78C223.038 248.06 222.345 248.2 221.585 248.2ZM217.805 242.84C217.805 243.613 217.971 244.32 218.305 244.96C218.651 245.587 219.111 246.087 219.685 246.46C220.258 246.82 220.891 247 221.585 247C222.278 247 222.911 246.813 223.485 246.44C224.058 246.067 224.518 245.56 224.865 244.92C225.211 244.267 225.385 243.56 225.385 242.8C225.385 242.027 225.211 241.32 224.865 240.68C224.518 240.04 224.058 239.533 223.485 239.16C222.911 238.787 222.278 238.6 221.585 238.6C220.891 238.6 220.258 238.793 219.685 239.18C219.125 239.567 218.671 240.08 218.325 240.72C217.978 241.347 217.805 242.053 217.805 242.84Z" fill="#BD00FF"/>
<path d="M210.213 248V238.8H206.493V237.58H215.293V238.8H211.573V248H210.213Z" fill="#BD00FF"/>
<path d="M195.933 248V237.58H197.293V242.06H203.253V237.58H204.613V248H203.253V243.28H197.293V248H195.933Z" fill="#BD00FF"/>
<path d="M188.715 248.2C187.968 248.2 187.275 248.06 186.635 247.78C185.995 247.487 185.442 247.093 184.975 246.6C184.508 246.093 184.142 245.513 183.875 244.86C183.622 244.207 183.495 243.507 183.495 242.76C183.495 241.787 183.715 240.893 184.155 240.08C184.608 239.267 185.228 238.62 186.015 238.14C186.802 237.647 187.695 237.4 188.695 237.4C189.722 237.4 190.615 237.647 191.375 238.14C192.148 238.633 192.755 239.287 193.195 240.1C193.635 240.9 193.855 241.78 193.855 242.74C193.855 242.847 193.855 242.953 193.855 243.06C193.855 243.153 193.848 243.227 193.835 243.28H184.915C184.982 244.027 185.188 244.693 185.535 245.28C185.895 245.853 186.355 246.313 186.915 246.66C187.488 246.993 188.108 247.16 188.775 247.16C189.455 247.16 190.095 246.987 190.695 246.64C191.308 246.293 191.735 245.84 191.975 245.28L193.155 245.6C192.942 246.093 192.615 246.54 192.175 246.94C191.735 247.34 191.215 247.653 190.615 247.88C190.028 248.093 189.395 248.2 188.715 248.2ZM184.875 242.3H192.575C192.522 241.54 192.315 240.873 191.955 240.3C191.608 239.727 191.148 239.28 190.575 238.96C190.015 238.627 189.395 238.46 188.715 238.46C188.035 238.46 187.415 238.627 186.855 238.96C186.295 239.28 185.835 239.733 185.475 240.32C185.128 240.893 184.928 241.553 184.875 242.3Z" fill="#BD00FF"/>
<path d="M170.171 248V237.58H171.571L175.711 244.76L179.871 237.58H181.211V248H179.911V239.62L176.151 246.14H175.271L171.471 239.62V248H170.171Z" fill="#BD00FF"/>
<path d="M162.953 248.2C162.206 248.2 161.513 248.06 160.873 247.78C160.233 247.487 159.68 247.093 159.213 246.6C158.746 246.093 158.38 245.513 158.113 244.86C157.86 244.207 157.733 243.507 157.733 242.76C157.733 241.787 157.953 240.893 158.393 240.08C158.846 239.267 159.466 238.62 160.253 238.14C161.04 237.647 161.933 237.4 162.933 237.4C163.96 237.4 164.853 237.647 165.613 238.14C166.386 238.633 166.993 239.287 167.433 240.1C167.873 240.9 168.093 241.78 168.093 242.74C168.093 242.847 168.093 242.953 168.093 243.06C168.093 243.153 168.086 243.227 168.073 243.28H159.153C159.22 244.027 159.426 244.693 159.773 245.28C160.133 245.853 160.593 246.313 161.153 246.66C161.726 246.993 162.346 247.16 163.013 247.16C163.693 247.16 164.333 246.987 164.933 246.64C165.546 246.293 165.973 245.84 166.213 245.28L167.393 245.6C167.18 246.093 166.853 246.54 166.413 246.94C165.973 247.34 165.453 247.653 164.853 247.88C164.266 248.093 163.633 248.2 162.953 248.2ZM159.113 242.3H166.813C166.76 241.54 166.553 240.873 166.193 240.3C165.846 239.727 165.386 239.28 164.813 238.96C164.253 238.627 163.633 238.46 162.953 238.46C162.273 238.46 161.653 238.627 161.093 238.96C160.533 239.28 160.073 239.733 159.713 240.32C159.366 240.893 159.166 241.553 159.113 242.3Z" fill="#BD00FF"/>
<path d="M146.066 248.06V246.82C146.426 246.82 146.746 246.727 147.026 246.54C147.306 246.34 147.553 246.007 147.766 245.54C147.993 245.073 148.173 244.433 148.306 243.62C148.44 242.793 148.526 241.747 148.566 240.48L148.686 237.58H155.446V248H154.086V238.8H149.886L149.846 240.6C149.793 242.04 149.68 243.247 149.506 244.22C149.333 245.18 149.086 245.94 148.766 246.5C148.46 247.06 148.08 247.46 147.626 247.7C147.173 247.94 146.653 248.06 146.066 248.06Z" fill="#BD00FF"/>
<path d="M139.634 248.18C139.02 248.18 138.42 248.087 137.834 247.9C137.26 247.7 136.74 247.413 136.274 247.04C135.807 246.667 135.447 246.213 135.194 245.68L136.294 245.18C136.64 245.82 137.107 246.293 137.694 246.6C138.294 246.907 138.907 247.06 139.534 247.06C140.24 247.06 140.874 246.887 141.434 246.54C141.994 246.18 142.454 245.707 142.814 245.12C143.174 244.52 143.374 243.873 143.414 243.18H138.554V242.22H143.394C143.327 241.593 143.134 241 142.814 240.44C142.494 239.88 142.06 239.427 141.514 239.08C140.967 238.72 140.314 238.54 139.554 238.54C138.927 238.54 138.34 238.673 137.794 238.94C137.26 239.207 136.814 239.667 136.454 240.32L135.394 239.78C135.767 239.073 136.307 238.5 137.014 238.06C137.72 237.62 138.574 237.4 139.574 237.4C140.414 237.4 141.154 237.553 141.794 237.86C142.447 238.153 142.994 238.56 143.434 239.08C143.887 239.587 144.227 240.16 144.454 240.8C144.68 241.44 144.794 242.087 144.794 242.74C144.794 243.42 144.674 244.087 144.434 244.74C144.194 245.38 143.847 245.96 143.394 246.48C142.94 247 142.394 247.413 141.754 247.72C141.127 248.027 140.42 248.18 139.634 248.18Z" fill="#BD00FF"/>
<path d="M121.05 248V237.58H122.41V241.26H125.11C126.297 241.26 127.19 241.567 127.79 242.18C128.404 242.78 128.71 243.573 128.71 244.56C128.71 245.2 128.577 245.78 128.31 246.3C128.044 246.82 127.65 247.233 127.13 247.54C126.624 247.847 125.984 248 125.21 248H121.05ZM122.41 246.92H125.03C125.577 246.92 126.017 246.813 126.35 246.6C126.684 246.373 126.93 246.087 127.09 245.74C127.25 245.38 127.33 244.993 127.33 244.58C127.33 244.18 127.257 243.813 127.11 243.48C126.977 243.133 126.737 242.86 126.39 242.66C126.057 242.447 125.59 242.34 124.99 242.34H122.41V246.92Z" fill="#BD00FF"/>
<path d="M114.139 248V238.8H110.419V237.58H119.219V238.8H115.499V248H114.139Z" fill="#BD00FF"/>
<path d="M105.083 248.2C104.323 248.2 103.623 248.06 102.983 247.78C102.356 247.487 101.803 247.087 101.323 246.58C100.856 246.073 100.489 245.493 100.223 244.84C99.9692 244.187 99.8425 243.493 99.8425 242.76C99.8425 241.773 100.063 240.873 100.503 240.06C100.943 239.247 101.556 238.6 102.343 238.12C103.129 237.64 104.036 237.4 105.063 237.4C106.036 237.4 106.896 237.627 107.643 238.08C108.389 238.52 108.943 239.12 109.303 239.88L107.983 240.3C107.689 239.767 107.276 239.353 106.743 239.06C106.223 238.753 105.643 238.6 105.003 238.6C104.309 238.6 103.676 238.78 103.103 239.14C102.529 239.5 102.069 239.993 101.723 240.62C101.389 241.247 101.223 241.96 101.223 242.76C101.223 243.547 101.396 244.26 101.743 244.9C102.089 245.54 102.549 246.053 103.123 246.44C103.696 246.813 104.329 247 105.023 247C105.476 247 105.909 246.92 106.323 246.76C106.749 246.6 107.116 246.387 107.423 246.12C107.743 245.84 107.956 245.54 108.063 245.22L109.403 245.62C109.216 246.113 108.903 246.56 108.463 246.96C108.036 247.347 107.529 247.653 106.943 247.88C106.369 248.093 105.749 248.2 105.083 248.2Z" fill="#BD00FF"/>
<path d="M93.108 248.2C92.3613 248.2 91.668 248.06 91.028 247.78C90.4013 247.487 89.8547 247.093 89.388 246.6C88.9347 246.093 88.5813 245.52 88.328 244.88C88.0747 244.227 87.948 243.54 87.948 242.82C87.948 242.073 88.0747 241.38 88.328 240.74C88.5813 240.087 88.9413 239.513 89.408 239.02C89.8747 238.513 90.4213 238.12 91.048 237.84C91.688 237.547 92.3813 237.4 93.128 237.4C93.8747 237.4 94.5613 237.547 95.188 237.84C95.8147 238.12 96.3613 238.513 96.828 239.02C97.2947 239.513 97.6547 240.087 97.908 240.74C98.1613 241.38 98.288 242.073 98.288 242.82C98.288 243.54 98.1613 244.227 97.908 244.88C97.6547 245.52 97.2947 246.093 96.828 246.6C96.3747 247.093 95.828 247.487 95.188 247.78C94.5613 248.06 93.868 248.2 93.108 248.2ZM89.328 242.84C89.328 243.613 89.4947 244.32 89.828 244.96C90.1747 245.587 90.6347 246.087 91.208 246.46C91.7813 246.82 92.4147 247 93.108 247C93.8013 247 94.4347 246.813 95.008 246.44C95.5813 246.067 96.0413 245.56 96.388 244.92C96.7347 244.267 96.908 243.56 96.908 242.8C96.908 242.027 96.7347 241.32 96.388 240.68C96.0413 240.04 95.5813 239.533 95.008 239.16C94.4347 238.787 93.8013 238.6 93.108 238.6C92.4147 238.6 91.7813 238.793 91.208 239.18C90.648 239.567 90.1947 240.08 89.848 240.72C89.5013 241.347 89.328 242.053 89.328 242.84Z" fill="#BD00FF"/>
<path d="M76.9878 248V237.58H78.3478V242.06H84.3078V237.58H85.6678V248H84.3078V243.28H78.3478V248H76.9878Z" fill="#BD00FF"/>
<path d="M72.6553 248V243.64C72.2287 243.84 71.782 243.993 71.3153 244.1C70.8487 244.193 70.3487 244.24 69.8153 244.24C68.6687 244.24 67.802 243.947 67.2153 243.36C66.642 242.773 66.3553 241.873 66.3553 240.66V237.58H67.7153V240.48C67.7153 241.413 67.902 242.093 68.2753 242.52C68.662 242.947 69.2753 243.16 70.1153 243.16C70.582 243.16 71.0487 243.107 71.5153 243C71.982 242.893 72.362 242.753 72.6553 242.58V237.58H74.0153V248H72.6553Z" fill="#BD00FF"/>
<path d="M54.8003 248V237.6H56.1603V246.16L62.5003 237.58H63.7203V248H62.3603V239.58L56.1203 248H54.8003Z" fill="#BD00FF"/>
<path d="M42.4336 248.06V246.82C42.7936 246.82 43.1136 246.727 43.3936 246.54C43.6736 246.34 43.9203 246.007 44.1336 245.54C44.3603 245.073 44.5403 244.433 44.6736 243.62C44.8069 242.793 44.8936 241.747 44.9336 240.48L45.0536 237.58H51.8136V248H50.4536V238.8H46.2536L46.2136 240.6C46.1603 242.04 46.0469 243.247 45.8736 244.22C45.7003 245.18 45.4536 245.94 45.1336 246.5C44.8269 247.06 44.4469 247.46 43.9936 247.7C43.5403 247.94 43.0203 248.06 42.4336 248.06Z" fill="#BD00FF"/>
<path d="M33.0229 248V237.58H34.3829V242.04H35.9429L39.443 237.58H41.0029L37.0229 242.64L41.5029 248H39.903L35.9429 243.3H34.3829V248H33.0229Z" fill="#BD00FF"/>
<path d="M21.1479 248V237.6H22.5079V246.16L28.8479 237.58H30.068V248H28.708V239.58L22.4679 248H21.1479Z" fill="#BD00FF"/>
<path d="M17.6 250.7V248H6.78003V233.8H8.18003V246.76H15.74V233.8H17.12V246.76H18.84V250.7H17.6Z" fill="#BD00FF"/>
<path d="M211.925 202V200.04H213.105V202H211.925Z" fill="#BD00FF"/>
<path d="M204.887 202.2C204.14 202.2 203.447 202.06 202.807 201.78C202.167 201.487 201.613 201.093 201.147 200.6C200.68 200.093 200.313 199.513 200.047 198.86C199.793 198.207 199.667 197.507 199.667 196.76C199.667 195.787 199.887 194.893 200.327 194.08C200.78 193.267 201.4 192.62 202.187 192.14C202.973 191.647 203.867 191.4 204.867 191.4C205.893 191.4 206.787 191.647 207.547 192.14C208.32 192.633 208.927 193.287 209.367 194.1C209.807 194.9 210.027 195.78 210.027 196.74C210.027 196.847 210.027 196.953 210.027 197.06C210.027 197.153 210.02 197.227 210.007 197.28H201.087C201.153 198.027 201.36 198.693 201.707 199.28C202.067 199.853 202.527 200.313 203.087 200.66C203.66 200.993 204.28 201.16 204.947 201.16C205.627 201.16 206.267 200.987 206.867 200.64C207.48 200.293 207.907 199.84 208.147 199.28L209.327 199.6C209.113 200.093 208.787 200.54 208.347 200.94C207.907 201.34 207.387 201.653 206.787 201.88C206.2 202.093 205.567 202.2 204.887 202.2ZM201.047 196.3H208.747C208.693 195.54 208.487 194.873 208.127 194.3C207.78 193.727 207.32 193.28 206.747 192.96C206.187 192.627 205.567 192.46 204.887 192.46C204.207 192.46 203.587 192.627 203.027 192.96C202.467 193.28 202.007 193.733 201.647 194.32C201.3 194.893 201.1 195.553 201.047 196.3Z" fill="#BD00FF"/>
<path d="M193.455 202V192.8H189.735V191.58H198.535V192.8H194.815V202H193.455Z" fill="#BD00FF"/>
<path d="M178.96 202V191.6H180.32V200.16L186.66 191.58H187.88V202H186.52V193.58L180.28 202H178.96ZM183.44 190.26C182.534 190.26 181.834 190.047 181.34 189.62C180.847 189.193 180.6 188.653 180.6 188H181.6C181.6 188.4 181.747 188.733 182.04 189C182.347 189.267 182.814 189.4 183.44 189.4C184.054 189.4 184.5 189.273 184.78 189.02C185.074 188.767 185.24 188.427 185.28 188H186.26C186.26 188.653 186.014 189.193 185.52 189.62C185.027 190.047 184.334 190.26 183.44 190.26Z" fill="#BD00FF"/>
<path d="M167.242 199C167.242 198.347 167.429 197.787 167.802 197.32C168.175 196.84 168.689 196.473 169.342 196.22C170.009 195.953 170.775 195.82 171.642 195.82C172.149 195.82 172.675 195.86 173.222 195.94C173.769 196.02 174.255 196.14 174.682 196.3V195.42C174.682 194.54 174.422 193.84 173.902 193.32C173.382 192.8 172.662 192.54 171.742 192.54C171.182 192.54 170.629 192.647 170.082 192.86C169.549 193.06 168.989 193.36 168.402 193.76L167.882 192.8C168.562 192.333 169.229 191.987 169.882 191.76C170.535 191.52 171.202 191.4 171.882 191.4C173.162 191.4 174.175 191.767 174.922 192.5C175.669 193.233 176.042 194.247 176.042 195.54V200.36C176.042 200.547 176.082 200.687 176.162 200.78C176.242 200.86 176.369 200.907 176.542 200.92V202C176.395 202.013 176.269 202.027 176.162 202.04C176.055 202.053 175.975 202.053 175.922 202.04C175.589 202.027 175.335 201.92 175.162 201.72C174.989 201.52 174.895 201.307 174.882 201.08L174.862 200.32C174.395 200.92 173.789 201.387 173.042 201.72C172.295 202.04 171.535 202.2 170.762 202.2C170.095 202.2 169.489 202.06 168.942 201.78C168.409 201.487 167.989 201.1 167.682 200.62C167.389 200.127 167.242 199.587 167.242 199ZM174.222 199.8C174.369 199.613 174.482 199.433 174.562 199.26C174.642 199.087 174.682 198.933 174.682 198.8V197.28C174.229 197.107 173.755 196.973 173.262 196.88C172.782 196.787 172.295 196.74 171.802 196.74C170.829 196.74 170.042 196.933 169.442 197.32C168.842 197.707 168.542 198.233 168.542 198.9C168.542 199.287 168.642 199.653 168.842 200C169.042 200.333 169.335 200.613 169.722 200.84C170.109 201.053 170.562 201.16 171.082 201.16C171.735 201.16 172.342 201.033 172.902 200.78C173.475 200.527 173.915 200.2 174.222 199.8Z" fill="#BD00FF"/>
<path d="M161.626 202.2C160.866 202.2 160.165 202.06 159.525 201.78C158.899 201.487 158.345 201.087 157.865 200.58C157.399 200.073 157.032 199.493 156.766 198.84C156.512 198.187 156.385 197.493 156.385 196.76C156.385 195.773 156.606 194.873 157.046 194.06C157.486 193.247 158.099 192.6 158.885 192.12C159.672 191.64 160.579 191.4 161.605 191.4C162.579 191.4 163.439 191.627 164.186 192.08C164.932 192.52 165.486 193.12 165.846 193.88L164.525 194.3C164.232 193.767 163.819 193.353 163.285 193.06C162.765 192.753 162.186 192.6 161.546 192.6C160.852 192.6 160.219 192.78 159.645 193.14C159.072 193.5 158.612 193.993 158.266 194.62C157.932 195.247 157.766 195.96 157.766 196.76C157.766 197.547 157.939 198.26 158.285 198.9C158.632 199.54 159.092 200.053 159.665 200.44C160.239 200.813 160.872 201 161.566 201C162.019 201 162.452 200.92 162.865 200.76C163.292 200.6 163.659 200.387 163.965 200.12C164.286 199.84 164.499 199.54 164.605 199.22L165.945 199.62C165.759 200.113 165.445 200.56 165.005 200.96C164.579 201.347 164.072 201.653 163.486 201.88C162.912 202.093 162.292 202.2 161.626 202.2Z" fill="#BD00FF"/>
<path d="M140.269 199C140.269 198.347 140.456 197.787 140.829 197.32C141.203 196.84 141.716 196.473 142.369 196.22C143.036 195.953 143.803 195.82 144.669 195.82C145.176 195.82 145.703 195.86 146.249 195.94C146.796 196.02 147.283 196.14 147.709 196.3V195.42C147.709 194.54 147.449 193.84 146.929 193.32C146.409 192.8 145.689 192.54 144.769 192.54C144.209 192.54 143.656 192.647 143.109 192.86C142.576 193.06 142.016 193.36 141.429 193.76L140.909 192.8C141.589 192.333 142.256 191.987 142.909 191.76C143.563 191.52 144.229 191.4 144.909 191.4C146.189 191.4 147.203 191.767 147.949 192.5C148.696 193.233 149.069 194.247 149.069 195.54V200.36C149.069 200.547 149.109 200.687 149.189 200.78C149.269 200.86 149.396 200.907 149.569 200.92V202C149.423 202.013 149.296 202.027 149.189 202.04C149.083 202.053 149.003 202.053 148.949 202.04C148.616 202.027 148.363 201.92 148.189 201.72C148.016 201.52 147.923 201.307 147.909 201.08L147.889 200.32C147.423 200.92 146.816 201.387 146.069 201.72C145.323 202.04 144.563 202.2 143.789 202.2C143.123 202.2 142.516 202.06 141.969 201.78C141.436 201.487 141.016 201.1 140.709 200.62C140.416 200.127 140.269 199.587 140.269 199ZM147.249 199.8C147.396 199.613 147.509 199.433 147.589 199.26C147.669 199.087 147.709 198.933 147.709 198.8V197.28C147.256 197.107 146.783 196.973 146.289 196.88C145.809 196.787 145.323 196.74 144.829 196.74C143.856 196.74 143.069 196.933 142.469 197.32C141.869 197.707 141.569 198.233 141.569 198.9C141.569 199.287 141.669 199.653 141.869 200C142.069 200.333 142.363 200.613 142.749 200.84C143.136 201.053 143.589 201.16 144.109 201.16C144.763 201.16 145.369 201.033 145.929 200.78C146.503 200.527 146.943 200.2 147.249 199.8Z" fill="#BD00FF"/>
<path d="M129.429 202V191.58H130.789V196.06H136.749V191.58H138.109V202H136.749V197.28H130.789V202H129.429Z" fill="#BD00FF"/>
<path d="M110.308 202V191.58H111.708L115.848 198.76L120.008 191.58H121.348V202H120.048V193.62L116.288 200.14H115.408L111.608 193.62V202H110.308Z" fill="#BD00FF"/>
<path d="M102.874 202.2C102.127 202.2 101.434 202.06 100.794 201.78C100.167 201.487 99.6203 201.093 99.1536 200.6C98.7003 200.093 98.347 199.52 98.0936 198.88C97.8403 198.227 97.7136 197.54 97.7136 196.82C97.7136 196.073 97.8403 195.38 98.0936 194.74C98.347 194.087 98.707 193.513 99.1736 193.02C99.6403 192.513 100.187 192.12 100.814 191.84C101.454 191.547 102.147 191.4 102.894 191.4C103.64 191.4 104.327 191.547 104.954 191.84C105.58 192.12 106.127 192.513 106.594 193.02C107.06 193.513 107.42 194.087 107.674 194.74C107.927 195.38 108.054 196.073 108.054 196.82C108.054 197.54 107.927 198.227 107.674 198.88C107.42 199.52 107.06 200.093 106.594 200.6C106.14 201.093 105.594 201.487 104.954 201.78C104.327 202.06 103.634 202.2 102.874 202.2ZM99.0936 196.84C99.0936 197.613 99.2603 198.32 99.5936 198.96C99.9403 199.587 100.4 200.087 100.974 200.46C101.547 200.82 102.18 201 102.874 201C103.567 201 104.2 200.813 104.774 200.44C105.347 200.067 105.807 199.56 106.154 198.92C106.5 198.267 106.674 197.56 106.674 196.8C106.674 196.027 106.5 195.32 106.154 194.68C105.807 194.04 105.347 193.533 104.774 193.16C104.2 192.787 103.567 192.6 102.874 192.6C102.18 192.6 101.547 192.793 100.974 193.18C100.414 193.567 99.9603 194.08 99.6136 194.72C99.267 195.347 99.0936 196.053 99.0936 196.84Z" fill="#BD00FF"/>
<path d="M91.5023 202V192.8H87.7823V191.58H96.5824V192.8H92.8624V202H91.5023Z" fill="#BD00FF"/>
<path d="M77.2222 202V191.58H78.5822V196.06H84.5422V191.58H85.9022V202H84.5422V197.28H78.5822V202H77.2222Z" fill="#BD00FF"/>
<path d="M70.0039 202.2C69.2573 202.2 68.5639 202.06 67.9239 201.78C67.2839 201.487 66.7306 201.093 66.2639 200.6C65.7973 200.093 65.4306 199.513 65.1639 198.86C64.9106 198.207 64.7839 197.507 64.7839 196.76C64.7839 195.787 65.0039 194.893 65.4439 194.08C65.8973 193.267 66.5173 192.62 67.3039 192.14C68.0906 191.647 68.9839 191.4 69.9839 191.4C71.0106 191.4 71.9039 191.647 72.6639 192.14C73.4373 192.633 74.0439 193.287 74.4839 194.1C74.9239 194.9 75.1439 195.78 75.1439 196.74C75.1439 196.847 75.1439 196.953 75.1439 197.06C75.1439 197.153 75.1373 197.227 75.1239 197.28H66.2039C66.2706 198.027 66.4773 198.693 66.8239 199.28C67.1839 199.853 67.6439 200.313 68.2039 200.66C68.7773 200.993 69.3973 201.16 70.0639 201.16C70.7439 201.16 71.3839 200.987 71.9839 200.64C72.5973 200.293 73.0239 199.84 73.2639 199.28L74.4439 199.6C74.2306 200.093 73.9039 200.54 73.4639 200.94C73.0239 201.34 72.5039 201.653 71.9039 201.88C71.3173 202.093 70.6839 202.2 70.0039 202.2ZM66.1639 196.3H73.8639C73.8106 195.54 73.6039 194.873 73.2439 194.3C72.8973 193.727 72.4373 193.28 71.8639 192.96C71.3039 192.627 70.6839 192.46 70.0039 192.46C69.3239 192.46 68.7039 192.627 68.1439 192.96C67.5839 193.28 67.1239 193.733 66.7639 194.32C66.4173 194.893 66.2173 195.553 66.1639 196.3Z" fill="#BD00FF"/>
<path d="M58.5727 202V192.8H54.8527V191.58H63.6527V192.8H59.9327V202H58.5727Z" fill="#BD00FF"/>
<path d="M44.2925 202V191.58H45.6525V196.06H51.6125V191.58H52.9725V202H51.6125V197.28H45.6525V202H44.2925Z" fill="#BD00FF"/>
<path d="M36.858 202.2C36.1113 202.2 35.418 202.06 34.778 201.78C34.1513 201.487 33.6047 201.093 33.138 200.6C32.6847 200.093 32.3313 199.52 32.078 198.88C31.8247 198.227 31.698 197.54 31.698 196.82C31.698 196.073 31.8247 195.38 32.078 194.74C32.3313 194.087 32.6913 193.513 33.158 193.02C33.6247 192.513 34.1713 192.12 34.798 191.84C35.438 191.547 36.1313 191.4 36.878 191.4C37.6247 191.4 38.3113 191.547 38.938 191.84C39.5647 192.12 40.1113 192.513 40.578 193.02C41.0447 193.513 41.4047 194.087 41.658 194.74C41.9113 195.38 42.038 196.073 42.038 196.82C42.038 197.54 41.9113 198.227 41.658 198.88C41.4047 199.52 41.0447 200.093 40.578 200.6C40.1247 201.093 39.578 201.487 38.938 201.78C38.3113 202.06 37.618 202.2 36.858 202.2ZM33.078 196.84C33.078 197.613 33.2447 198.32 33.578 198.96C33.9247 199.587 34.3847 200.087 34.958 200.46C35.5313 200.82 36.1647 201 36.858 201C37.5513 201 38.1847 200.813 38.758 200.44C39.3313 200.067 39.7913 199.56 40.138 198.92C40.4847 198.267 40.658 197.56 40.658 196.8C40.658 196.027 40.4847 195.32 40.138 194.68C39.7913 194.04 39.3313 193.533 38.758 193.16C38.1847 192.787 37.5513 192.6 36.858 192.6C36.1647 192.6 35.5313 192.793 34.958 193.18C34.398 193.567 33.9447 194.08 33.598 194.72C33.2513 195.347 33.078 196.053 33.078 196.84Z" fill="#BD00FF"/>
<path d="M22.5542 202V191.58H23.9142V196.04H25.4742L28.9742 191.58H30.5342L26.5542 196.64L31.0342 202H29.4342L25.4742 197.3H23.9142V202H22.5542Z" fill="#BD00FF"/>
<path d="M11.02 202.2C10.26 202.2 9.56003 202.06 8.92003 201.78C8.29336 201.487 7.74003 201.087 7.26003 200.58C6.79336 200.073 6.4267 199.493 6.16003 198.84C5.9067 198.187 5.78003 197.493 5.78003 196.76C5.78003 195.773 6.00003 194.873 6.44003 194.06C6.88003 193.247 7.49336 192.6 8.28003 192.12C9.0667 191.64 9.97336 191.4 11 191.4C11.9734 191.4 12.8334 191.627 13.58 192.08C14.3267 192.52 14.88 193.12 15.24 193.88L13.92 194.3C13.6267 193.767 13.2134 193.353 12.68 193.06C12.16 192.753 11.58 192.6 10.94 192.6C10.2467 192.6 9.61336 192.78 9.04003 193.14C8.4667 193.5 8.0067 193.993 7.66003 194.62C7.3267 195.247 7.16003 195.96 7.16003 196.76C7.16003 197.547 7.33336 198.26 7.68003 198.9C8.0267 199.54 8.4867 200.053 9.06003 200.44C9.63336 200.813 10.2667 201 10.96 201C11.4134 201 11.8467 200.92 12.26 200.76C12.6867 200.6 13.0534 200.387 13.36 200.12C13.68 199.84 13.8934 199.54 14 199.22L15.34 199.62C15.1534 200.113 14.84 200.56 14.4 200.96C13.9734 201.347 13.4667 201.653 12.88 201.88C12.3067 202.093 11.6867 202.2 11.02 202.2Z" fill="#BD00FF"/>
<path d="M432.621 179.2C431.874 179.2 431.181 179.06 430.541 178.78C429.901 178.487 429.348 178.093 428.881 177.6C428.414 177.093 428.048 176.513 427.781 175.86C427.528 175.207 427.401 174.507 427.401 173.76C427.401 172.787 427.621 171.893 428.061 171.08C428.514 170.267 429.134 169.62 429.921 169.14C430.708 168.647 431.601 168.4 432.601 168.4C433.628 168.4 434.521 168.647 435.281 169.14C436.054 169.633 436.661 170.287 437.101 171.1C437.541 171.9 437.761 172.78 437.761 173.74C437.761 173.847 437.761 173.953 437.761 174.06C437.761 174.153 437.754 174.227 437.741 174.28H428.821C428.888 175.027 429.094 175.693 429.441 176.28C429.801 176.853 430.261 177.313 430.821 177.66C431.394 177.993 432.014 178.16 432.681 178.16C433.361 178.16 434.001 177.987 434.601 177.64C435.214 177.293 435.641 176.84 435.881 176.28L437.061 176.6C436.848 177.093 436.521 177.54 436.081 177.94C435.641 178.34 435.121 178.653 434.521 178.88C433.934 179.093 433.301 179.2 432.621 179.2ZM428.781 173.3H436.481C436.428 172.54 436.221 171.873 435.861 171.3C435.514 170.727 435.054 170.28 434.481 169.96C433.921 169.627 433.301 169.46 432.621 169.46C431.941 169.46 431.321 169.627 430.761 169.96C430.201 170.28 429.741 170.733 429.381 171.32C429.034 171.893 428.834 172.553 428.781 173.3Z" fill="#BD00FF"/>
<path d="M416.226 179V168.6H417.586V177.16L423.926 168.58H425.146V179H423.786V170.58L417.546 179H416.226Z" fill="#BD00FF"/>
<path d="M405.523 179V168.58H410.723C411.31 168.58 411.803 168.707 412.203 168.96C412.603 169.2 412.903 169.513 413.103 169.9C413.316 170.287 413.423 170.7 413.423 171.14C413.423 171.7 413.29 172.207 413.023 172.66C412.756 173.1 412.37 173.433 411.863 173.66C412.463 173.833 412.95 174.147 413.323 174.6C413.696 175.053 413.883 175.6 413.883 176.24C413.883 176.8 413.743 177.287 413.463 177.7C413.196 178.113 412.823 178.433 412.343 178.66C411.876 178.887 411.336 179 410.723 179H405.523ZM406.823 178.02H410.683C411.03 178.02 411.343 177.933 411.623 177.76C411.916 177.573 412.143 177.333 412.303 177.04C412.476 176.747 412.563 176.44 412.563 176.12C412.563 175.773 412.483 175.46 412.323 175.18C412.163 174.887 411.95 174.653 411.683 174.48C411.416 174.307 411.11 174.22 410.763 174.22H406.823V178.02ZM406.823 173.28H410.363C410.71 173.28 411.016 173.187 411.283 173C411.55 172.813 411.756 172.573 411.903 172.28C412.05 171.987 412.123 171.68 412.123 171.36C412.123 170.88 411.963 170.46 411.643 170.1C411.336 169.74 410.936 169.56 410.443 169.56H406.823V173.28Z" fill="#BD00FF"/>
<path d="M398.612 179V169.8H394.892V168.58H403.692V169.8H399.972V179H398.612Z" fill="#BD00FF"/>
<path d="M389.555 179.2C388.795 179.2 388.095 179.06 387.455 178.78C386.829 178.487 386.275 178.087 385.795 177.58C385.329 177.073 384.962 176.493 384.695 175.84C384.442 175.187 384.315 174.493 384.315 173.76C384.315 172.773 384.535 171.873 384.975 171.06C385.415 170.247 386.029 169.6 386.815 169.12C387.602 168.64 388.509 168.4 389.535 168.4C390.509 168.4 391.369 168.627 392.115 169.08C392.862 169.52 393.415 170.12 393.775 170.88L392.455 171.3C392.162 170.767 391.749 170.353 391.215 170.06C390.695 169.753 390.115 169.6 389.475 169.6C388.782 169.6 388.149 169.78 387.575 170.14C387.002 170.5 386.542 170.993 386.195 171.62C385.862 172.247 385.695 172.96 385.695 173.76C385.695 174.547 385.869 175.26 386.215 175.9C386.562 176.54 387.022 177.053 387.595 177.44C388.169 177.813 388.802 178 389.495 178C389.949 178 390.382 177.92 390.795 177.76C391.222 177.6 391.589 177.387 391.895 177.12C392.215 176.84 392.429 176.54 392.535 176.22L393.875 176.62C393.689 177.113 393.375 177.56 392.935 177.96C392.509 178.347 392.002 178.653 391.415 178.88C390.842 179.093 390.222 179.2 389.555 179.2Z" fill="#BD00FF"/>
<path d="M373.14 179V168.6H374.5V177.16L380.84 168.58H382.06V179H380.7V170.58L374.46 179H373.14ZM377.62 167.26C376.713 167.26 376.013 167.047 375.52 166.62C375.027 166.193 374.78 165.653 374.78 165H375.78C375.78 165.4 375.927 165.733 376.22 166C376.527 166.267 376.993 166.4 377.62 166.4C378.233 166.4 378.68 166.273 378.96 166.02C379.253 165.767 379.42 165.427 379.46 165H380.44C380.44 165.653 380.193 166.193 379.7 166.62C379.207 167.047 378.513 167.26 377.62 167.26Z" fill="#BD00FF"/>
<path d="M365.922 179.2C365.175 179.2 364.482 179.06 363.842 178.78C363.202 178.487 362.649 178.093 362.182 177.6C361.715 177.093 361.349 176.513 361.082 175.86C360.829 175.207 360.702 174.507 360.702 173.76C360.702 172.787 360.922 171.893 361.362 171.08C361.815 170.267 362.435 169.62 363.222 169.14C364.009 168.647 364.902 168.4 365.902 168.4C366.929 168.4 367.822 168.647 368.582 169.14C369.355 169.633 369.962 170.287 370.402 171.1C370.842 171.9 371.062 172.78 371.062 173.74C371.062 173.847 371.062 173.953 371.062 174.06C371.062 174.153 371.055 174.227 371.042 174.28H362.122C362.189 175.027 362.395 175.693 362.742 176.28C363.102 176.853 363.562 177.313 364.122 177.66C364.695 177.993 365.315 178.16 365.982 178.16C366.662 178.16 367.302 177.987 367.902 177.64C368.515 177.293 368.942 176.84 369.182 176.28L370.362 176.6C370.149 177.093 369.822 177.54 369.382 177.94C368.942 178.34 368.422 178.653 367.822 178.88C367.235 179.093 366.602 179.2 365.922 179.2ZM362.082 173.3H369.782C369.729 172.54 369.522 171.873 369.162 171.3C368.815 170.727 368.355 170.28 367.782 169.96C367.222 169.627 366.602 169.46 365.922 169.46C365.242 169.46 364.622 169.627 364.062 169.96C363.502 170.28 363.042 170.733 362.682 171.32C362.335 171.893 362.135 172.553 362.082 173.3Z" fill="#BD00FF"/>
<path d="M348.66 181.42V177.78H348.84C349.147 177.78 349.427 177.687 349.68 177.5C349.934 177.313 350.16 176.987 350.36 176.52C350.56 176.053 350.72 175.413 350.84 174.6C350.96 173.773 351.04 172.733 351.08 171.48L351.18 168.58H357.96V177.78H359.36V181.42H358.14V179H349.86V181.42H348.66ZM350.9 177.78H356.6V169.8H352.4L352.34 171.6C352.3 172.84 352.214 173.88 352.08 174.72C351.96 175.547 351.8 176.207 351.6 176.7C351.414 177.18 351.18 177.54 350.9 177.78Z" fill="#BD00FF"/>
<path d="M342.366 179.2C341.619 179.2 340.926 179.06 340.286 178.78C339.659 178.487 339.112 178.093 338.646 177.6C338.192 177.093 337.839 176.52 337.586 175.88C337.332 175.227 337.206 174.54 337.206 173.82C337.206 173.073 337.332 172.38 337.586 171.74C337.839 171.087 338.199 170.513 338.666 170.02C339.132 169.513 339.679 169.12 340.306 168.84C340.946 168.547 341.639 168.4 342.386 168.4C343.132 168.4 343.819 168.547 344.446 168.84C345.072 169.12 345.619 169.513 346.086 170.02C346.552 170.513 346.912 171.087 347.166 171.74C347.419 172.38 347.546 173.073 347.546 173.82C347.546 174.54 347.419 175.227 347.166 175.88C346.912 176.52 346.552 177.093 346.086 177.6C345.632 178.093 345.086 178.487 344.446 178.78C343.819 179.06 343.126 179.2 342.366 179.2ZM338.586 173.84C338.586 174.613 338.752 175.32 339.086 175.96C339.432 176.587 339.892 177.087 340.466 177.46C341.039 177.82 341.672 178 342.366 178C343.059 178 343.692 177.813 344.266 177.44C344.839 177.067 345.299 176.56 345.646 175.92C345.992 175.267 346.166 174.56 346.166 173.8C346.166 173.027 345.992 172.32 345.646 171.68C345.299 171.04 344.839 170.533 344.266 170.16C343.692 169.787 343.059 169.6 342.366 169.6C341.672 169.6 341.039 169.793 340.466 170.18C339.906 170.567 339.452 171.08 339.106 171.72C338.759 172.347 338.586 173.053 338.586 173.84Z" fill="#BD00FF"/>
<path d="M323.882 179V168.58H325.282L329.422 175.76L333.582 168.58H334.922V179H333.622V170.62L329.862 177.14H328.982L325.182 170.62V179H323.882Z" fill="#BD00FF"/>
<path d="M312.007 179V168.6H313.367V177.16L319.707 168.58H320.927V179H319.567V170.58L313.327 179H312.007Z" fill="#BD00FF"/>
<path d="M300.289 176C300.289 175.347 300.476 174.787 300.849 174.32C301.222 173.84 301.736 173.473 302.389 173.22C303.056 172.953 303.822 172.82 304.689 172.82C305.196 172.82 305.722 172.86 306.269 172.94C306.816 173.02 307.302 173.14 307.729 173.3V172.42C307.729 171.54 307.469 170.84 306.949 170.32C306.429 169.8 305.709 169.54 304.789 169.54C304.229 169.54 303.676 169.647 303.129 169.86C302.596 170.06 302.036 170.36 301.449 170.76L300.929 169.8C301.609 169.333 302.276 168.987 302.929 168.76C303.582 168.52 304.249 168.4 304.929 168.4C306.209 168.4 307.222 168.767 307.969 169.5C308.716 170.233 309.089 171.247 309.089 172.54V177.36C309.089 177.547 309.129 177.687 309.209 177.78C309.289 177.86 309.416 177.907 309.589 177.92V179C309.442 179.013 309.316 179.027 309.209 179.04C309.102 179.053 309.022 179.053 308.969 179.04C308.636 179.027 308.382 178.92 308.209 178.72C308.036 178.52 307.942 178.307 307.929 178.08L307.909 177.32C307.442 177.92 306.836 178.387 306.089 178.72C305.342 179.04 304.582 179.2 303.809 179.2C303.142 179.2 302.536 179.06 301.989 178.78C301.456 178.487 301.036 178.1 300.729 177.62C300.436 177.127 300.289 176.587 300.289 176ZM307.269 176.8C307.416 176.613 307.529 176.433 307.609 176.26C307.689 176.087 307.729 175.933 307.729 175.8V174.28C307.276 174.107 306.802 173.973 306.309 173.88C305.829 173.787 305.342 173.74 304.849 173.74C303.876 173.74 303.089 173.933 302.489 174.32C301.889 174.707 301.589 175.233 301.589 175.9C301.589 176.287 301.689 176.653 301.889 177C302.089 177.333 302.382 177.613 302.769 177.84C303.156 178.053 303.609 178.16 304.129 178.16C304.782 178.16 305.389 178.033 305.949 177.78C306.522 177.527 306.962 177.2 307.269 176.8Z" fill="#BD00FF"/>
<path d="M294.95 179.12C293.99 179.12 293.17 178.94 292.49 178.58C291.81 178.207 291.29 177.687 290.93 177.02L292.05 176.52C292.303 176.987 292.67 177.353 293.15 177.62C293.63 177.873 294.21 178 294.89 178C295.703 178 296.35 177.813 296.83 177.44C297.323 177.067 297.57 176.567 297.57 175.94C297.57 175.367 297.376 174.907 296.99 174.56C296.603 174.213 296.07 174.033 295.39 174.02H294.33V173.08H295.47C295.763 173.08 296.03 173 296.27 172.84C296.51 172.68 296.696 172.467 296.83 172.2C296.963 171.933 297.03 171.633 297.03 171.3C297.03 170.78 296.843 170.36 296.47 170.04C296.11 169.72 295.576 169.56 294.87 169.56C294.283 169.56 293.79 169.68 293.39 169.92C293.003 170.147 292.69 170.487 292.45 170.94L291.41 170.38C291.716 169.767 292.17 169.287 292.77 168.94C293.383 168.593 294.096 168.42 294.91 168.42C295.576 168.42 296.156 168.533 296.65 168.76C297.156 168.973 297.55 169.287 297.83 169.7C298.123 170.1 298.27 170.587 298.27 171.16C298.27 171.653 298.15 172.113 297.91 172.54C297.67 172.953 297.336 173.267 296.91 173.48C297.523 173.667 297.996 173.993 298.33 174.46C298.676 174.927 298.85 175.473 298.85 176.1C298.85 176.727 298.683 177.267 298.35 177.72C298.016 178.173 297.556 178.52 296.97 178.76C296.383 179 295.71 179.12 294.95 179.12Z" fill="#BD00FF"/>
<path d="M281.207 179V168.58H286.407C286.993 168.58 287.487 168.707 287.887 168.96C288.287 169.2 288.587 169.513 288.787 169.9C289 170.287 289.107 170.7 289.107 171.14C289.107 171.7 288.973 172.207 288.707 172.66C288.44 173.1 288.053 173.433 287.547 173.66C288.147 173.833 288.633 174.147 289.007 174.6C289.38 175.053 289.567 175.6 289.567 176.24C289.567 176.8 289.427 177.287 289.147 177.7C288.88 178.113 288.507 178.433 288.027 178.66C287.56 178.887 287.02 179 286.407 179H281.207ZM282.507 178.02H286.367C286.713 178.02 287.027 177.933 287.307 177.76C287.6 177.573 287.827 177.333 287.987 177.04C288.16 176.747 288.247 176.44 288.247 176.12C288.247 175.773 288.167 175.46 288.007 175.18C287.847 174.887 287.633 174.653 287.367 174.48C287.1 174.307 286.793 174.22 286.447 174.22H282.507V178.02ZM282.507 173.28H286.047C286.393 173.28 286.7 173.187 286.967 173C287.233 172.813 287.44 172.573 287.587 172.28C287.733 171.987 287.807 171.68 287.807 171.36C287.807 170.88 287.647 170.46 287.327 170.1C287.02 169.74 286.62 169.56 286.127 169.56H282.507V173.28Z" fill="#BD00FF"/>
<path d="M269.95 179.12C268.99 179.12 268.17 178.94 267.49 178.58C266.81 178.207 266.29 177.687 265.93 177.02L267.05 176.52C267.303 176.987 267.67 177.353 268.15 177.62C268.63 177.873 269.21 178 269.89 178C270.703 178 271.35 177.813 271.83 177.44C272.323 177.067 272.57 176.567 272.57 175.94C272.57 175.367 272.376 174.907 271.99 174.56C271.603 174.213 271.07 174.033 270.39 174.02H269.33V173.08H270.47C270.763 173.08 271.03 173 271.27 172.84C271.51 172.68 271.696 172.467 271.83 172.2C271.963 171.933 272.03 171.633 272.03 171.3C272.03 170.78 271.843 170.36 271.47 170.04C271.11 169.72 270.576 169.56 269.87 169.56C269.283 169.56 268.79 169.68 268.39 169.92C268.003 170.147 267.69 170.487 267.45 170.94L266.41 170.38C266.716 169.767 267.17 169.287 267.77 168.94C268.383 168.593 269.096 168.42 269.91 168.42C270.576 168.42 271.156 168.533 271.65 168.76C272.156 168.973 272.55 169.287 272.83 169.7C273.123 170.1 273.27 170.587 273.27 171.16C273.27 171.653 273.15 172.113 272.91 172.54C272.67 172.953 272.336 173.267 271.91 173.48C272.523 173.667 272.996 173.993 273.33 174.46C273.676 174.927 273.85 175.473 273.85 176.1C273.85 176.727 273.683 177.267 273.35 177.72C273.016 178.173 272.556 178.52 271.97 178.76C271.383 179 270.71 179.12 269.95 179.12Z" fill="#BD00FF"/>
<path d="M259.691 179.2C258.945 179.2 258.251 179.06 257.611 178.78C256.971 178.487 256.418 178.093 255.951 177.6C255.485 177.093 255.118 176.513 254.851 175.86C254.598 175.207 254.471 174.507 254.471 173.76C254.471 172.787 254.691 171.893 255.131 171.08C255.585 170.267 256.205 169.62 256.991 169.14C257.778 168.647 258.671 168.4 259.671 168.4C260.698 168.4 261.591 168.647 262.351 169.14C263.125 169.633 263.731 170.287 264.171 171.1C264.611 171.9 264.831 172.78 264.831 173.74C264.831 173.847 264.831 173.953 264.831 174.06C264.831 174.153 264.825 174.227 264.811 174.28H255.891C255.958 175.027 256.165 175.693 256.511 176.28C256.871 176.853 257.331 177.313 257.891 177.66C258.465 177.993 259.085 178.16 259.751 178.16C260.431 178.16 261.071 177.987 261.671 177.64C262.285 177.293 262.711 176.84 262.951 176.28L264.131 176.6C263.918 177.093 263.591 177.54 263.151 177.94C262.711 178.34 262.191 178.653 261.591 178.88C261.005 179.093 260.371 179.2 259.691 179.2ZM255.851 173.3H263.551C263.498 172.54 263.291 171.873 262.931 171.3C262.585 170.727 262.125 170.28 261.551 169.96C260.991 169.627 260.371 169.46 259.691 169.46C259.011 169.46 258.391 169.627 257.831 169.96C257.271 170.28 256.811 170.733 256.451 171.32C256.105 171.893 255.905 172.553 255.851 173.3Z" fill="#BD00FF"/>
<path d="M248.168 179.2C247.301 179.2 246.521 178.973 245.828 178.52C245.148 178.067 244.608 177.507 244.208 176.84V183.26H242.848V168.58H244.068V170.6C244.481 169.947 245.034 169.42 245.728 169.02C246.421 168.607 247.161 168.4 247.948 168.4C248.668 168.4 249.328 168.553 249.928 168.86C250.528 169.153 251.048 169.553 251.488 170.06C251.928 170.567 252.268 171.147 252.508 171.8C252.761 172.44 252.888 173.107 252.888 173.8C252.888 174.773 252.688 175.673 252.288 176.5C251.901 177.313 251.354 177.967 250.648 178.46C249.941 178.953 249.114 179.2 248.168 179.2ZM247.788 178C248.361 178 248.874 177.887 249.328 177.66C249.781 177.42 250.168 177.1 250.488 176.7C250.821 176.3 251.074 175.853 251.248 175.36C251.421 174.853 251.508 174.333 251.508 173.8C251.508 173.24 251.408 172.707 251.208 172.2C251.021 171.693 250.748 171.247 250.388 170.86C250.028 170.473 249.614 170.167 249.148 169.94C248.681 169.713 248.174 169.6 247.628 169.6C247.281 169.6 246.921 169.667 246.548 169.8C246.174 169.933 245.814 170.127 245.468 170.38C245.134 170.62 244.854 170.893 244.628 171.2C244.401 171.507 244.261 171.833 244.208 172.18V175.38C244.421 175.873 244.708 176.32 245.068 176.72C245.428 177.107 245.841 177.42 246.308 177.66C246.788 177.887 247.281 178 247.788 178Z" fill="#BD00FF"/>
<path d="M235.609 179.2C234.863 179.2 234.169 179.06 233.529 178.78C232.889 178.487 232.336 178.093 231.869 177.6C231.403 177.093 231.036 176.513 230.769 175.86C230.516 175.207 230.389 174.507 230.389 173.76C230.389 172.787 230.609 171.893 231.049 171.08C231.503 170.267 232.123 169.62 232.909 169.14C233.696 168.647 234.589 168.4 235.589 168.4C236.616 168.4 237.509 168.647 238.269 169.14C239.043 169.633 239.649 170.287 240.089 171.1C240.529 171.9 240.749 172.78 240.749 173.74C240.749 173.847 240.749 173.953 240.749 174.06C240.749 174.153 240.743 174.227 240.729 174.28H231.809C231.876 175.027 232.083 175.693 232.429 176.28C232.789 176.853 233.249 177.313 233.809 177.66C234.383 177.993 235.003 178.16 235.669 178.16C236.349 178.16 236.989 177.987 237.589 177.64C238.203 177.293 238.629 176.84 238.869 176.28L240.049 176.6C239.836 177.093 239.509 177.54 239.069 177.94C238.629 178.34 238.109 178.653 237.509 178.88C236.923 179.093 236.289 179.2 235.609 179.2ZM231.769 173.3H239.469C239.416 172.54 239.209 171.873 238.849 171.3C238.503 170.727 238.043 170.28 237.469 169.96C236.909 169.627 236.289 169.46 235.609 169.46C234.929 169.46 234.309 169.627 233.749 169.96C233.189 170.28 232.729 170.733 232.369 171.32C232.023 171.893 231.823 172.553 231.769 173.3Z" fill="#BD00FF"/>
<path d="M226.757 179V174.64C226.33 174.84 225.884 174.993 225.417 175.1C224.95 175.193 224.45 175.24 223.917 175.24C222.77 175.24 221.904 174.947 221.317 174.36C220.744 173.773 220.457 172.873 220.457 171.66V168.58H221.817V171.48C221.817 172.413 222.004 173.093 222.377 173.52C222.764 173.947 223.377 174.16 224.217 174.16C224.684 174.16 225.15 174.107 225.617 174C226.084 173.893 226.464 173.753 226.757 173.58V168.58H228.117V179H226.757Z" fill="#BD00FF"/>
<path d="M203.961 176C203.961 175.347 204.147 174.787 204.521 174.32C204.894 173.84 205.407 173.473 206.061 173.22C206.727 172.953 207.494 172.82 208.361 172.82C208.867 172.82 209.394 172.86 209.941 172.94C210.487 173.02 210.974 173.14 211.401 173.3V172.42C211.401 171.54 211.141 170.84 210.621 170.32C210.101 169.8 209.381 169.54 208.461 169.54C207.901 169.54 207.347 169.647 206.801 169.86C206.267 170.06 205.707 170.36 205.121 170.76L204.601 169.8C205.281 169.333 205.947 168.987 206.601 168.76C207.254 168.52 207.921 168.4 208.601 168.4C209.881 168.4 210.894 168.767 211.641 169.5C212.387 170.233 212.761 171.247 212.761 172.54V177.36C212.761 177.547 212.801 177.687 212.881 177.78C212.961 177.86 213.087 177.907 213.261 177.92V179C213.114 179.013 212.987 179.027 212.881 179.04C212.774 179.053 212.694 179.053 212.641 179.04C212.307 179.027 212.054 178.92 211.881 178.72C211.707 178.52 211.614 178.307 211.601 178.08L211.581 177.32C211.114 177.92 210.507 178.387 209.761 178.72C209.014 179.04 208.254 179.2 207.481 179.2C206.814 179.2 206.207 179.06 205.661 178.78C205.127 178.487 204.707 178.1 204.401 177.62C204.107 177.127 203.961 176.587 203.961 176ZM210.941 176.8C211.087 176.613 211.201 176.433 211.281 176.26C211.361 176.087 211.401 175.933 211.401 175.8V174.28C210.947 174.107 210.474 173.973 209.981 173.88C209.501 173.787 209.014 173.74 208.521 173.74C207.547 173.74 206.761 173.933 206.161 174.32C205.561 174.707 205.261 175.233 205.261 175.9C205.261 176.287 205.361 176.653 205.561 177C205.761 177.333 206.054 177.613 206.441 177.84C206.827 178.053 207.281 178.16 207.801 178.16C208.454 178.16 209.061 178.033 209.621 177.78C210.194 177.527 210.634 177.2 210.941 176.8Z" fill="#BD00FF"/>
<path d="M193.121 179V168.58H194.481V173.06H200.441V168.58H201.801V179H200.441V174.28H194.481V179H193.121Z" fill="#BD00FF"/>
<path d="M186.684 179.2C185.924 179.2 185.224 179.06 184.584 178.78C183.957 178.487 183.404 178.087 182.924 177.58C182.457 177.073 182.091 176.493 181.824 175.84C181.571 175.187 181.444 174.493 181.444 173.76C181.444 172.773 181.664 171.873 182.104 171.06C182.544 170.247 183.157 169.6 183.944 169.12C184.731 168.64 185.637 168.4 186.664 168.4C187.637 168.4 188.497 168.627 189.244 169.08C189.991 169.52 190.544 170.12 190.904 170.88L189.584 171.3C189.291 170.767 188.877 170.353 188.344 170.06C187.824 169.753 187.244 169.6 186.604 169.6C185.911 169.6 185.277 169.78 184.704 170.14C184.131 170.5 183.671 170.993 183.324 171.62C182.991 172.247 182.824 172.96 182.824 173.76C182.824 174.547 182.997 175.26 183.344 175.9C183.691 176.54 184.151 177.053 184.724 177.44C185.297 177.813 185.931 178 186.624 178C187.077 178 187.511 177.92 187.924 177.76C188.351 177.6 188.717 177.387 189.024 177.12C189.344 176.84 189.557 176.54 189.664 176.22L191.004 176.62C190.817 177.113 190.504 177.56 190.064 177.96C189.637 178.347 189.131 178.653 188.544 178.88C187.971 179.093 187.351 179.2 186.684 179.2Z" fill="#BD00FF"/>
<path d="M163.492 179V168.58H164.852V172.26H167.212C168.398 172.26 169.292 172.567 169.892 173.18C170.505 173.78 170.812 174.573 170.812 175.56C170.812 176.2 170.678 176.78 170.412 177.3C170.145 177.82 169.752 178.233 169.232 178.54C168.725 178.847 168.085 179 167.312 179H163.492ZM164.852 177.92H167.132C167.678 177.92 168.118 177.813 168.452 177.6C168.785 177.373 169.032 177.087 169.192 176.74C169.352 176.38 169.432 175.993 169.432 175.58C169.432 175.18 169.358 174.813 169.212 174.48C169.078 174.133 168.838 173.86 168.492 173.66C168.158 173.447 167.692 173.34 167.092 173.34H164.852V177.92ZM172.712 179V168.6H174.072V179H172.712Z" fill="#BD00FF"/>
<path d="M157.333 179.12C156.373 179.12 155.552 178.94 154.872 178.58C154.192 178.207 153.673 177.687 153.312 177.02L154.432 176.52C154.686 176.987 155.053 177.353 155.533 177.62C156.013 177.873 156.593 178 157.273 178C158.086 178 158.732 177.813 159.212 177.44C159.706 177.067 159.952 176.567 159.952 175.94C159.952 175.367 159.759 174.907 159.372 174.56C158.986 174.213 158.453 174.033 157.773 174.02H156.712V173.08H157.852C158.146 173.08 158.412 173 158.652 172.84C158.892 172.68 159.079 172.467 159.212 172.2C159.346 171.933 159.413 171.633 159.413 171.3C159.413 170.78 159.226 170.36 158.852 170.04C158.492 169.72 157.959 169.56 157.253 169.56C156.666 169.56 156.173 169.68 155.773 169.92C155.386 170.147 155.073 170.487 154.833 170.94L153.792 170.38C154.099 169.767 154.552 169.287 155.152 168.94C155.766 168.593 156.479 168.42 157.292 168.42C157.959 168.42 158.539 168.533 159.033 168.76C159.539 168.973 159.932 169.287 160.212 169.7C160.506 170.1 160.652 170.587 160.652 171.16C160.652 171.653 160.532 172.113 160.292 172.54C160.052 172.953 159.719 173.267 159.292 173.48C159.906 173.667 160.379 173.993 160.712 174.46C161.059 174.927 161.232 175.473 161.232 176.1C161.232 176.727 161.066 177.267 160.732 177.72C160.399 178.173 159.939 178.52 159.352 178.76C158.766 179 158.093 179.12 157.333 179.12Z" fill="#BD00FF"/>
<path d="M142.574 176C142.574 175.347 142.761 174.787 143.134 174.32C143.507 173.84 144.021 173.473 144.674 173.22C145.341 172.953 146.107 172.82 146.974 172.82C147.481 172.82 148.007 172.86 148.554 172.94C149.101 173.02 149.587 173.14 150.014 173.3V172.42C150.014 171.54 149.754 170.84 149.234 170.32C148.714 169.8 147.994 169.54 147.074 169.54C146.514 169.54 145.961 169.647 145.414 169.86C144.881 170.06 144.321 170.36 143.734 170.76L143.214 169.8C143.894 169.333 144.561 168.987 145.214 168.76C145.867 168.52 146.534 168.4 147.214 168.4C148.494 168.4 149.507 168.767 150.254 169.5C151.001 170.233 151.374 171.247 151.374 172.54V177.36C151.374 177.547 151.414 177.687 151.494 177.78C151.574 177.86 151.701 177.907 151.874 177.92V179C151.727 179.013 151.601 179.027 151.494 179.04C151.387 179.053 151.307 179.053 151.254 179.04C150.921 179.027 150.667 178.92 150.494 178.72C150.321 178.52 150.227 178.307 150.214 178.08L150.194 177.32C149.727 177.92 149.121 178.387 148.374 178.72C147.627 179.04 146.867 179.2 146.094 179.2C145.427 179.2 144.821 179.06 144.274 178.78C143.741 178.487 143.321 178.1 143.014 177.62C142.721 177.127 142.574 176.587 142.574 176ZM149.554 176.8C149.701 176.613 149.814 176.433 149.894 176.26C149.974 176.087 150.014 175.933 150.014 175.8V174.28C149.561 174.107 149.087 173.973 148.594 173.88C148.114 173.787 147.627 173.74 147.134 173.74C146.161 173.74 145.374 173.933 144.774 174.32C144.174 174.707 143.874 175.233 143.874 175.9C143.874 176.287 143.974 176.653 144.174 177C144.374 177.333 144.667 177.613 145.054 177.84C145.441 178.053 145.894 178.16 146.414 178.16C147.067 178.16 147.674 178.033 148.234 177.78C148.807 177.527 149.247 177.2 149.554 176.8Z" fill="#BD00FF"/>
<path d="M134.249 183.26V179H133.789C132.763 179 131.869 178.76 131.109 178.28C130.349 177.8 129.763 177.173 129.349 176.4C128.936 175.613 128.729 174.753 128.729 173.82C128.729 172.873 128.936 172.007 129.349 171.22C129.776 170.433 130.369 169.8 131.129 169.32C131.889 168.84 132.776 168.6 133.789 168.6H134.249V164.4H135.609V168.6H136.069C137.083 168.6 137.969 168.84 138.729 169.32C139.489 169.8 140.076 170.433 140.489 171.22C140.916 172.007 141.129 172.873 141.129 173.82C141.129 174.753 140.923 175.613 140.509 176.4C140.096 177.173 139.509 177.8 138.749 178.28C137.989 178.76 137.096 179 136.069 179H135.609V183.26H134.249ZM133.789 177.86H134.289V169.74H133.789C133.069 169.74 132.429 169.927 131.869 170.3C131.309 170.66 130.869 171.153 130.549 171.78C130.229 172.393 130.069 173.08 130.069 173.84C130.069 174.587 130.223 175.267 130.529 175.88C130.849 176.493 131.289 176.98 131.849 177.34C132.409 177.687 133.056 177.86 133.789 177.86ZM135.549 177.86H136.069C136.803 177.86 137.449 177.687 138.009 177.34C138.569 176.98 139.003 176.493 139.309 175.88C139.629 175.267 139.789 174.587 139.789 173.84C139.789 173.08 139.629 172.393 139.309 171.78C138.989 171.153 138.549 170.66 137.989 170.3C137.443 169.927 136.803 169.74 136.069 169.74H135.549V177.86Z" fill="#BD00FF"/>
<path d="M110.308 179V168.58H111.708L115.848 175.76L120.008 168.58H121.348V179H120.048V170.62L116.288 177.14H115.408L111.608 170.62V179H110.308Z" fill="#BD00FF"/>
<path d="M103.09 179.2C102.343 179.2 101.65 179.06 101.01 178.78C100.37 178.487 99.8165 178.093 99.3499 177.6C98.8832 177.093 98.5165 176.513 98.2499 175.86C97.9965 175.207 97.8699 174.507 97.8699 173.76C97.8699 172.787 98.0899 171.893 98.5299 171.08C98.9832 170.267 99.6032 169.62 100.39 169.14C101.177 168.647 102.07 168.4 103.07 168.4C104.097 168.4 104.99 168.647 105.75 169.14C106.523 169.633 107.13 170.287 107.57 171.1C108.01 171.9 108.23 172.78 108.23 173.74C108.23 173.847 108.23 173.953 108.23 174.06C108.23 174.153 108.223 174.227 108.21 174.28H99.2899C99.3565 175.027 99.5632 175.693 99.9099 176.28C100.27 176.853 100.73 177.313 101.29 177.66C101.863 177.993 102.483 178.16 103.15 178.16C103.83 178.16 104.47 177.987 105.07 177.64C105.683 177.293 106.11 176.84 106.35 176.28L107.53 176.6C107.317 177.093 106.99 177.54 106.55 177.94C106.11 178.34 105.59 178.653 104.99 178.88C104.403 179.093 103.77 179.2 103.09 179.2ZM99.2499 173.3H106.95C106.897 172.54 106.69 171.873 106.33 171.3C105.983 170.727 105.523 170.28 104.95 169.96C104.39 169.627 103.77 169.46 103.09 169.46C102.41 169.46 101.79 169.627 101.23 169.96C100.67 170.28 100.21 170.733 99.8499 171.32C99.5032 171.893 99.3032 172.553 99.2499 173.3Z" fill="#BD00FF"/>
<path d="M86.8514 176C86.8514 175.347 87.0381 174.787 87.4114 174.32C87.7848 173.84 88.2981 173.473 88.9514 173.22C89.6181 172.953 90.3848 172.82 91.2514 172.82C91.7581 172.82 92.2848 172.86 92.8314 172.94C93.3781 173.02 93.8648 173.14 94.2914 173.3V172.42C94.2914 171.54 94.0314 170.84 93.5114 170.32C92.9914 169.8 92.2714 169.54 91.3514 169.54C90.7914 169.54 90.2381 169.647 89.6914 169.86C89.1581 170.06 88.5981 170.36 88.0114 170.76L87.4914 169.8C88.1714 169.333 88.8381 168.987 89.4914 168.76C90.1448 168.52 90.8114 168.4 91.4914 168.4C92.7714 168.4 93.7848 168.767 94.5314 169.5C95.2781 170.233 95.6514 171.247 95.6514 172.54V177.36C95.6514 177.547 95.6914 177.687 95.7714 177.78C95.8514 177.86 95.9781 177.907 96.1514 177.92V179C96.0048 179.013 95.8781 179.027 95.7714 179.04C95.6648 179.053 95.5848 179.053 95.5314 179.04C95.1981 179.027 94.9448 178.92 94.7714 178.72C94.5981 178.52 94.5048 178.307 94.4914 178.08L94.4714 177.32C94.0048 177.92 93.3981 178.387 92.6514 178.72C91.9048 179.04 91.1448 179.2 90.3714 179.2C89.7048 179.2 89.0981 179.06 88.5514 178.78C88.0181 178.487 87.5981 178.1 87.2914 177.62C86.9981 177.127 86.8514 176.587 86.8514 176ZM93.8314 176.8C93.9781 176.613 94.0914 176.433 94.1714 176.26C94.2514 176.087 94.2914 175.933 94.2914 175.8V174.28C93.8381 174.107 93.3648 173.973 92.8714 173.88C92.3914 173.787 91.9048 173.74 91.4114 173.74C90.4381 173.74 89.6514 173.933 89.0514 174.32C88.4514 174.707 88.1514 175.233 88.1514 175.9C88.1514 176.287 88.2514 176.653 88.4514 177C88.6514 177.333 88.9448 177.613 89.3314 177.84C89.7181 178.053 90.1714 178.16 90.6914 178.16C91.3448 178.16 91.9514 178.033 92.5114 177.78C93.0848 177.527 93.5248 177.2 93.8314 176.8Z" fill="#BD00FF"/>
<path d="M76.9683 179V168.58H82.1683C82.7549 168.58 83.2483 168.707 83.6483 168.96C84.0483 169.2 84.3483 169.513 84.5483 169.9C84.7616 170.287 84.8683 170.7 84.8683 171.14C84.8683 171.7 84.7349 172.207 84.4683 172.66C84.2016 173.1 83.8149 173.433 83.3083 173.66C83.9083 173.833 84.3949 174.147 84.7683 174.6C85.1416 175.053 85.3283 175.6 85.3283 176.24C85.3283 176.8 85.1883 177.287 84.9083 177.7C84.6416 178.113 84.2683 178.433 83.7883 178.66C83.3216 178.887 82.7816 179 82.1683 179H76.9683ZM78.2683 178.02H82.1283C82.4749 178.02 82.7883 177.933 83.0683 177.76C83.3616 177.573 83.5883 177.333 83.7483 177.04C83.9216 176.747 84.0083 176.44 84.0083 176.12C84.0083 175.773 83.9283 175.46 83.7683 175.18C83.6083 174.887 83.3949 174.653 83.1283 174.48C82.8616 174.307 82.5549 174.22 82.2083 174.22H78.2683V178.02ZM78.2683 173.28H81.8083C82.1549 173.28 82.4616 173.187 82.7283 173C82.9949 172.813 83.2016 172.573 83.3483 172.28C83.4949 171.987 83.5683 171.68 83.5683 171.36C83.5683 170.88 83.4083 170.46 83.0883 170.1C82.7816 169.74 82.3816 169.56 81.8883 169.56H78.2683V173.28Z" fill="#BD00FF"/>
<path d="M63.4136 179V168.58H64.7736V172.26H67.1336C68.3202 172.26 69.2136 172.567 69.8136 173.18C70.4269 173.78 70.7336 174.573 70.7336 175.56C70.7336 176.2 70.6002 176.78 70.3336 177.3C70.0669 177.82 69.6736 178.233 69.1536 178.54C68.6469 178.847 68.0069 179 67.2336 179H63.4136ZM64.7736 177.92H67.0536C67.6002 177.92 68.0402 177.813 68.3736 177.6C68.7069 177.373 68.9536 177.087 69.1136 176.74C69.2736 176.38 69.3536 175.993 69.3536 175.58C69.3536 175.18 69.2802 174.813 69.1336 174.48C69.0002 174.133 68.7602 173.86 68.4136 173.66C68.0802 173.447 67.6136 173.34 67.0136 173.34H64.7736V177.92ZM72.6336 179V168.6H73.9936V179H72.6336Z" fill="#BD00FF"/>
<path d="M56.4098 179.2C55.5432 179.2 54.7632 178.973 54.0698 178.52C53.3898 178.067 52.8498 177.507 52.4498 176.84V183.26H51.0898V168.58H52.3098V170.6C52.7232 169.947 53.2765 169.42 53.9698 169.02C54.6632 168.607 55.4032 168.4 56.1898 168.4C56.9098 168.4 57.5698 168.553 58.1698 168.86C58.7698 169.153 59.2898 169.553 59.7298 170.06C60.1698 170.567 60.5098 171.147 60.7498 171.8C61.0032 172.44 61.1298 173.107 61.1298 173.8C61.1298 174.773 60.9298 175.673 60.5298 176.5C60.1432 177.313 59.5965 177.967 58.8898 178.46C58.1832 178.953 57.3565 179.2 56.4098 179.2ZM56.0298 178C56.6032 178 57.1165 177.887 57.5698 177.66C58.0232 177.42 58.4098 177.1 58.7298 176.7C59.0632 176.3 59.3165 175.853 59.4898 175.36C59.6632 174.853 59.7498 174.333 59.7498 173.8C59.7498 173.24 59.6498 172.707 59.4498 172.2C59.2632 171.693 58.9898 171.247 58.6298 170.86C58.2698 170.473 57.8565 170.167 57.3898 169.94C56.9232 169.713 56.4165 169.6 55.8698 169.6C55.5232 169.6 55.1632 169.667 54.7898 169.8C54.4165 169.933 54.0565 170.127 53.7098 170.38C53.3765 170.62 53.0965 170.893 52.8698 171.2C52.6432 171.507 52.5032 171.833 52.4498 172.18V175.38C52.6632 175.873 52.9498 176.32 53.3098 176.72C53.6698 177.107 54.0832 177.42 54.5498 177.66C55.0298 177.887 55.5232 178 56.0298 178Z" fill="#BD00FF"/>
<path d="M40.6792 179V168.58H42.0392V173.04H43.5992L47.0992 168.58H48.6592L44.6792 173.64L49.1592 179H47.5592L43.5992 174.3H42.0392V179H40.6792Z" fill="#BD00FF"/>
<path d="M34.2427 179.2C33.4827 179.2 32.7827 179.06 32.1427 178.78C31.516 178.487 30.9627 178.087 30.4827 177.58C30.016 177.073 29.6494 176.493 29.3827 175.84C29.1294 175.187 29.0027 174.493 29.0027 173.76C29.0027 172.773 29.2227 171.873 29.6627 171.06C30.1027 170.247 30.716 169.6 31.5027 169.12C32.2894 168.64 33.196 168.4 34.2227 168.4C35.196 168.4 36.056 168.627 36.8027 169.08C37.5494 169.52 38.1027 170.12 38.4627 170.88L37.1427 171.3C36.8494 170.767 36.436 170.353 35.9027 170.06C35.3827 169.753 34.8027 169.6 34.1627 169.6C33.4694 169.6 32.836 169.78 32.2627 170.14C31.6894 170.5 31.2294 170.993 30.8827 171.62C30.5494 172.247 30.3827 172.96 30.3827 173.76C30.3827 174.547 30.556 175.26 30.9027 175.9C31.2494 176.54 31.7094 177.053 32.2827 177.44C32.856 177.813 33.4894 178 34.1827 178C34.636 178 35.0694 177.92 35.4827 177.76C35.9094 177.6 36.276 177.387 36.5827 177.12C36.9027 176.84 37.116 176.54 37.2227 176.22L38.5627 176.62C38.376 177.113 38.0627 177.56 37.6227 177.96C37.196 178.347 36.6894 178.653 36.1027 178.88C35.5294 179.093 34.9094 179.2 34.2427 179.2Z" fill="#BD00FF"/>
<path d="M17.9843 176C17.9843 175.347 18.1709 174.787 18.5443 174.32C18.9176 173.84 19.4309 173.473 20.0843 173.22C20.7509 172.953 21.5176 172.82 22.3843 172.82C22.8909 172.82 23.4176 172.86 23.9643 172.94C24.5109 173.02 24.9976 173.14 25.4243 173.3V172.42C25.4243 171.54 25.1643 170.84 24.6443 170.32C24.1243 169.8 23.4043 169.54 22.4843 169.54C21.9243 169.54 21.3709 169.647 20.8243 169.86C20.2909 170.06 19.7309 170.36 19.1443 170.76L18.6243 169.8C19.3043 169.333 19.9709 168.987 20.6243 168.76C21.2776 168.52 21.9443 168.4 22.6243 168.4C23.9043 168.4 24.9176 168.767 25.6643 169.5C26.4109 170.233 26.7843 171.247 26.7843 172.54V177.36C26.7843 177.547 26.8243 177.687 26.9043 177.78C26.9843 177.86 27.1109 177.907 27.2843 177.92V179C27.1376 179.013 27.0109 179.027 26.9043 179.04C26.7976 179.053 26.7176 179.053 26.6643 179.04C26.3309 179.027 26.0776 178.92 25.9043 178.72C25.7309 178.52 25.6376 178.307 25.6243 178.08L25.6043 177.32C25.1376 177.92 24.5309 178.387 23.7843 178.72C23.0376 179.04 22.2776 179.2 21.5043 179.2C20.8376 179.2 20.2309 179.06 19.6843 178.78C19.1509 178.487 18.7309 178.1 18.4243 177.62C18.1309 177.127 17.9843 176.587 17.9843 176ZM24.9643 176.8C25.1109 176.613 25.2243 176.433 25.3043 176.26C25.3843 176.087 25.4243 175.933 25.4243 175.8V174.28C24.9709 174.107 24.4976 173.973 24.0043 173.88C23.5243 173.787 23.0376 173.74 22.5443 173.74C21.5709 173.74 20.7843 173.933 20.1843 174.32C19.5843 174.707 19.2843 175.233 19.2843 175.9C19.2843 176.287 19.3843 176.653 19.5843 177C19.7843 177.333 20.0776 177.613 20.4643 177.84C20.8509 178.053 21.3043 178.16 21.8243 178.16C22.4776 178.16 23.0843 178.033 23.6443 177.78C24.2176 177.527 24.6576 177.2 24.9643 176.8Z" fill="#BD00FF"/>
<path d="M6.78003 179V164.8H12.66C13.2734 164.8 13.8334 164.927 14.34 165.18C14.86 165.433 15.3067 165.78 15.68 166.22C16.0534 166.647 16.3467 167.127 16.56 167.66C16.7734 168.18 16.88 168.713 16.88 169.26C16.88 170.033 16.7067 170.767 16.36 171.46C16.0267 172.14 15.5534 172.693 14.94 173.12C14.3267 173.547 13.6067 173.76 12.78 173.76H8.18003V179H6.78003ZM8.18003 172.52H12.72C13.28 172.52 13.7667 172.367 14.18 172.06C14.5934 171.753 14.9134 171.353 15.14 170.86C15.3667 170.367 15.48 169.833 15.48 169.26C15.48 168.673 15.3467 168.133 15.08 167.64C14.8134 167.147 14.46 166.76 14.02 166.48C13.5934 166.187 13.12 166.04 12.6 166.04H8.18003V172.52Z" fill="#BD00FF"/>
</svg>
