<svg width="248" height="23" viewBox="0 0 248 23" fill="none" xmlns="http://www.w3.org/2000/svg">
<path fill-rule="evenodd" clip-rule="evenodd" d="M236.5 0.999999L123.5 0.999998C117.701 0.999998 113 5.70101 113 11.5C113 17.299 117.701 22 123.5 22L236.5 22C242.299 22 247 17.299 247 11.5C247 5.70101 242.299 0.999999 236.5 0.999999ZM112 11.5C112 17.8513 117.149 23 123.5 23L236.5 23C242.851 23 248 17.8513 248 11.5C248 5.14872 242.851 -7.56564e-07 236.5 -8.12421e-07L123.5 -1.80621e-06C117.149 -1.86207e-06 112 5.14872 112 11.5Z" fill="#BD00FF"/>
<path fill-rule="evenodd" clip-rule="evenodd" d="M124.5 0.999999L11.5 0.999998C5.70101 0.999998 1 5.70101 1 11.5C1 17.299 5.70101 22 11.5 22L124.5 22C130.299 22 135 17.299 135 11.5C135 5.70101 130.299 0.999999 124.5 0.999999ZM1.86722e-07 11.5C8.35983e-08 17.8513 5.14873 23 11.5 23L124.5 23C130.851 23 136 17.8513 136 11.5C136 5.14872 130.851 -7.61339e-07 124.5 -8.16964e-07L11.5 -1.80663e-06C5.14873 -1.86226e-06 2.89846e-07 5.14872 1.86722e-07 11.5Z" fill="#BD00FF"/>
<path d="M72.1469 15.0003V7.90027H72.6569V14.5403H76.8969V15.0003H72.1469Z" fill="#BD00FF"/>
<path d="M69.778 15.0003V8.89027L66.988 13.6703H66.648L63.858 8.89027V15.0003H63.348V7.90027H63.858L66.818 12.9803L69.778 7.90027H70.288V15.0003H69.778Z" fill="#BD00FF"/>
<path d="M62.2436 8.36027H59.6436V15.0003H59.1336V8.36027H56.5336V7.90027H62.2436V8.36027Z" fill="#BD00FF"/>
<path d="M55.4301 7.90027V15.0003H54.9201V11.6003H50.4401V15.0003H49.9301V7.90027H50.4401V11.1403H54.9201V7.90027H55.4301Z" fill="#BD00FF"/>
<path d="M195.019 9.08022C194.906 8.95355 194.779 8.84355 194.639 8.75022C194.499 8.65022 194.349 8.57022 194.189 8.51022C194.029 8.44355 193.856 8.39355 193.669 8.36022C193.482 8.32689 193.282 8.31022 193.069 8.31022C192.376 8.31022 191.869 8.44355 191.549 8.71022C191.236 8.97022 191.079 9.32355 191.079 9.77022C191.079 10.0702 191.149 10.3102 191.289 10.4902C191.436 10.6636 191.662 10.8036 191.969 10.9102C192.276 11.0169 192.672 11.1202 193.159 11.2202C193.672 11.3269 194.116 11.4536 194.489 11.6002C194.862 11.7402 195.149 11.9336 195.349 12.1802C195.556 12.4269 195.659 12.7602 195.659 13.1802C195.659 13.4936 195.599 13.7702 195.479 14.0102C195.359 14.2436 195.186 14.4369 194.959 14.5902C194.732 14.7436 194.462 14.8602 194.149 14.9402C193.842 15.0202 193.499 15.0602 193.119 15.0602C192.752 15.0602 192.402 15.0202 192.069 14.9402C191.736 14.8602 191.422 14.7436 191.129 14.5902C190.836 14.4369 190.562 14.2402 190.309 14.0002L190.579 13.5902C190.726 13.7502 190.889 13.8936 191.069 14.0202C191.256 14.1402 191.456 14.2436 191.669 14.3302C191.889 14.4169 192.122 14.4869 192.369 14.5402C192.616 14.5869 192.872 14.6102 193.139 14.6102C193.759 14.6102 194.242 14.4969 194.589 14.2702C194.942 14.0369 195.119 13.6936 195.119 13.2402C195.119 12.9269 195.039 12.6736 194.879 12.4802C194.719 12.2869 194.472 12.1302 194.139 12.0102C193.806 11.8836 193.389 11.7669 192.889 11.6602C192.389 11.5536 191.962 11.4336 191.609 11.3002C191.262 11.1669 190.999 10.9869 190.819 10.7602C190.646 10.5336 190.559 10.2269 190.559 9.84022C190.559 9.41355 190.662 9.05355 190.869 8.76022C191.082 8.46022 191.379 8.23355 191.759 8.08022C192.139 7.92689 192.576 7.85022 193.069 7.85022C193.376 7.85022 193.659 7.88022 193.919 7.94022C194.186 8.00022 194.429 8.09355 194.649 8.22022C194.876 8.34022 195.086 8.49355 195.279 8.68022L195.019 9.08022Z" fill="#BD00FF"/>
<path d="M188.964 9.08022C188.851 8.95355 188.724 8.84355 188.584 8.75022C188.444 8.65022 188.294 8.57022 188.134 8.51022C187.974 8.44355 187.801 8.39355 187.614 8.36022C187.428 8.32689 187.228 8.31022 187.014 8.31022C186.321 8.31022 185.814 8.44355 185.494 8.71022C185.181 8.97022 185.024 9.32355 185.024 9.77022C185.024 10.0702 185.094 10.3102 185.234 10.4902C185.381 10.6636 185.608 10.8036 185.914 10.9102C186.221 11.0169 186.618 11.1202 187.104 11.2202C187.618 11.3269 188.061 11.4536 188.434 11.6002C188.808 11.7402 189.094 11.9336 189.294 12.1802C189.501 12.4269 189.604 12.7602 189.604 13.1802C189.604 13.4936 189.544 13.7702 189.424 14.0102C189.304 14.2436 189.131 14.4369 188.904 14.5902C188.678 14.7436 188.408 14.8602 188.094 14.9402C187.788 15.0202 187.444 15.0602 187.064 15.0602C186.698 15.0602 186.348 15.0202 186.014 14.9402C185.681 14.8602 185.368 14.7436 185.074 14.5902C184.781 14.4369 184.508 14.2402 184.254 14.0002L184.524 13.5902C184.671 13.7502 184.834 13.8936 185.014 14.0202C185.201 14.1402 185.401 14.2436 185.614 14.3302C185.834 14.4169 186.068 14.4869 186.314 14.5402C186.561 14.5869 186.818 14.6102 187.084 14.6102C187.704 14.6102 188.188 14.4969 188.534 14.2702C188.888 14.0369 189.064 13.6936 189.064 13.2402C189.064 12.9269 188.984 12.6736 188.824 12.4802C188.664 12.2869 188.418 12.1302 188.084 12.0102C187.751 11.8836 187.334 11.7669 186.834 11.6602C186.334 11.5536 185.908 11.4336 185.554 11.3002C185.208 11.1669 184.944 10.9869 184.764 10.7602C184.591 10.5336 184.504 10.2269 184.504 9.84022C184.504 9.41355 184.608 9.05355 184.814 8.76022C185.028 8.46022 185.324 8.23355 185.704 8.08022C186.084 7.92689 186.521 7.85022 187.014 7.85022C187.321 7.85022 187.604 7.88022 187.864 7.94022C188.131 8.00022 188.374 8.09355 188.594 8.22022C188.821 8.34022 189.031 8.49355 189.224 8.68022L188.964 9.08022Z" fill="#BD00FF"/>
<path d="M177.44 11.4002C177.44 10.9736 177.513 10.5536 177.66 10.1402C177.813 9.72023 178.033 9.34023 178.32 9.00023C178.607 8.65356 178.957 8.3769 179.37 8.17023C179.79 7.96356 180.267 7.86023 180.8 7.86023C181.433 7.86023 181.973 8.0069 182.42 8.30023C182.867 8.5869 183.2 8.9569 183.42 9.41023L183 9.65023C182.833 9.32356 182.627 9.06356 182.38 8.87023C182.14 8.6769 181.88 8.54023 181.6 8.46023C181.32 8.37356 181.04 8.33023 180.76 8.33023C180.313 8.33023 179.913 8.42023 179.56 8.60023C179.213 8.78023 178.92 9.02023 178.68 9.32023C178.44 9.62023 178.257 9.95356 178.13 10.3202C178.01 10.6869 177.95 11.0569 177.95 11.4302C177.95 11.8502 178.023 12.2502 178.17 12.6302C178.317 13.0036 178.517 13.3369 178.77 13.6302C179.03 13.9236 179.33 14.1569 179.67 14.3302C180.017 14.5036 180.39 14.5902 180.79 14.5902C181.077 14.5902 181.367 14.5436 181.66 14.4502C181.96 14.3502 182.24 14.2002 182.5 14.0002C182.76 13.7936 182.97 13.5269 183.13 13.2002L183.57 13.4102C183.417 13.7636 183.187 14.0636 182.88 14.3102C182.573 14.5569 182.233 14.7436 181.86 14.8702C181.487 14.9969 181.117 15.0602 180.75 15.0602C180.27 15.0602 179.827 14.9569 179.42 14.7502C179.013 14.5369 178.66 14.2569 178.36 13.9102C178.067 13.5569 177.84 13.1636 177.68 12.7302C177.52 12.2902 177.44 11.8469 177.44 11.4002Z" fill="#BD00FF"/>
</svg>
