<svg width="569" height="27" viewBox="0 0 569 27" fill="none" xmlns="http://www.w3.org/2000/svg">
<path fill-rule="evenodd" clip-rule="evenodd" d="M294 14L0 14L0 13L294 13V14Z" fill="#BD00FF"/>
<path fill-rule="evenodd" clip-rule="evenodd" d="M544 13.3993V13.399C550.774 13.3989 556.265 7.90757 556.265 1.13364V2.09808e-05H556.265V1.13364C556.265 7.90758 561.757 13.3989 568.531 13.399V13.3993C561.757 13.3994 556.265 18.8908 556.265 25.6647V26.7983H556.265V25.6647C556.265 18.8908 550.774 13.3994 544 13.3993Z" fill="#BD00FF"/>
<path d="M543.092 8.03998H539.192V18H538.427V8.03998H534.527V7.34998H543.092V8.03998Z" fill="#BD00FF"/>
<path d="M529.9 7.34998H530.56L535.06 18H534.25L532.765 14.49H527.68L526.195 18H525.37L529.9 7.34998ZM532.555 13.86L530.23 8.27998L527.86 13.86H532.555Z" fill="#BD00FF"/>
<path d="M517.268 18V7.34998H518.033V12.21H519.818L523.613 7.34998H524.513L520.463 12.525L524.738 18H523.793L519.848 12.915H518.033V18H517.268Z" fill="#BD00FF"/>
<path d="M510.491 7.34998H511.151L515.651 18H514.841L513.356 14.49H508.271L506.786 18H505.961L510.491 7.34998ZM513.146 13.86L510.821 8.27998L508.451 13.86H513.146Z" fill="#BD00FF"/>
<path d="M503.611 18V8.03998H498.916L498.856 10.41C498.816 11.9 498.716 13.135 498.556 14.115C498.406 15.095 498.191 15.87 497.911 16.44C497.641 17.01 497.306 17.415 496.906 17.655C496.506 17.885 496.041 18 495.511 18V17.31C495.901 17.31 496.251 17.205 496.561 16.995C496.871 16.775 497.131 16.405 497.341 15.885C497.561 15.365 497.736 14.65 497.866 13.74C497.996 12.82 498.081 11.66 498.121 10.26L498.211 7.34998H504.376V18H503.611Z" fill="#BD00FF"/>
<path d="M485.642 18V7.34998H493.502V18H492.737V8.03998H486.407V18H485.642Z" fill="#BD00FF"/>
<path d="M478.924 14.265V13.575H483.244V14.265H478.924Z" fill="#BD00FF"/>
<path d="M477.227 15.24C477.227 15.76 477.097 16.23 476.837 16.65C476.587 17.06 476.242 17.39 475.802 17.64C475.372 17.88 474.892 18 474.362 18H469.382V7.34998H474.347C474.847 7.34998 475.277 7.48498 475.637 7.75498C476.007 8.01498 476.287 8.35498 476.477 8.77498C476.677 9.18498 476.777 9.61498 476.777 10.065C476.777 10.595 476.642 11.09 476.372 11.55C476.102 12 475.727 12.33 475.247 12.54C475.857 12.72 476.337 13.06 476.687 13.56C477.047 14.05 477.227 14.61 477.227 15.24ZM476.462 15.135C476.462 14.755 476.372 14.4 476.192 14.07C476.022 13.74 475.787 13.47 475.487 13.26C475.187 13.05 474.847 12.945 474.467 12.945H470.147V17.31H474.362C474.752 17.31 475.107 17.21 475.427 17.01C475.747 16.8 475.997 16.53 476.177 16.2C476.367 15.86 476.462 15.505 476.462 15.135ZM470.147 8.03998V12.3H474.047C474.437 12.3 474.777 12.2 475.067 12C475.367 11.79 475.602 11.525 475.772 11.205C475.942 10.875 476.027 10.53 476.027 10.17C476.027 9.77998 475.947 9.42498 475.787 9.10498C475.627 8.78498 475.402 8.52998 475.112 8.33998C474.832 8.13998 474.507 8.03998 474.137 8.03998H470.147Z" fill="#BD00FF"/>
<path d="M467.293 17.31V18H460.198V7.34998H467.158V8.03998H460.963V12.225H466.378V12.885H460.963V17.31H467.293Z" fill="#BD00FF"/>
<path d="M448.633 7.42498H449.383L450.973 11.295L452.563 7.42498H453.313L451.438 11.91L453.673 17.1L457.753 7.34998H458.593L454.033 18H453.328L450.988 12.525L448.633 18H447.928L443.383 7.34998H444.208L448.303 17.1L450.508 11.91L448.633 7.42498Z" fill="#BD00FF"/>
<path d="M429.407 18V7.35H430.172V16.95L437.162 7.35H437.882V18H437.117V8.55L430.202 18H429.407ZM433.667 6.36C433.197 6.36 432.802 6.295 432.482 6.165C432.172 6.025 431.937 5.845 431.777 5.625C431.617 5.395 431.532 5.145 431.522 4.875H432.152C432.182 5.125 432.302 5.355 432.512 5.565C432.722 5.775 433.107 5.88 433.667 5.88C434.207 5.88 434.587 5.785 434.807 5.595C435.027 5.395 435.147 5.155 435.167 4.875H435.797C435.777 5.145 435.687 5.395 435.527 5.625C435.367 5.845 435.132 6.025 434.822 6.165C434.512 6.295 434.127 6.36 433.667 6.36Z" fill="#BD00FF"/>
<path d="M416.897 18V7.34998H417.662V11.58H420.497C421.267 11.58 421.902 11.715 422.402 11.985C422.902 12.255 423.277 12.63 423.527 13.11C423.777 13.59 423.902 14.15 423.902 14.79C423.902 15.37 423.777 15.905 423.527 16.395C423.287 16.875 422.917 17.265 422.417 17.565C421.927 17.855 421.312 18 420.572 18H416.897ZM417.662 17.34H420.482C421.112 17.34 421.622 17.22 422.012 16.98C422.402 16.73 422.682 16.41 422.852 16.02C423.032 15.63 423.122 15.22 423.122 14.79C423.122 14.35 423.042 13.935 422.882 13.545C422.732 13.155 422.462 12.84 422.072 12.6C421.682 12.36 421.142 12.24 420.452 12.24H417.662V17.34ZM425.822 18V7.36498H426.587V18H425.822Z" fill="#BD00FF"/>
<path d="M414.117 7.34998V18H413.352V12.9H406.632V18H405.867V7.34998H406.632V12.21H413.352V7.34998H414.117Z" fill="#BD00FF"/>
<path d="M403.086 7.34998V18H402.321V12.9H395.601V18H394.836V7.34998H395.601V12.21H402.321V7.34998H403.086Z" fill="#BD00FF"/>
<path d="M388.059 7.34998H388.719L393.219 18H392.409L390.924 14.49H385.839L384.354 18H383.529L388.059 7.34998ZM390.714 13.86L388.389 8.27998L386.019 13.86H390.714Z" fill="#BD00FF"/>
<path d="M382.847 15.24C382.847 15.76 382.717 16.23 382.457 16.65C382.207 17.06 381.862 17.39 381.422 17.64C380.992 17.88 380.512 18 379.982 18H375.002V7.34998H379.967C380.467 7.34998 380.897 7.48498 381.257 7.75498C381.627 8.01498 381.907 8.35498 382.097 8.77498C382.297 9.18498 382.397 9.61498 382.397 10.065C382.397 10.595 382.262 11.09 381.992 11.55C381.722 12 381.347 12.33 380.867 12.54C381.477 12.72 381.957 13.06 382.307 13.56C382.667 14.05 382.847 14.61 382.847 15.24ZM382.082 15.135C382.082 14.755 381.992 14.4 381.812 14.07C381.642 13.74 381.407 13.47 381.107 13.26C380.807 13.05 380.467 12.945 380.087 12.945H375.767V17.31H379.982C380.372 17.31 380.727 17.21 381.047 17.01C381.367 16.8 381.617 16.53 381.797 16.2C381.987 15.86 382.082 15.505 382.082 15.135ZM375.767 8.03998V12.3H379.667C380.057 12.3 380.397 12.2 380.687 12C380.987 11.79 381.222 11.525 381.392 11.205C381.562 10.875 381.647 10.53 381.647 10.17C381.647 9.77998 381.567 9.42498 381.407 9.10498C381.247 8.78498 381.022 8.52998 380.732 8.33998C380.452 8.13998 380.127 8.03998 379.757 8.03998H375.767Z" fill="#BD00FF"/>
<path d="M367.954 18.075C367.214 18.075 366.539 17.925 365.929 17.625C365.319 17.315 364.794 16.905 364.354 16.395C363.914 15.885 363.574 15.31 363.334 14.67C363.094 14.02 362.974 13.355 362.974 12.675C362.974 11.965 363.099 11.29 363.349 10.65C363.599 10 363.949 9.42502 364.399 8.92502C364.859 8.41502 365.389 8.01502 365.989 7.72502C366.599 7.42502 367.259 7.27502 367.969 7.27502C368.719 7.27502 369.394 7.43002 369.994 7.74002C370.604 8.05002 371.129 8.46502 371.569 8.98502C372.009 9.50502 372.349 10.085 372.589 10.725C372.829 11.365 372.949 12.015 372.949 12.675C372.949 13.395 372.824 14.08 372.574 14.73C372.324 15.37 371.969 15.945 371.509 16.455C371.059 16.955 370.529 17.35 369.919 17.64C369.319 17.93 368.664 18.075 367.954 18.075ZM363.739 12.675C363.739 13.285 363.844 13.87 364.054 14.43C364.264 14.99 364.554 15.49 364.924 15.93C365.304 16.37 365.749 16.72 366.259 16.98C366.779 17.24 367.349 17.37 367.969 17.37C368.599 17.37 369.174 17.235 369.694 16.965C370.214 16.695 370.659 16.335 371.029 15.885C371.399 15.435 371.679 14.935 371.869 14.385C372.069 13.825 372.169 13.255 372.169 12.675C372.169 12.065 372.064 11.48 371.854 10.92C371.654 10.36 371.364 9.86002 370.984 9.42002C370.604 8.98002 370.154 8.63002 369.634 8.37002C369.124 8.11002 368.569 7.98002 367.969 7.98002C367.329 7.98002 366.749 8.11502 366.229 8.38502C365.709 8.65502 365.264 9.01502 364.894 9.46502C364.534 9.91502 364.249 10.42 364.039 10.98C363.839 11.53 363.739 12.095 363.739 12.675Z" fill="#BD00FF"/>
<path d="M354.392 18V7.34998H358.772C359.222 7.34998 359.632 7.44498 360.002 7.63498C360.382 7.82498 360.712 8.07998 360.992 8.39998C361.272 8.70998 361.487 9.05998 361.637 9.44998C361.797 9.83998 361.877 10.24 361.877 10.65C361.877 11.22 361.747 11.76 361.487 12.27C361.237 12.77 360.887 13.18 360.437 13.5C359.997 13.82 359.472 13.98 358.862 13.98H355.157V18H354.392ZM355.157 13.275H358.832C359.302 13.275 359.707 13.15 360.047 12.9C360.387 12.65 360.647 12.325 360.827 11.925C361.007 11.525 361.097 11.1 361.097 10.65C361.097 10.18 360.987 9.74998 360.767 9.35998C360.557 8.95998 360.272 8.63998 359.912 8.39998C359.562 8.15998 359.172 8.03998 358.742 8.03998H355.157V13.275Z" fill="#BD00FF"/>
<path d="M343.099 18V7.34998H343.864V16.95L350.854 7.34998H351.574V18H350.809V8.54998L343.894 18H343.099Z" fill="#BD00FF"/>
<path d="M339.516 18V8.83498L335.331 16.005H334.821L330.636 8.83498V18H329.871V7.34998H330.636L335.076 14.97L339.516 7.34998H340.281V18H339.516Z" fill="#BD00FF"/>
<path d="M318.577 18V7.34998H319.342V16.95L326.332 7.34998H327.052V18H326.287V8.54998L319.372 18H318.577Z" fill="#BD00FF"/>
<path d="M315.767 7.34998V18H315.002V12.9H308.282V18H307.517V7.34998H308.282V12.21H315.002V7.34998H315.767Z" fill="#BD00FF"/>
<path d="M300.74 7.34998H301.4L305.9 18H305.09L303.605 14.49H298.52L297.035 18H296.21L300.74 7.34998ZM303.395 13.86L301.07 8.27998L298.7 13.86H303.395Z" fill="#BD00FF"/>
</svg>
