<svg width="23" height="131" viewBox="0 0 23 131" fill="none" xmlns="http://www.w3.org/2000/svg">
<path fill-rule="evenodd" clip-rule="evenodd" d="M22 41.5L22 11.5C22 5.70101 17.299 1 11.5 1C5.70101 1 1 5.70101 0.999999 11.5L0.999998 41.5C0.999998 47.299 5.70101 52 11.5 52C17.299 52 22 47.299 22 41.5ZM11.5 6.89403e-07C5.14873 3.08656e-07 -2.70151e-07 5.14872 -6.03399e-07 11.5L-2.17748e-06 41.5C-2.51073e-06 47.8513 5.14872 53 11.5 53C17.8513 53 23 47.8513 23 41.5L23 11.5C23 5.14873 17.8513 1.07015e-06 11.5 6.89403e-07Z" fill="#BD00FF"/>
<path fill-rule="evenodd" clip-rule="evenodd" d="M22 72.5L22 42.5C22 36.701 17.299 32 11.5 32C5.70101 32 1 36.701 0.999999 42.5L0.999998 72.5C0.999998 78.299 5.70101 83 11.5 83C17.299 83 22 78.299 22 72.5ZM11.5 31C5.14873 31 -2.70151e-07 36.1487 -6.03399e-07 42.5L-2.17748e-06 72.5C-2.51073e-06 78.8513 5.14872 84 11.5 84C17.8513 84 23 78.8513 23 72.5L23 42.5C23 36.1487 17.8513 31 11.5 31Z" fill="#BD00FF"/>
<path fill-rule="evenodd" clip-rule="evenodd" d="M22 119.5L22 101.5C22 95.701 17.299 91 11.5 91C5.70101 91 1 95.701 0.999999 101.5L0.999998 119.5C0.999998 125.299 5.70101 130 11.5 130C17.299 130 22 125.299 22 119.5ZM11.5 90C5.14873 90 -2.70151e-07 95.1487 -6.03399e-07 101.5L-1.54785e-06 119.5C-1.8811e-06 125.851 5.14872 131 11.5 131C17.8513 131 23 125.851 23 119.5L23 101.5C23 95.1487 17.8513 90 11.5 90Z" fill="#BD00FF"/>
<path d="M7.99998 119.147L15.1 119.147L15.1 119.657L8.45998 119.657L8.45998 123.897L7.99997 123.897L7.99998 119.147Z" fill="#BD00FF"/>
<path d="M7.99997 116.778L14.11 116.778L9.32997 113.988L9.32997 113.648L14.11 110.858L7.99998 110.858L7.99998 110.348L15.1 110.348L15.1 110.858L10.02 113.818L15.1 116.778L15.1 117.288L7.99997 117.288L7.99997 116.778Z" fill="#BD00FF"/>
<path d="M14.64 109.244L14.64 106.644L7.99998 106.644L7.99998 106.134L14.64 106.134L14.64 103.534L15.1 103.534L15.1 109.244L14.64 109.244Z" fill="#BD00FF"/>
<path d="M15.1 102.43L7.99997 102.43L7.99997 101.92L11.4 101.92L11.4 97.4401L7.99998 97.4401L7.99998 96.9301L15.1 96.9301L15.1 97.4401L11.86 97.4401L11.86 101.92L15.1 101.92L15.1 102.43Z" fill="#BD00FF"/>
<path d="M13.92 25.019C14.0467 24.9056 14.1567 24.779 14.25 24.639C14.35 24.499 14.43 24.349 14.49 24.189C14.5567 24.029 14.6067 23.8556 14.64 23.669C14.6734 23.4823 14.69 23.2823 14.69 23.069C14.69 22.3756 14.5567 21.869 14.29 21.549C14.03 21.2356 13.6767 21.079 13.23 21.079C12.93 21.079 12.69 21.149 12.51 21.289C12.3367 21.4356 12.1967 21.6623 12.09 21.969C11.9834 22.2756 11.88 22.6723 11.78 23.159C11.6734 23.6723 11.5467 24.1156 11.4 24.489C11.26 24.8623 11.0667 25.149 10.82 25.349C10.5734 25.5556 10.24 25.659 9.82002 25.659C9.50669 25.659 9.23002 25.599 8.99002 25.479C8.75669 25.359 8.56336 25.1856 8.41002 24.959C8.25669 24.7323 8.14002 24.4623 8.06002 24.149C7.98002 23.8423 7.94002 23.499 7.94002 23.119C7.94002 22.7523 7.98002 22.4023 8.06002 22.069C8.14002 21.7356 8.25669 21.4223 8.41002 21.129C8.56336 20.8356 8.76002 20.5623 9.00002 20.309L9.41002 20.579C9.25002 20.7256 9.10669 20.889 8.98002 21.069C8.86002 21.2556 8.75669 21.4556 8.67002 21.669C8.58336 21.889 8.51336 22.1223 8.46002 22.369C8.41336 22.6156 8.39002 22.8723 8.39002 23.139C8.39002 23.759 8.50336 24.2423 8.73002 24.589C8.96336 24.9423 9.30669 25.119 9.76002 25.119C10.0734 25.119 10.3267 25.039 10.52 24.879C10.7134 24.719 10.87 24.4723 10.99 24.139C11.1167 23.8056 11.2334 23.389 11.34 22.889C11.4467 22.389 11.5667 21.9623 11.7 21.609C11.8334 21.2623 12.0134 20.999 12.24 20.819C12.4667 20.6456 12.7734 20.559 13.16 20.559C13.5867 20.559 13.9467 20.6623 14.24 20.869C14.54 21.0823 14.7667 21.379 14.92 21.759C15.0734 22.139 15.15 22.5756 15.15 23.069C15.15 23.3756 15.12 23.659 15.06 23.919C15 24.1856 14.9067 24.429 14.78 24.649C14.66 24.8756 14.5067 25.0856 14.32 25.279L13.92 25.019Z" fill="#BD00FF"/>
<path d="M13.92 18.9643C14.0467 18.8509 14.1567 18.7243 14.25 18.5843C14.35 18.4443 14.43 18.2943 14.49 18.1343C14.5567 17.9743 14.6067 17.8009 14.64 17.6143C14.6734 17.4276 14.69 17.2276 14.69 17.0143C14.69 16.3209 14.5567 15.8143 14.29 15.4943C14.03 15.1809 13.6767 15.0243 13.23 15.0243C12.93 15.0243 12.69 15.0943 12.51 15.2343C12.3367 15.3809 12.1967 15.6076 12.09 15.9143C11.9834 16.2209 11.88 16.6176 11.78 17.1043C11.6734 17.6176 11.5467 18.0609 11.4 18.4343C11.26 18.8076 11.0667 19.0943 10.82 19.2943C10.5734 19.5009 10.24 19.6043 9.82002 19.6043C9.50669 19.6043 9.23002 19.5443 8.99002 19.4243C8.75669 19.3043 8.56336 19.1309 8.41002 18.9043C8.25669 18.6776 8.14002 18.4076 8.06002 18.0943C7.98002 17.7876 7.94002 17.4443 7.94002 17.0643C7.94002 16.6976 7.98002 16.3476 8.06002 16.0143C8.14002 15.6809 8.25669 15.3676 8.41002 15.0743C8.56336 14.7809 8.76002 14.5076 9.00002 14.2543L9.41002 14.5243C9.25002 14.6709 9.10669 14.8343 8.98002 15.0143C8.86002 15.2009 8.75669 15.4009 8.67002 15.6143C8.58336 15.8343 8.51336 16.0676 8.46002 16.3143C8.41336 16.5609 8.39002 16.8176 8.39002 17.0843C8.39002 17.7043 8.50336 18.1876 8.73002 18.5343C8.96336 18.8876 9.30669 19.0643 9.76002 19.0643C10.0734 19.0643 10.3267 18.9843 10.52 18.8243C10.7134 18.6643 10.87 18.4176 10.99 18.0843C11.1167 17.7509 11.2334 17.3343 11.34 16.8343C11.4467 16.3343 11.5667 15.9076 11.7 15.5543C11.8334 15.2076 12.0134 14.9443 12.24 14.7643C12.4667 14.5909 12.7734 14.5043 13.16 14.5043C13.5867 14.5043 13.9467 14.6076 14.24 14.8143C14.54 15.0276 14.7667 15.3243 14.92 15.7043C15.0734 16.0843 15.15 16.5209 15.15 17.0143C15.15 17.3209 15.12 17.6043 15.06 17.8643C15 18.1309 14.9067 18.3743 14.78 18.5943C14.66 18.8209 14.5067 19.0309 14.32 19.2243L13.92 18.9643Z" fill="#BD00FF"/>
<path d="M11.6 7.43994C12.0267 7.43994 12.4467 7.51327 12.86 7.65994C13.28 7.81327 13.66 8.03327 14 8.31994C14.3467 8.60661 14.6233 8.95661 14.83 9.36994C15.0367 9.78994 15.14 10.2666 15.14 10.7999C15.14 11.4333 14.9933 11.9733 14.7 12.4199C14.4133 12.8666 14.0433 13.1999 13.59 13.4199L13.35 12.9999C13.6767 12.8333 13.9367 12.6266 14.13 12.3799C14.3233 12.1399 14.46 11.8799 14.54 11.5999C14.6267 11.3199 14.67 11.0399 14.67 10.7599C14.67 10.3133 14.58 9.91327 14.4 9.55994C14.22 9.21327 13.98 8.91994 13.68 8.67994C13.38 8.43994 13.0467 8.25661 12.68 8.12994C12.3133 8.00994 11.9433 7.94994 11.57 7.94994C11.15 7.94994 10.75 8.02327 10.37 8.16994C9.99668 8.31661 9.66335 8.51661 9.37001 8.76994C9.07668 9.02994 8.84335 9.32994 8.67001 9.66994C8.49668 10.0166 8.41001 10.3899 8.41001 10.7899C8.41001 11.0766 8.45668 11.3666 8.55001 11.6599C8.65001 11.9599 8.80001 12.2399 9.00001 12.4999C9.20668 12.7599 9.47335 12.9699 9.80001 13.1299L9.59001 13.5699C9.23668 13.4166 8.93668 13.1866 8.69001 12.8799C8.44335 12.5733 8.25668 12.2333 8.13001 11.8599C8.00335 11.4866 7.94001 11.1166 7.94001 10.7499C7.94001 10.2699 8.04335 9.82661 8.25001 9.41994C8.46335 9.01327 8.74335 8.65994 9.09001 8.35994C9.44335 8.06661 9.83668 7.83994 10.27 7.67994C10.71 7.51994 11.1533 7.43994 11.6 7.43994Z" fill="#BD00FF"/>
<path d="M13.92 68.8354C14.0467 68.722 14.1567 68.5954 14.25 68.4554C14.35 68.3154 14.43 68.1654 14.49 68.0054C14.5567 67.8454 14.6067 67.672 14.64 67.4854C14.6734 67.2987 14.69 67.0987 14.69 66.8854C14.69 66.192 14.5567 65.6854 14.29 65.3654C14.03 65.052 13.6767 64.8954 13.23 64.8954C12.93 64.8954 12.69 64.9654 12.51 65.1054C12.3367 65.252 12.1967 65.4787 12.09 65.7854C11.9834 66.092 11.88 66.4887 11.78 66.9754C11.6734 67.4887 11.5467 67.932 11.4 68.3054C11.26 68.6787 11.0667 68.9654 10.82 69.1654C10.5734 69.372 10.24 69.4754 9.82002 69.4754C9.50669 69.4754 9.23002 69.4154 8.99002 69.2954C8.75669 69.1754 8.56336 69.002 8.41002 68.7754C8.25669 68.5487 8.14002 68.2787 8.06002 67.9654C7.98002 67.6587 7.94002 67.3154 7.94002 66.9354C7.94002 66.5687 7.98002 66.2187 8.06002 65.8854C8.14002 65.552 8.25669 65.2387 8.41002 64.9454C8.56336 64.652 8.76002 64.3787 9.00002 64.1254L9.41002 64.3954C9.25002 64.542 9.10669 64.7054 8.98002 64.8854C8.86002 65.072 8.75669 65.272 8.67002 65.4854C8.58336 65.7054 8.51336 65.9387 8.46002 66.1854C8.41336 66.432 8.39002 66.6887 8.39002 66.9554C8.39002 67.5754 8.50336 68.0587 8.73002 68.4054C8.96336 68.7587 9.30669 68.9354 9.76002 68.9354C10.0734 68.9354 10.3267 68.8554 10.52 68.6954C10.7134 68.5354 10.87 68.2887 10.99 67.9554C11.1167 67.622 11.2334 67.2054 11.34 66.7054C11.4467 66.2054 11.5667 65.7787 11.7 65.4254C11.8334 65.0787 12.0134 64.8154 12.24 64.6354C12.4667 64.462 12.7734 64.3754 13.16 64.3754C13.5867 64.3754 13.9467 64.4787 14.24 64.6854C14.54 64.8987 14.7667 65.1954 14.92 65.5754C15.0734 65.9554 15.15 66.392 15.15 66.8854C15.15 67.192 15.12 67.4754 15.06 67.7354C15 68.002 14.9067 68.2454 14.78 68.4654C14.66 68.692 14.5067 68.902 14.32 69.0954L13.92 68.8354Z" fill="#BD00FF"/>
<path d="M8.73997 59.32C8.63331 59.4867 8.54331 59.6834 8.46998 59.91C8.39664 60.1434 8.35997 60.4067 8.35997 60.7C8.35997 61.08 8.42331 61.3834 8.54998 61.61C8.68331 61.8434 8.87998 62.0167 9.13998 62.13C9.39998 62.25 9.71664 62.33 10.09 62.37C10.47 62.41 10.9066 62.43 11.4 62.43L15.1 62.43L15.1 62.94L11.49 62.94C10.9566 62.94 10.47 62.9134 10.03 62.86C9.58998 62.8134 9.20664 62.7167 8.87998 62.57C8.55998 62.4234 8.31331 62.2 8.13998 61.9C7.97331 61.6067 7.88998 61.2134 7.88998 60.72C7.88998 60.4 7.92664 60.1134 7.99998 59.86C8.07331 59.6067 8.18331 59.3734 8.32998 59.16L8.73997 59.32Z" fill="#BD00FF"/>
</svg>
