<svg width="293" height="185" viewBox="0 0 293 185" fill="none" xmlns="http://www.w3.org/2000/svg">
<path fill-rule="evenodd" clip-rule="evenodd" d="M268 171.399V171.399C274.774 171.399 280.265 165.908 280.265 159.134V158H280.266V159.134C280.266 165.908 285.757 171.399 292.531 171.399V171.399C285.757 171.399 280.266 176.891 280.266 183.665V184.798H280.265V183.665C280.265 176.891 274.774 171.399 268 171.399Z" fill="#BD00FF"/>
<path fill-rule="evenodd" clip-rule="evenodd" d="M165.5 0.999999L88.5 0.999998C82.701 0.999998 78 5.70101 78 11.5C78 17.299 82.701 22 88.5 22L165.5 22C171.299 22 176 17.299 176 11.5C176 5.70101 171.299 0.999999 165.5 0.999999ZM77 11.5C77 17.8513 82.1487 23 88.5 23L165.5 23C171.851 23 177 17.8513 177 11.5C177 5.14872 171.851 -7.76259e-07 165.5 -8.51997e-07L88.5 -1.77021e-06C82.1487 -1.84595e-06 77 5.14872 77 11.5Z" fill="#BD00FF"/>
<path fill-rule="evenodd" clip-rule="evenodd" d="M88.5 0.999999L11.5 0.999998C5.70101 0.999998 1 5.70101 1 11.5C1 17.299 5.70101 22 11.5 22L88.5 22C94.299 22 99 17.299 99 11.5C99 5.70101 94.299 0.999999 88.5 0.999999ZM1.37136e-07 11.5C6.13979e-08 17.8513 5.14873 23 11.5 23L88.5 23C94.8513 23 100 17.8513 100 11.5C100 5.14872 94.8513 -7.76259e-07 88.5 -8.51997e-07L11.5 -1.77021e-06C5.14873 -1.84595e-06 2.12874e-07 5.14872 1.37136e-07 11.5Z" fill="#BD00FF"/>
<path fill-rule="evenodd" clip-rule="evenodd" d="M192 172L20 172V171L192 171V172Z" fill="#BD00FF"/>
<path d="M262.489 177V166.35H268.399V167.04H263.254V177H262.489Z" fill="#BD00FF"/>
<path d="M259.708 166.35V177H258.943V171.9H252.223V177H251.458V166.35H252.223V171.21H258.943V166.35H259.708Z" fill="#BD00FF"/>
<path d="M240.165 177V166.35H240.93V175.95L247.92 166.35H248.64V177H247.875V167.55L240.96 177H240.165Z" fill="#BD00FF"/>
<path d="M228.223 179.04V176.31H228.628C228.918 176.31 229.173 176.195 229.393 175.965C229.613 175.725 229.803 175.34 229.963 174.81C230.123 174.28 230.248 173.565 230.338 172.665C230.438 171.755 230.508 170.62 230.548 169.26L230.623 166.35H236.788V176.31H238.048V179.04H237.343V177H228.913V179.04H228.223ZM229.873 176.31H236.023V167.04H231.328L231.268 169.335C231.238 170.775 231.168 171.97 231.058 172.92C230.948 173.87 230.793 174.62 230.593 175.17C230.403 175.71 230.163 176.09 229.873 176.31Z" fill="#BD00FF"/>
<path d="M226.222 166.35V177H225.457V171.9H218.737V177H217.972V166.35H218.737V171.21H225.457V166.35H226.222Z" fill="#BD00FF"/>
<path d="M210.88 177.09C210.3 177.09 209.73 176.995 209.17 176.805C208.62 176.605 208.12 176.32 207.67 175.95C207.22 175.58 206.87 175.135 206.62 174.615L207.28 174.3C207.53 174.77 207.845 175.16 208.225 175.47C208.615 175.78 209.035 176.01 209.485 176.16C209.935 176.31 210.385 176.385 210.835 176.385C211.445 176.385 212.01 176.26 212.53 176.01C213.06 175.75 213.52 175.4 213.91 174.96C214.3 174.51 214.6 174 214.81 173.43C215.02 172.86 215.12 172.265 215.11 171.645L215.455 171.885H209.815V171.225H215.44L215.11 171.45C215.1 170.9 214.995 170.36 214.795 169.83C214.605 169.3 214.325 168.825 213.955 168.405C213.595 167.975 213.155 167.635 212.635 167.385C212.115 167.125 211.525 166.995 210.865 166.995C210.435 166.995 210.005 167.06 209.575 167.19C209.155 167.32 208.765 167.535 208.405 167.835C208.045 168.125 207.735 168.505 207.475 168.975L206.83 168.615C207.18 167.935 207.69 167.38 208.36 166.95C209.03 166.51 209.85 166.29 210.82 166.29C211.63 166.29 212.35 166.445 212.98 166.755C213.61 167.065 214.14 167.475 214.57 167.985C215.01 168.495 215.34 169.065 215.56 169.695C215.79 170.325 215.905 170.965 215.905 171.615C215.905 172.305 215.785 172.975 215.545 173.625C215.305 174.275 214.96 174.86 214.51 175.38C214.06 175.9 213.525 176.315 212.905 176.625C212.295 176.935 211.62 177.09 210.88 177.09Z" fill="#BD00FF"/>
<path d="M203.715 177V167.04H199.02L198.96 169.41C198.92 170.9 198.82 172.135 198.66 173.115C198.51 174.095 198.295 174.87 198.015 175.44C197.745 176.01 197.41 176.415 197.01 176.655C196.61 176.885 196.145 177 195.615 177V176.31C196.005 176.31 196.355 176.205 196.665 175.995C196.975 175.775 197.235 175.405 197.445 174.885C197.665 174.365 197.84 173.65 197.97 172.74C198.1 171.82 198.185 170.66 198.225 169.26L198.315 166.35H204.48V177H203.715Z" fill="#BD00FF"/>
<path d="M138.147 15V7.89999H138.657V14.54H142.897V15H138.147Z" fill="#BD00FF"/>
<path d="M135.778 15V8.88999L132.988 13.67H132.648L129.858 8.88999V15H129.348V7.89999H129.858L132.818 12.98L135.778 7.89999H136.288V15H135.778Z" fill="#BD00FF"/>
<path d="M128.244 8.35999H125.644V15H125.134V8.35999H122.534V7.89999H128.244V8.35999Z" fill="#BD00FF"/>
<path d="M121.43 7.89999V15H120.92V11.6H116.44V15H115.93V7.89999H116.44V11.14H120.92V7.89999H121.43Z" fill="#BD00FF"/>
<path d="M67.9453 7.89999L70.4253 11.83L72.9153 7.89999H73.4853L70.6853 12.32V15H70.1753V12.3L67.3853 7.89999H67.9453Z" fill="#BD00FF"/>
<path d="M66.272 7.89999V15H65.762V11.6H61.282V15H60.772V7.89999H61.282V11.14H65.762V7.89999H66.272Z" fill="#BD00FF"/>
<path d="M54.561 15V7.89999H57.481C57.781 7.89999 58.0544 7.96333 58.301 8.08999C58.5544 8.21666 58.7744 8.38666 58.961 8.59999C59.1477 8.80666 59.291 9.03999 59.391 9.29999C59.4977 9.55999 59.551 9.82666 59.551 10.1C59.551 10.48 59.4644 10.84 59.291 11.18C59.1244 11.5133 58.891 11.7867 58.591 12C58.2977 12.2133 57.9477 12.32 57.541 12.32H55.071V15H54.561ZM55.071 11.85H57.521C57.8344 11.85 58.1044 11.7667 58.331 11.6C58.5577 11.4333 58.731 11.2167 58.851 10.95C58.971 10.6833 59.031 10.4 59.031 10.1C59.031 9.78666 58.9577 9.49999 58.811 9.23999C58.671 8.97333 58.481 8.75999 58.241 8.59999C58.0077 8.43999 57.7477 8.35999 57.461 8.35999H55.071V11.85Z" fill="#BD00FF"/>
<path d="M50.0429 7.89999H50.4829L53.4829 15H52.943L51.9529 12.66H48.563L47.5729 15H47.0229L50.0429 7.89999ZM51.813 12.24L50.263 8.51999L48.6829 12.24H51.813Z" fill="#BD00FF"/>
<path d="M41.3774 15V7.89999H44.3274C44.6341 7.89999 44.9108 7.96333 45.1574 8.08999C45.4108 8.21666 45.6274 8.38666 45.8074 8.59999C45.9941 8.80666 46.1374 9.03999 46.2374 9.29999C46.3441 9.55999 46.3974 9.82666 46.3974 10.1C46.3974 10.4533 46.3274 10.7833 46.1874 11.09C46.0474 11.3967 45.8508 11.6533 45.5974 11.86C45.3508 12.0667 45.0608 12.1933 44.7274 12.24L46.4974 15H45.9074L44.1874 12.32H41.8874V15H41.3774ZM41.8874 11.85H44.3774C44.6841 11.85 44.9508 11.7667 45.1774 11.6C45.4041 11.4333 45.5774 11.2167 45.6974 10.95C45.8241 10.6833 45.8874 10.4 45.8874 10.1C45.8874 9.79333 45.8141 9.50999 45.6674 9.24999C45.5274 8.98333 45.3374 8.76999 45.0974 8.60999C44.8641 8.44333 44.6008 8.35999 44.3074 8.35999H41.8874V11.85Z" fill="#BD00FF"/>
<path d="M37.0492 15.05C36.5692 15.05 36.1259 14.9467 35.7192 14.74C35.3126 14.5333 34.9592 14.26 34.6592 13.92C34.3592 13.5733 34.1259 13.1867 33.9592 12.76C33.7992 12.3267 33.7192 11.8867 33.7192 11.44C33.7192 10.9733 33.7992 10.5267 33.9592 10.1C34.1192 9.66667 34.3459 9.28334 34.6392 8.95001C34.9326 8.61001 35.2792 8.34334 35.6792 8.15001C36.0792 7.95001 36.5159 7.85001 36.9892 7.85001C37.6959 7.85001 38.2659 7.99667 38.6992 8.29001C39.1392 8.57667 39.4726 8.94667 39.6992 9.40001L39.2792 9.65001C39.0392 9.18334 38.7192 8.84667 38.3192 8.64001C37.9259 8.42667 37.4792 8.32001 36.9792 8.32001C36.5592 8.32001 36.1792 8.41001 35.8392 8.59001C35.4992 8.76334 35.2092 9.00001 34.9692 9.30001C34.7292 9.59334 34.5459 9.92667 34.4192 10.3C34.2926 10.6733 34.2292 11.0567 34.2292 11.45C34.2292 11.87 34.3026 12.2667 34.4492 12.64C34.5959 13.0133 34.7992 13.3467 35.0592 13.64C35.3192 13.9333 35.6226 14.1633 35.9692 14.33C36.3159 14.4967 36.6859 14.58 37.0792 14.58C37.5392 14.58 37.9726 14.47 38.3792 14.25C38.7859 14.0233 39.1759 13.67 39.5492 13.19V13.76C38.8426 14.62 38.0092 15.05 37.0492 15.05ZM39.4392 11.96H37.8292V11.55H39.8792V15H39.4392V11.96Z" fill="#BD00FF"/>
<path d="M29.5099 15.05C29.0166 15.05 28.5666 14.95 28.1599 14.75C27.7533 14.5433 27.4033 14.27 27.1099 13.93C26.8166 13.59 26.5899 13.2067 26.4299 12.78C26.2699 12.3467 26.1899 11.9033 26.1899 11.45C26.1899 10.9767 26.2733 10.5267 26.4399 10.1C26.6066 9.66667 26.8399 9.28334 27.1399 8.95001C27.4466 8.61001 27.7999 8.34334 28.1999 8.15001C28.6066 7.95001 29.0466 7.85001 29.5199 7.85001C30.0199 7.85001 30.4699 7.95334 30.8699 8.16001C31.2766 8.36667 31.6266 8.64334 31.9199 8.99001C32.2133 9.33667 32.4399 9.72334 32.5999 10.15C32.7599 10.5767 32.8399 11.01 32.8399 11.45C32.8399 11.93 32.7566 12.3867 32.5899 12.82C32.4233 13.2467 32.1866 13.63 31.8799 13.97C31.5799 14.3033 31.2266 14.5667 30.8199 14.76C30.4199 14.9533 29.9833 15.05 29.5099 15.05ZM26.6999 11.45C26.6999 11.8567 26.7699 12.2467 26.9099 12.62C27.0499 12.9933 27.2433 13.3267 27.4899 13.62C27.7433 13.9133 28.0399 14.1467 28.3799 14.32C28.7266 14.4933 29.1066 14.58 29.5199 14.58C29.9399 14.58 30.3233 14.49 30.6699 14.31C31.0166 14.13 31.3133 13.89 31.5599 13.59C31.8066 13.29 31.9933 12.9567 32.1199 12.59C32.2533 12.2167 32.3199 11.8367 32.3199 11.45C32.3199 11.0433 32.2499 10.6533 32.1099 10.28C31.9766 9.90667 31.7833 9.57334 31.5299 9.28001C31.2766 8.98667 30.9766 8.75334 30.6299 8.58001C30.2899 8.40667 29.9199 8.32001 29.5199 8.32001C29.0933 8.32001 28.7066 8.41001 28.3599 8.59001C28.0133 8.77001 27.7166 9.01001 27.4699 9.31001C27.2299 9.61001 27.0399 9.94667 26.8999 10.32C26.7666 10.6867 26.6999 11.0633 26.6999 11.45Z" fill="#BD00FF"/>
<path d="M20.4692 15V7.89999H23.3892C23.6892 7.89999 23.9626 7.96333 24.2092 8.08999C24.4626 8.21666 24.6826 8.38666 24.8692 8.59999C25.0559 8.80666 25.1992 9.03999 25.2992 9.29999C25.4059 9.55999 25.4592 9.82666 25.4592 10.1C25.4592 10.48 25.3726 10.84 25.1992 11.18C25.0326 11.5133 24.7992 11.7867 24.4992 12C24.2059 12.2133 23.8559 12.32 23.4492 12.32H20.9792V15H20.4692ZM20.9792 11.85H23.4292C23.7426 11.85 24.0126 11.7667 24.2392 11.6C24.4659 11.4333 24.6392 11.2167 24.7592 10.95C24.8792 10.6833 24.9392 10.4 24.9392 10.1C24.9392 9.78666 24.8659 9.49999 24.7192 9.23999C24.5792 8.97333 24.3892 8.75999 24.1492 8.59999C23.9159 8.43999 23.6559 8.35999 23.3692 8.35999H20.9792V11.85Z" fill="#BD00FF"/>
<path d="M13.8144 7.89999L16.2944 11.83L18.7844 7.89999H19.3544L16.5544 12.32V15H16.0444V12.3L13.2544 7.89999H13.8144Z" fill="#BD00FF"/>
<path d="M12.8902 8.35999H10.2902V15H9.78018V8.35999H7.18018V7.89999H12.8902V8.35999Z" fill="#BD00FF"/>
</svg>
