<svg width="177" height="23" viewBox="0 0 177 23" fill="none" xmlns="http://www.w3.org/2000/svg">
<path fill-rule="evenodd" clip-rule="evenodd" d="M165.5 0.999999L88.5 0.999998C82.701 0.999998 78 5.70101 78 11.5C78 17.299 82.701 22 88.5 22L165.5 22C171.299 22 176 17.299 176 11.5C176 5.70101 171.299 0.999999 165.5 0.999999ZM77 11.5C77 17.8513 82.1487 23 88.5 23L165.5 23C171.851 23 177 17.8513 177 11.5C177 5.14872 171.851 -7.76259e-07 165.5 -8.51997e-07L88.5 -1.77021e-06C82.1487 -1.84595e-06 77 5.14872 77 11.5Z" fill="#BD00FF"/>
<path fill-rule="evenodd" clip-rule="evenodd" d="M88.5 0.999999L11.5 0.999998C5.70101 0.999998 1 5.70101 1 11.5C1 17.299 5.70101 22 11.5 22L88.5 22C94.299 22 99 17.299 99 11.5C99 5.70101 94.299 0.999999 88.5 0.999999ZM1.37136e-07 11.5C6.13979e-08 17.8513 5.14873 23 11.5 23L88.5 23C94.8513 23 100 17.8513 100 11.5C100 5.14872 94.8513 -7.76259e-07 88.5 -8.51997e-07L11.5 -1.77021e-06C5.14873 -1.84595e-06 2.12874e-07 5.14872 1.37136e-07 11.5Z" fill="#BD00FF"/>
<path d="M138.147 15.0003V7.90027H138.657V14.5403H142.897V15.0003H138.147Z" fill="#BD00FF"/>
<path d="M135.778 15.0003V8.89027L132.988 13.6703H132.648L129.858 8.89027V15.0003H129.348V7.90027H129.858L132.818 12.9803L135.778 7.90027H136.288V15.0003H135.778Z" fill="#BD00FF"/>
<path d="M128.244 8.36027H125.644V15.0003H125.134V8.36027H122.534V7.90027H128.244V8.36027Z" fill="#BD00FF"/>
<path d="M121.43 7.90027V15.0003H120.92V11.6003H116.44V15.0003H115.93V7.90027H116.44V11.1403H120.92V7.90027H121.43Z" fill="#BD00FF"/>
<path d="M67.9453 7.90027L70.4253 11.8303L72.9153 7.90027H73.4853L70.6853 12.3203V15.0003H70.1753V12.3003L67.3853 7.90027H67.9453Z" fill="#BD00FF"/>
<path d="M66.2719 7.90027V15.0003H65.7618V11.6003H61.2818V15.0003H60.7719V7.90027H61.2818V11.1403H65.7618V7.90027H66.2719Z" fill="#BD00FF"/>
<path d="M54.5609 15.0003V7.90027H57.4809C57.7809 7.90027 58.0542 7.9636 58.3009 8.09027C58.5542 8.21694 58.7742 8.38693 58.9609 8.60027C59.1476 8.80694 59.2909 9.04027 59.3909 9.30027C59.4976 9.56027 59.5509 9.82694 59.5509 10.1003C59.5509 10.4803 59.4642 10.8403 59.2909 11.1803C59.1242 11.5136 58.8909 11.7869 58.5909 12.0003C58.2976 12.2136 57.9476 12.3203 57.5409 12.3203H55.0709V15.0003H54.5609ZM55.0709 11.8503H57.5209C57.8342 11.8503 58.1042 11.7669 58.3309 11.6003C58.5576 11.4336 58.7309 11.2169 58.8509 10.9503C58.9709 10.6836 59.0309 10.4003 59.0309 10.1003C59.0309 9.78694 58.9576 9.50027 58.8109 9.24027C58.6709 8.9736 58.4809 8.76027 58.2409 8.60027C58.0076 8.44027 57.7476 8.36027 57.4609 8.36027H55.0709V11.8503Z" fill="#BD00FF"/>
<path d="M50.0428 7.90027H50.4828L53.4828 15.0003H52.9428L51.9528 12.6603H48.5628L47.5728 15.0003H47.0228L50.0428 7.90027ZM51.8128 12.2403L50.2628 8.52027L48.6828 12.2403H51.8128Z" fill="#BD00FF"/>
<path d="M41.3773 15.0003V7.90027H44.3273C44.634 7.90027 44.9107 7.9636 45.1573 8.09027C45.4107 8.21694 45.6273 8.38693 45.8073 8.60027C45.994 8.80694 46.1373 9.04027 46.2373 9.30027C46.344 9.56027 46.3973 9.82694 46.3973 10.1003C46.3973 10.4536 46.3273 10.7836 46.1873 11.0903C46.0473 11.3969 45.8507 11.6536 45.5973 11.8603C45.3507 12.0669 45.0607 12.1936 44.7273 12.2403L46.4973 15.0003H45.9073L44.1873 12.3203H41.8873V15.0003H41.3773ZM41.8873 11.8503H44.3773C44.684 11.8503 44.9507 11.7669 45.1773 11.6003C45.404 11.4336 45.5773 11.2169 45.6973 10.9503C45.824 10.6836 45.8873 10.4003 45.8873 10.1003C45.8873 9.7936 45.814 9.51027 45.6673 9.25027C45.5273 8.9836 45.3373 8.77027 45.0973 8.61027C44.864 8.4436 44.6007 8.36027 44.3073 8.36027H41.8873V11.8503Z" fill="#BD00FF"/>
<path d="M37.0492 15.0502C36.5692 15.0502 36.1259 14.9469 35.7192 14.7402C35.3126 14.5336 34.9592 14.2602 34.6592 13.9202C34.3592 13.5736 34.1259 13.1869 33.9592 12.7602C33.7992 12.3269 33.7192 11.8869 33.7192 11.4402C33.7192 10.9736 33.7992 10.5269 33.9592 10.1002C34.1192 9.66689 34.3459 9.28355 34.6392 8.95022C34.9326 8.61022 35.2792 8.34355 35.6792 8.15022C36.0792 7.95022 36.5159 7.85022 36.9892 7.85022C37.6959 7.85022 38.2659 7.99689 38.6992 8.29022C39.1392 8.57689 39.4726 8.94689 39.6992 9.40022L39.2792 9.65022C39.0392 9.18355 38.7192 8.84689 38.3192 8.64022C37.9259 8.42689 37.4792 8.32022 36.9792 8.32022C36.5592 8.32022 36.1792 8.41022 35.8392 8.59022C35.4992 8.76355 35.2092 9.00022 34.9692 9.30022C34.7292 9.59355 34.5459 9.92689 34.4192 10.3002C34.2926 10.6736 34.2292 11.0569 34.2292 11.4502C34.2292 11.8702 34.3026 12.2669 34.4492 12.6402C34.5959 13.0136 34.7992 13.3469 35.0592 13.6402C35.3192 13.9336 35.6226 14.1636 35.9692 14.3302C36.3159 14.4969 36.6859 14.5802 37.0792 14.5802C37.5392 14.5802 37.9726 14.4702 38.3792 14.2502C38.7859 14.0236 39.1759 13.6702 39.5492 13.1902V13.7602C38.8426 14.6202 38.0092 15.0502 37.0492 15.0502ZM39.4392 11.9602H37.8292V11.5502H39.8792V15.0002H39.4392V11.9602Z" fill="#BD00FF"/>
<path d="M29.5099 15.0502C29.0166 15.0502 28.5666 14.9502 28.1599 14.7502C27.7533 14.5436 27.4033 14.2702 27.1099 13.9302C26.8166 13.5902 26.5899 13.2069 26.4299 12.7802C26.2699 12.3469 26.1899 11.9036 26.1899 11.4502C26.1899 10.9769 26.2733 10.5269 26.4399 10.1002C26.6066 9.66689 26.8399 9.28355 27.1399 8.95022C27.4466 8.61022 27.7999 8.34355 28.1999 8.15022C28.6066 7.95022 29.0466 7.85022 29.5199 7.85022C30.0199 7.85022 30.4699 7.95355 30.8699 8.16022C31.2766 8.36689 31.6266 8.64355 31.9199 8.99022C32.2133 9.33689 32.4399 9.72355 32.5999 10.1502C32.7599 10.5769 32.8399 11.0102 32.8399 11.4502C32.8399 11.9302 32.7566 12.3869 32.5899 12.8202C32.4233 13.2469 32.1866 13.6302 31.8799 13.9702C31.5799 14.3036 31.2266 14.5669 30.8199 14.7602C30.4199 14.9536 29.9833 15.0502 29.5099 15.0502ZM26.6999 11.4502C26.6999 11.8569 26.7699 12.2469 26.9099 12.6202C27.0499 12.9936 27.2433 13.3269 27.4899 13.6202C27.7433 13.9136 28.0399 14.1469 28.3799 14.3202C28.7266 14.4936 29.1066 14.5802 29.5199 14.5802C29.9399 14.5802 30.3233 14.4902 30.6699 14.3102C31.0166 14.1302 31.3133 13.8902 31.5599 13.5902C31.8066 13.2902 31.9933 12.9569 32.1199 12.5902C32.2533 12.2169 32.3199 11.8369 32.3199 11.4502C32.3199 11.0436 32.2499 10.6536 32.1099 10.2802C31.9766 9.90689 31.7833 9.57355 31.5299 9.28022C31.2766 8.98689 30.9766 8.75355 30.6299 8.58022C30.2899 8.40689 29.9199 8.32022 29.5199 8.32022C29.0933 8.32022 28.7066 8.41022 28.3599 8.59022C28.0133 8.77022 27.7166 9.01022 27.4699 9.31022C27.2299 9.61022 27.0399 9.94689 26.8999 10.3202C26.7666 10.6869 26.6999 11.0636 26.6999 11.4502Z" fill="#BD00FF"/>
<path d="M20.4691 15.0003V7.90027H23.3891C23.6891 7.90027 23.9624 7.9636 24.2091 8.09027C24.4624 8.21694 24.6824 8.38693 24.8691 8.60027C25.0558 8.80694 25.1991 9.04027 25.2991 9.30027C25.4058 9.56027 25.4591 9.82694 25.4591 10.1003C25.4591 10.4803 25.3724 10.8403 25.1991 11.1803C25.0324 11.5136 24.7991 11.7869 24.4991 12.0003C24.2058 12.2136 23.8558 12.3203 23.4491 12.3203H20.9791V15.0003H20.4691ZM20.9791 11.8503H23.4291C23.7424 11.8503 24.0124 11.7669 24.2391 11.6003C24.4658 11.4336 24.6391 11.2169 24.7591 10.9503C24.8791 10.6836 24.9391 10.4003 24.9391 10.1003C24.9391 9.78694 24.8658 9.50027 24.7191 9.24027C24.5791 8.9736 24.3891 8.76027 24.1491 8.60027C23.9158 8.44027 23.6558 8.36027 23.3691 8.36027H20.9791V11.8503Z" fill="#BD00FF"/>
<path d="M13.8144 7.90027L16.2944 11.8303L18.7844 7.90027H19.3544L16.5544 12.3203V15.0003H16.0444V12.3003L13.2544 7.90027H13.8144Z" fill="#BD00FF"/>
<path d="M12.8901 8.36027H10.2901V15.0003H9.78005V8.36027H7.18005V7.90027H12.8901V8.36027Z" fill="#BD00FF"/>
</svg>
