<svg width="273" height="27" viewBox="0 0 273 27" fill="none" xmlns="http://www.w3.org/2000/svg">
<path fill-rule="evenodd" clip-rule="evenodd" d="M248 13.3993V13.399C254.774 13.3989 260.265 7.90757 260.265 1.13364V2.09808e-05H260.266V1.13364C260.266 7.90758 265.757 13.3989 272.531 13.399V13.3993C265.757 13.3994 260.266 18.8908 260.266 25.6647V26.7983H260.265V25.6647C260.265 18.8908 254.774 13.3994 248 13.3993Z" fill="#BD00FF"/>
<path fill-rule="evenodd" clip-rule="evenodd" d="M172 13.9998L0 13.9998L0 12.9998L172 12.9998V13.9998Z" fill="#BD00FF"/>
<path d="M242.489 19V8.34998H248.399V9.03998H243.254V19H242.489Z" fill="#BD00FF"/>
<path d="M239.708 8.34998V19H238.943V13.9H232.223V19H231.458V8.34998H232.223V13.21H238.943V8.34998H239.708Z" fill="#BD00FF"/>
<path d="M220.165 19V8.34998H220.93V17.95L227.92 8.34998H228.64V19H227.875V9.54998L220.96 19H220.165Z" fill="#BD00FF"/>
<path d="M208.222 21.04V18.31H208.627C208.917 18.31 209.172 18.195 209.392 17.965C209.612 17.725 209.802 17.34 209.962 16.81C210.122 16.28 210.247 15.565 210.337 14.665C210.437 13.755 210.507 12.62 210.547 11.26L210.622 8.34998H216.787V18.31H218.047V21.04H217.342V19H208.912V21.04H208.222ZM209.872 18.31H216.022V9.03998H211.327L211.267 11.335C211.237 12.775 211.167 13.97 211.057 14.92C210.947 15.87 210.792 16.62 210.592 17.17C210.402 17.71 210.162 18.09 209.872 18.31Z" fill="#BD00FF"/>
<path d="M206.222 8.34998V19H205.457V13.9H198.737V19H197.972V8.34998H198.737V13.21H205.457V8.34998H206.222Z" fill="#BD00FF"/>
<path d="M190.88 19.09C190.3 19.09 189.73 18.995 189.17 18.805C188.62 18.605 188.12 18.32 187.67 17.95C187.22 17.58 186.87 17.135 186.62 16.615L187.28 16.3C187.53 16.77 187.845 17.16 188.225 17.47C188.615 17.78 189.035 18.01 189.485 18.16C189.935 18.31 190.385 18.385 190.835 18.385C191.445 18.385 192.01 18.26 192.53 18.01C193.06 17.75 193.52 17.4 193.91 16.96C194.3 16.51 194.6 16 194.81 15.43C195.02 14.86 195.12 14.265 195.11 13.645L195.455 13.885H189.815V13.225H195.44L195.11 13.45C195.1 12.9 194.995 12.36 194.795 11.83C194.605 11.3 194.325 10.825 193.955 10.405C193.595 9.97504 193.155 9.63504 192.635 9.38504C192.115 9.12504 191.525 8.99504 190.865 8.99504C190.435 8.99504 190.005 9.06004 189.575 9.19004C189.155 9.32004 188.765 9.53504 188.405 9.83504C188.045 10.125 187.735 10.505 187.475 10.975L186.83 10.615C187.18 9.93504 187.69 9.38004 188.36 8.95004C189.03 8.51004 189.85 8.29004 190.82 8.29004C191.63 8.29004 192.35 8.44504 192.98 8.75504C193.61 9.06504 194.14 9.47504 194.57 9.98504C195.01 10.495 195.34 11.065 195.56 11.695C195.79 12.325 195.905 12.965 195.905 13.615C195.905 14.305 195.785 14.975 195.545 15.625C195.305 16.275 194.96 16.86 194.51 17.38C194.06 17.9 193.525 18.315 192.905 18.625C192.295 18.935 191.62 19.09 190.88 19.09Z" fill="#BD00FF"/>
<path d="M183.715 19V9.03998H179.02L178.96 11.41C178.92 12.9 178.82 14.135 178.66 15.115C178.51 16.095 178.295 16.87 178.015 17.44C177.745 18.01 177.41 18.415 177.01 18.655C176.61 18.885 176.145 19 175.615 19V18.31C176.005 18.31 176.355 18.205 176.665 17.995C176.975 17.775 177.235 17.405 177.445 16.885C177.665 16.365 177.84 15.65 177.97 14.74C178.1 13.82 178.185 12.66 178.225 11.26L178.315 8.34998H184.48V19H183.715Z" fill="#BD00FF"/>
</svg>
