<svg width="654" height="654" viewBox="0 0 654 654" fill="none" xmlns="http://www.w3.org/2000/svg">
<g filter="url(#filter0_bi_53_32472)">
<path d="M327 -1.42936e-05C507.597 -6.39947e-06 654 146.403 654 327V327C654 507.597 507.597 654 327 654V654C146.403 654 -4.0321e-05 507.597 -3.24268e-05 327V327C-2.45327e-05 146.403 146.403 -2.21878e-05 327 -1.42936e-05V-1.42936e-05Z" fill="#AE00EB" fill-opacity="0.5"/>
<path d="M0.999986 327C0.999994 146.955 146.955 0.999978 327 0.999986C507.045 0.999994 653 146.955 653 327C653 507.045 507.045 653 327 653C146.955 653 0.999978 507.045 0.999986 327Z" stroke="white" stroke-width="2"/>
</g>
<defs>
<filter id="filter0_bi_53_32472" x="-10" y="-10" width="680" height="680" filterUnits="userSpaceOnUse" color-interpolation-filters="sRGB">
<feFlood flood-opacity="0" result="BackgroundImageFix"/>
<feGaussianBlur in="BackgroundImageFix" stdDeviation="5"/>
<feComposite in2="SourceAlpha" operator="in" result="effect1_backgroundBlur_53_32472"/>
<feBlend mode="normal" in="SourceGraphic" in2="effect1_backgroundBlur_53_32472" result="shape"/>
<feColorMatrix in="SourceAlpha" type="matrix" values="0 0 0 0 0 0 0 0 0 0 0 0 0 0 0 0 0 0 127 0" result="hardAlpha"/>
<feOffset dx="16" dy="16"/>
<feGaussianBlur stdDeviation="12.5"/>
<feComposite in2="hardAlpha" operator="arithmetic" k2="-1" k3="1"/>
<feColorMatrix type="matrix" values="0 0 0 0 1 0 0 0 0 1 0 0 0 0 1 0 0 0 0.6 0"/>
<feBlend mode="normal" in2="shape" result="effect2_innerShadow_53_32472"/>
</filter>
</defs>
</svg>
