<svg width="418" height="422" viewBox="0 0 418 422" fill="none" xmlns="http://www.w3.org/2000/svg">
<g filter="url(#filter0_bi_33_58)">
<path d="M209.306 0.729605C324.094 0.72961 417.148 93.7838 417.148 208.572V208.572C417.148 323.36 324.094 416.414 209.306 416.414V416.414C94.5179 416.414 1.46371 323.36 1.46372 208.572V208.572C1.46372 93.7837 94.5179 0.7296 209.306 0.729605V0.729605Z" fill="#E6E6DA" fill-opacity="0.1"/>
</g>
<path fill-rule="evenodd" clip-rule="evenodd" d="M396.263 116.339C417.258 158.896 423.106 207.342 412.84 253.672C402.573 300.003 376.808 341.444 339.801 371.148C303.187 400.537 257.737 416.697 210.818 417.037L213.752 419.971C213.998 420.217 213.998 420.615 213.752 420.86C213.507 421.106 213.108 421.106 212.863 420.86L208.861 416.859C208.616 416.613 208.616 416.215 208.861 415.969L212.863 411.968C213.108 411.722 213.507 411.722 213.752 411.968C213.998 412.213 213.998 412.611 213.752 412.857L210.829 415.78C257.458 415.437 302.626 399.375 339.014 370.168C375.798 340.642 401.408 299.451 411.612 253.4C421.816 207.35 416.004 159.195 395.136 116.895C374.267 74.5949 339.592 40.6801 296.839 20.7549C254.087 0.829656 205.816 -3.91341 160.003 7.30942C114.189 18.5323 73.5761 45.0493 44.8737 82.4788C16.1713 119.908 1.09757 166.01 2.14339 213.166C3.18924 260.323 20.2921 305.711 50.6257 341.831L49.6626 342.64C19.1449 306.3 1.93828 260.637 0.886059 213.194C-0.166128 165.752 14.9991 119.37 43.8757 81.7135C72.7523 44.0568 113.612 17.3789 159.703 6.0879C205.795 -5.20305 254.359 -0.431193 297.371 19.6149C340.383 39.6611 375.269 73.7818 396.263 116.339Z" fill="white"/>
<path fill-rule="evenodd" clip-rule="evenodd" d="M109.071 235.8L311.638 235.8C326.093 235.8 337.811 224.082 337.811 209.627C337.811 195.172 326.093 183.454 311.638 183.454L109.071 183.454C94.6158 183.454 82.8976 195.172 82.8976 209.627C82.8976 224.082 94.6158 235.8 109.071 235.8ZM339.069 209.627C339.069 194.477 326.788 182.196 311.638 182.196L109.071 182.196C93.9212 182.196 81.6399 194.477 81.6399 209.627C81.6399 224.777 93.9212 237.058 109.071 237.058L311.638 237.058C326.788 237.058 339.069 224.777 339.069 209.627Z" fill="white"/>
<path d="M295.542 216.999L295.455 217.118H295.602H297.896H297.934L297.957 217.087L302.371 211.021H305.759V217.043V217.118H305.834H307.887H307.962V217.043V201.288V201.213H307.887H301.88C300.824 201.213 299.896 201.426 299.098 201.855L299.098 201.855L299.097 201.856C298.322 202.284 297.718 202.857 297.289 203.573C296.858 204.29 296.644 205.109 296.644 206.026C296.644 207.386 296.969 208.471 297.627 209.273L297.627 209.273L297.628 209.275C298.279 210.025 299.121 210.489 300.148 210.669L295.542 216.999ZM299.758 203.878L299.758 203.878L299.759 203.877C300.366 203.289 301.181 202.992 302.212 202.992H305.759V209.302H301.85C300.841 209.302 300.09 208.986 299.585 208.364C299.094 207.735 298.847 206.968 298.847 206.057C298.847 205.17 299.151 204.446 299.758 203.878Z" fill="white" stroke="white" stroke-width="0.15"/>
<path d="M279.077 217.043V217.118H279.152H281.205H281.28V217.043V209.995H290.124V217.043V217.118H290.199H292.252H292.327V217.043V201.318V201.243H292.252H290.199H290.124V201.318V208.004H281.28V201.318V201.243H281.205H279.152H279.077V201.318V217.043Z" fill="white" stroke="white" stroke-width="0.15"/>
<path d="M265.088 216.779L265.089 216.78C266.065 217.207 267.122 217.42 268.258 217.42C269.292 217.42 270.257 217.258 271.151 216.933L271.152 216.932C272.066 216.587 272.859 216.11 273.53 215.499C274.201 214.889 274.701 214.206 275.028 213.451L275.062 213.372L274.979 213.349L273.198 212.866L273.135 212.849L273.109 212.909C272.754 213.737 272.123 214.409 271.209 214.926L271.209 214.926C270.315 215.443 269.362 215.701 268.349 215.701C267.356 215.701 266.434 215.453 265.58 214.957C264.746 214.44 264.06 213.754 263.523 212.899C263.019 212.046 262.713 211.078 262.606 209.995H275.985H276.044L276.058 209.938C276.08 209.849 276.09 209.731 276.09 209.588V209.587V209.586V209.585V209.584V209.583V209.582V209.581V209.58V209.58V209.579V209.578V209.577V209.576V209.575V209.574V209.573V209.572V209.571V209.57V209.569V209.568V209.567V209.566V209.565V209.564V209.563V209.563V209.562V209.561V209.56V209.559V209.558V209.557V209.556V209.555V209.554V209.553V209.552V209.551V209.55V209.549V209.548V209.547V209.547V209.546V209.545V209.544V209.543V209.542V209.541V209.54V209.539V209.538V209.537V209.536V209.535V209.534V209.533V209.532V209.531V209.53V209.53V209.529V209.528V209.527V209.526V209.525V209.524V209.523V209.522V209.521V209.52V209.519V209.518V209.517V209.516V209.515V209.514V209.514V209.513V209.512V209.511V209.51V209.509V209.508V209.507V209.506V209.505V209.504V209.503V209.502V209.501V209.5V209.499V209.498V209.497V209.497V209.496V209.495V209.494V209.493V209.492V209.491V209.49V209.489V209.488V209.487V209.486V209.485V209.484V209.483V209.482V209.481V209.48V209.48V209.479V209.478V209.477V209.476V209.475V209.474V209.473V209.472V209.471V209.47V209.469V209.468V209.467V209.466V209.465V209.464V209.464V209.463V209.462V209.461V209.46V209.459V209.458V209.457V209.456V209.455V209.454V209.453V209.452V209.451V209.45V209.449V209.448V209.447V209.447V209.446V209.445V209.444V209.443V209.442V209.441V209.44V209.439V209.438V209.437V209.436V209.435V209.434V209.433V209.432V209.431V209.43V209.43V209.429V209.428V209.427V209.426V209.425V209.424V209.423V209.422V209.421V209.42V209.419V209.418V209.417V209.416V209.415V209.414V209.414V209.413V209.412V209.411V209.41V209.409V209.408V209.407V209.406V209.405V209.404V209.403V209.402V209.401V209.4V209.399V209.398V209.397V209.397V209.396V209.395V209.394V209.393V209.392V209.391V209.39V209.389V209.388V209.387V209.386V209.385V209.384V209.383V209.382V209.381V209.381V209.38V209.379V209.378V209.377V209.376V209.375V209.374V209.373V209.372V209.371V209.37V209.369V209.368V209.367V209.366V209.365V209.364V209.364V209.363V209.362V209.361V209.36V209.359V209.358V209.357V209.356V209.355V209.354V209.353V209.352V209.351V209.35V209.349V209.348V209.347V209.347V209.346V209.345V209.344V209.343V209.342V209.341V209.34V209.339V209.338V209.337V209.336V209.335V209.334V209.333V209.332V209.331V209.331V209.33V209.329V209.328V209.327V209.326V209.325V209.324V209.323V209.322V209.321V209.32V209.319V209.318V209.317V209.316V209.315V209.314V209.314V209.313V209.312V209.311V209.31V209.309V209.308V209.307V209.306V209.305V209.304V209.303V209.302V209.301V209.3V209.299V209.298V209.298V209.297V209.296V209.295V209.294V209.293V209.292V209.291V209.29V209.289V209.288V209.287V209.286V209.285V209.284V209.283V209.282V209.281V209.281V209.28V209.279V209.278V209.277V209.276V209.275V209.274V209.273V209.272V209.271V209.27V209.269V209.268V209.267V209.266V209.265V209.264V209.264V209.263V209.262V209.261V209.26V209.259V209.258V209.257V209.256V209.255V209.254V209.253V209.252V209.251V209.25V209.249V209.248V209.248V209.247V209.246V209.245V209.244V209.243V209.242V209.241V209.24V209.239V209.238V209.237V209.236V209.235V209.234V209.233V209.232V209.231V209.231V209.23V209.229V209.228V209.227V209.226V209.225V209.224V209.223V209.222V209.221V209.22V209.219V209.218V209.217V209.216V209.215V209.214V209.214V209.213V209.212V209.211V209.21V209.209V209.208V209.207V209.206V209.205V209.204V209.203V209.202V209.201V209.2V209.199V209.198V209.198V209.197V209.196V209.195V209.194V209.193V209.192V209.191V209.19V209.189V209.188V209.187V209.186V209.185V209.184V209.183V209.182V209.181V209.181V209.18V209.179V209.178V209.177V209.176V209.175V209.174V209.173V209.172V209.171V209.17V209.169V209.168V209.167V209.166V209.165V209.165V209.164V209.163V209.162V209.161V209.16V209.159V209.158V209.157V209.156V209.155V209.154V209.153V209.152V209.151V209.15V209.149V209.148V209.148V209.147V209.146V209.145V209.144V209.143V209.142V209.141V209.14V209.139V209.138V209.137V209.136V209.135V209.134V209.133V209.132V209.131V209.131V209.13V209.129V209.128V209.127V209.126V209.125V209.124V209.123V209.122V209.121V209.12V209.119V209.118V209.117V209.116V209.115V209.115V209.114V209.113V209.112V209.111V209.11V209.109V209.108V209.107V209.106V209.105C276.09 207.644 275.755 206.304 275.085 205.085C274.415 203.847 273.491 202.851 272.313 202.1C271.153 201.347 269.79 200.971 268.228 200.971C266.706 200.971 265.344 201.347 264.144 202.099C262.946 202.83 262.001 203.816 261.311 205.054L261.311 205.054L261.31 205.055C260.64 206.294 260.305 207.655 260.305 209.135C260.305 210.271 260.498 211.336 260.884 212.332L260.884 212.332L260.884 212.333C261.29 213.327 261.848 214.21 262.559 214.981L262.559 214.982C263.271 215.734 264.114 216.333 265.088 216.779ZM273.084 205.462L273.084 205.462L273.084 205.463C273.608 206.296 273.914 207.263 274.003 208.366H262.544C262.632 207.283 262.929 206.325 263.433 205.492C263.97 204.617 264.655 203.942 265.488 203.466L265.488 203.466L265.49 203.465C266.323 202.969 267.245 202.721 268.258 202.721C269.272 202.721 270.194 202.969 271.027 203.465L271.027 203.465L271.029 203.466C271.882 203.942 272.567 204.607 273.084 205.462Z" fill="white" stroke="white" stroke-width="0.15"/>
<path d="M240.198 217.043V217.118H240.273H242.235H242.31V217.043V204.674L247.905 214.274L247.927 214.311H247.97H249.298H249.342L249.363 214.274L254.898 204.677V217.043V217.118H254.973H256.935H257.01V217.043V201.318V201.243H256.935H254.912H254.869L254.847 201.28L248.634 212.004L242.451 201.28L242.43 201.243H242.386H240.273H240.198V201.318V217.043Z" fill="white" stroke="white" stroke-width="0.15"/>
<path d="M214.584 217.043V217.118H214.659H216.651H216.689L216.711 217.088L225.993 204.563V217.043V217.118H226.068H228.12H228.195V217.043V201.318V201.243H228.12H226.279H226.241L226.219 201.273L216.786 214.039V201.348V201.273H216.711H214.659H214.584V201.348V217.043Z" fill="white" stroke="white" stroke-width="0.15"/>
<path d="M196.987 217.043V217.118H197.062H199.114H199.189V217.043V209.995H208.034V217.043V217.118H208.109H210.162H210.237V217.043V201.318V201.243H210.162H208.109H208.034V201.318V208.004H199.189V201.318V201.243H199.114H197.062H196.987V201.318V217.043Z" fill="white" stroke="white" stroke-width="0.15"/>
<path d="M182.919 216.381L182.919 216.382C183.979 217.074 185.17 217.42 186.492 217.42C187.934 217.42 189.197 217.044 190.278 216.29C191.355 215.538 192.188 214.541 192.777 213.303C193.386 212.045 193.69 210.675 193.69 209.196C193.69 208.14 193.497 207.125 193.112 206.151C192.747 205.157 192.229 204.274 191.559 203.502C190.888 202.73 190.096 202.12 189.182 201.673C188.265 201.205 187.257 200.971 186.16 200.971C184.959 200.971 183.829 201.287 182.772 201.917C181.791 202.483 180.993 203.216 180.379 204.116V201.318V201.243H180.304H178.463H178.388V201.318V223.472V223.547H178.463H180.516H180.591V223.472V214.046C181.184 214.964 181.961 215.743 182.919 216.381ZM189.936 213.524L189.935 213.525C189.458 214.121 188.883 214.597 188.208 214.954C187.536 215.29 186.773 215.459 185.918 215.459C185.166 215.459 184.433 215.291 183.718 214.954C183.022 214.596 182.406 214.128 181.869 213.552C181.335 212.958 180.909 212.296 180.591 211.565V206.757C180.67 206.249 180.876 205.769 181.21 205.316C181.547 204.86 181.964 204.453 182.461 204.095L182.461 204.095L182.461 204.095C182.979 203.716 183.516 203.428 184.072 203.23C184.629 203.031 185.163 202.932 185.677 202.932C186.491 202.932 187.245 203.101 187.938 203.438C188.634 203.776 189.25 204.233 189.787 204.81C190.324 205.386 190.731 206.051 191.009 206.807L191.009 206.807L191.01 206.809C191.308 207.564 191.458 208.36 191.458 209.196C191.458 209.992 191.328 210.769 191.069 211.525C190.811 212.261 190.433 212.927 189.936 213.524Z" fill="white" stroke="white" stroke-width="0.15"/>
<path d="M164.369 216.779L164.37 216.78C165.346 217.207 166.403 217.42 167.539 217.42C168.574 217.42 169.538 217.258 170.433 216.933L170.433 216.932C171.347 216.587 172.14 216.11 172.812 215.499C173.483 214.889 173.982 214.206 174.309 213.451L174.343 213.372L174.26 213.349L172.479 212.866L172.416 212.849L172.39 212.909C172.036 213.737 171.404 214.409 170.491 214.926L170.49 214.926C169.596 215.443 168.643 215.701 167.63 215.701C166.637 215.701 165.715 215.453 164.862 214.957C164.027 214.44 163.341 213.754 162.804 212.899C162.3 212.046 161.994 211.078 161.887 209.995H175.266H175.325L175.339 209.938C175.361 209.849 175.372 209.731 175.372 209.588V209.587V209.586V209.585V209.584V209.583V209.582V209.581V209.58V209.58V209.579V209.578V209.577V209.576V209.575V209.574V209.573V209.572V209.571V209.57V209.569V209.568V209.567V209.566V209.565V209.564V209.563V209.563V209.562V209.561V209.56V209.559V209.558V209.557V209.556V209.555V209.554V209.553V209.552V209.551V209.55V209.549V209.548V209.547V209.547V209.546V209.545V209.544V209.543V209.542V209.541V209.54V209.539V209.538V209.537V209.536V209.535V209.534V209.533V209.532V209.531V209.53V209.53V209.529V209.528V209.527V209.526V209.525V209.524V209.523V209.522V209.521V209.52V209.519V209.518V209.517V209.516V209.515V209.514V209.514V209.513V209.512V209.511V209.51V209.509V209.508V209.507V209.506V209.505V209.504V209.503V209.502V209.501V209.5V209.499V209.498V209.497V209.497V209.496V209.495V209.494V209.493V209.492V209.491V209.49V209.489V209.488V209.487V209.486V209.485V209.484V209.483V209.482V209.481V209.48V209.48V209.479V209.478V209.477V209.476V209.475V209.474V209.473V209.472V209.471V209.47V209.469V209.468V209.467V209.466V209.465V209.464V209.464V209.463V209.462V209.461V209.46V209.459V209.458V209.457V209.456V209.455V209.454V209.453V209.452V209.451V209.45V209.449V209.448V209.447V209.447V209.446V209.445V209.444V209.443V209.442V209.441V209.44V209.439V209.438V209.437V209.436V209.435V209.434V209.433V209.432V209.431V209.43V209.43V209.429V209.428V209.427V209.426V209.425V209.424V209.423V209.422V209.421V209.42V209.419V209.418V209.417V209.416V209.415V209.414V209.414V209.413V209.412V209.411V209.41V209.409V209.408V209.407V209.406V209.405V209.404V209.403V209.402V209.401V209.4V209.399V209.398V209.397V209.397V209.396V209.395V209.394V209.393V209.392V209.391V209.39V209.389V209.388V209.387V209.386V209.385V209.384V209.383V209.382V209.381V209.381V209.38V209.379V209.378V209.377V209.376V209.375V209.374V209.373V209.372V209.371V209.37V209.369V209.368V209.367V209.366V209.365V209.364V209.364V209.363V209.362V209.361V209.36V209.359V209.358V209.357V209.356V209.355V209.354V209.353V209.352V209.351V209.35V209.349V209.348V209.347V209.347V209.346V209.345V209.344V209.343V209.342V209.341V209.34V209.339V209.338V209.337V209.336V209.335V209.334V209.333V209.332V209.331V209.331V209.33V209.329V209.328V209.327V209.326V209.325V209.324V209.323V209.322V209.321V209.32V209.319V209.318V209.317V209.316V209.315V209.314V209.314V209.313V209.312V209.311V209.31V209.309V209.308V209.307V209.306V209.305V209.304V209.303V209.302V209.301V209.3V209.299V209.298V209.298V209.297V209.296V209.295V209.294V209.293V209.292V209.291V209.29V209.289V209.288V209.287V209.286V209.285V209.284V209.283V209.282V209.281V209.281V209.28V209.279V209.278V209.277V209.276V209.275V209.274V209.273V209.272V209.271V209.27V209.269V209.268V209.267V209.266V209.265V209.264V209.264V209.263V209.262V209.261V209.26V209.259V209.258V209.257V209.256V209.255V209.254V209.253V209.252V209.251V209.25V209.249V209.248V209.248V209.247V209.246V209.245V209.244V209.243V209.242V209.241V209.24V209.239V209.238V209.237V209.236V209.235V209.234V209.233V209.232V209.231V209.231V209.23V209.229V209.228V209.227V209.226V209.225V209.224V209.223V209.222V209.221V209.22V209.219V209.218V209.217V209.216V209.215V209.214V209.214V209.213V209.212V209.211V209.21V209.209V209.208V209.207V209.206V209.205V209.204V209.203V209.202V209.201V209.2V209.199V209.198V209.198V209.197V209.196V209.195V209.194V209.193V209.192V209.191V209.19V209.189V209.188V209.187V209.186V209.185V209.184V209.183V209.182V209.181V209.181V209.18V209.179V209.178V209.177V209.176V209.175V209.174V209.173V209.172V209.171V209.17V209.169V209.168V209.167V209.166V209.165V209.165V209.164V209.163V209.162V209.161V209.16V209.159V209.158V209.157V209.156V209.155V209.154V209.153V209.152V209.151V209.15V209.149V209.148V209.148V209.147V209.146V209.145V209.144V209.143V209.142V209.141V209.14V209.139V209.138V209.137V209.136V209.135V209.134V209.133V209.132V209.131V209.131V209.13V209.129V209.128V209.127V209.126V209.125V209.124V209.123V209.122V209.121V209.12V209.119V209.118V209.117V209.116V209.115V209.115V209.114V209.113V209.112V209.111V209.11V209.109V209.108V209.107V209.106V209.105C175.372 207.644 175.037 206.304 174.366 205.085C173.696 203.847 172.772 202.851 171.594 202.1C170.434 201.347 169.071 200.971 167.509 200.971C165.987 200.971 164.625 201.347 163.425 202.099C162.227 202.83 161.282 203.816 160.592 205.054L160.592 205.054L160.592 205.055C159.921 206.294 159.587 207.655 159.587 209.135C159.587 210.271 159.779 211.336 160.165 212.332L160.165 212.332L160.166 212.333C160.571 213.327 161.13 214.21 161.84 214.981L161.841 214.982C162.552 215.734 163.395 216.333 164.369 216.779ZM172.365 205.462L172.365 205.462L172.366 205.463C172.889 206.296 173.196 207.263 173.284 208.366H161.825C161.913 207.283 162.21 206.325 162.714 205.492C163.251 204.617 163.936 203.942 164.77 203.466L164.77 203.466L164.771 203.465C165.604 202.969 166.526 202.721 167.539 202.721C168.553 202.721 169.475 202.969 170.308 203.465L170.308 203.465L170.31 203.466C171.164 203.942 171.848 204.607 172.365 205.462Z" fill="white" stroke="white" stroke-width="0.15"/>
<path d="M144.49 217.043V217.118H144.565H152.413C153.348 217.118 154.174 216.945 154.89 216.598C155.626 216.25 156.2 215.759 156.611 215.123C157.042 214.485 157.257 213.736 157.257 212.878C157.257 211.896 156.97 211.054 156.395 210.355C155.86 209.706 155.174 209.244 154.34 208.97C155.032 208.625 155.569 208.14 155.948 207.514L155.949 207.513C156.358 206.817 156.563 206.039 156.563 205.181C156.563 204.505 156.399 203.869 156.071 203.274C155.762 202.678 155.3 202.196 154.686 201.827C154.068 201.436 153.309 201.243 152.413 201.243H144.565H144.49V201.318V217.043ZM154.733 214.047L154.733 214.047L154.731 214.049C154.496 214.48 154.163 214.833 153.731 215.108C153.321 215.362 152.862 215.489 152.352 215.489H146.602V209.904H152.473C152.983 209.904 153.432 210.032 153.821 210.285C154.212 210.539 154.526 210.882 154.762 211.314L154.762 211.314L154.762 211.315C154.997 211.726 155.115 212.186 155.115 212.697C155.115 213.165 154.988 213.615 154.733 214.047ZM153.744 203.66L153.744 203.66L153.745 203.661C154.216 204.191 154.451 204.807 154.451 205.513C154.451 205.984 154.343 206.435 154.127 206.868C153.911 207.3 153.607 207.652 153.215 207.927C152.826 208.199 152.378 208.336 151.87 208.336H146.602V202.872H151.99C152.714 202.872 153.296 203.134 153.744 203.66Z" fill="white" stroke="white" stroke-width="0.15"/>
<path d="M130.175 216.779L130.175 216.779L130.176 216.78C131.152 217.207 132.209 217.42 133.345 217.42C134.502 217.42 135.559 217.207 136.515 216.78L136.516 216.779C137.49 216.333 138.323 215.733 139.015 214.981C139.725 214.21 140.273 213.337 140.659 212.362L140.659 212.362C141.045 211.367 141.238 210.321 141.238 209.226C141.238 208.09 141.045 207.035 140.659 206.059C140.274 205.065 139.725 204.191 139.014 203.44C138.303 202.668 137.47 202.069 136.516 201.642C135.559 201.194 134.512 200.971 133.376 200.971C132.239 200.971 131.182 201.194 130.206 201.642C129.251 202.069 128.418 202.668 127.707 203.44C126.996 204.191 126.447 205.065 126.062 206.059C125.676 207.035 125.483 208.09 125.483 209.226C125.483 210.321 125.676 211.367 126.062 212.362L126.062 212.362C126.447 213.336 126.985 214.209 127.675 214.98L127.675 214.98L127.677 214.982C128.388 215.733 129.22 216.333 130.175 216.779ZM128.491 206.093L128.491 206.092C129.009 205.136 129.686 204.371 130.52 203.794C131.373 203.219 132.314 202.932 133.345 202.932C134.377 202.932 135.319 203.21 136.172 203.765C137.026 204.321 137.712 205.076 138.23 206.032C138.746 206.986 139.005 208.04 139.005 209.196C139.005 210.331 138.747 211.385 138.229 212.36C137.712 213.315 137.026 214.07 136.172 214.626C135.319 215.182 134.377 215.459 133.345 215.459C132.313 215.459 131.371 215.191 130.518 214.656C129.664 214.1 128.979 213.355 128.461 212.42C127.965 211.466 127.716 210.412 127.716 209.256C127.716 208.08 127.975 207.026 128.491 206.093Z" fill="white" stroke="white" stroke-width="0.15"/>
<path d="M109.384 217.043V217.118H109.459H111.512H111.587V217.043V203.234H119.979V217.043V217.118H120.054H122.106H122.181V217.043V201.318V201.243H122.106H109.459H109.384V201.318V217.043Z" fill="white" stroke="white" stroke-width="0.15"/>
<path d="M25.3333 209C25.3333 210.473 26.5272 211.667 28 211.667C29.4728 211.667 30.6667 210.473 30.6667 209C30.6667 207.527 29.4728 206.333 28 206.333C26.5272 206.333 25.3333 207.527 25.3333 209ZM81.5 208.5H28V209.5H81.5V208.5Z" fill="white"/>
<path d="M389.833 209C389.833 210.473 391.027 211.667 392.5 211.667C393.973 211.667 395.167 210.473 395.167 209C395.167 207.527 393.973 206.333 392.5 206.333C391.027 206.333 389.833 207.527 389.833 209ZM392.5 208.5H339V209.5H392.5V208.5Z" fill="white"/>
<defs>
<filter id="filter0_bi_33_58" x="-8.53638" y="-9.27039" width="441.685" height="441.684" filterUnits="userSpaceOnUse" color-interpolation-filters="sRGB">
<feFlood flood-opacity="0" result="BackgroundImageFix"/>
<feGaussianBlur in="BackgroundImageFix" stdDeviation="5"/>
<feComposite in2="SourceAlpha" operator="in" result="effect1_backgroundBlur_33_58"/>
<feBlend mode="normal" in="SourceGraphic" in2="effect1_backgroundBlur_33_58" result="shape"/>
<feColorMatrix in="SourceAlpha" type="matrix" values="0 0 0 0 0 0 0 0 0 0 0 0 0 0 0 0 0 0 127 0" result="hardAlpha"/>
<feOffset dx="16" dy="16"/>
<feGaussianBlur stdDeviation="12.5"/>
<feComposite in2="hardAlpha" operator="arithmetic" k2="-1" k3="1"/>
<feColorMatrix type="matrix" values="0 0 0 0 1 0 0 0 0 1 0 0 0 0 1 0 0 0 0.6 0"/>
<feBlend mode="normal" in2="shape" result="effect2_innerShadow_33_58"/>
</filter>
</defs>
</svg>
