<svg width="237" height="39" viewBox="0 0 237 39" fill="none" xmlns="http://www.w3.org/2000/svg">
<path d="M99 19.5C99 8.73045 107.73 0 118.5 0V0C129.27 0 138 8.73045 138 19.5V19.5C138 30.2696 129.27 39 118.5 39V39C107.73 39 99 30.2696 99 19.5V19.5Z" fill="#E6E6DA" fill-opacity="0.1"/>
<path fill-rule="evenodd" clip-rule="evenodd" d="M100 19.5C100 29.7173 108.283 38 118.5 38C128.717 38 137 29.7173 137 19.5C137 9.28273 128.717 1 118.5 1C108.283 1 100 9.28273 100 19.5ZM118.5 0C107.73 0 99 8.73045 99 19.5C99 30.2696 107.73 39 118.5 39C129.27 39 138 30.2696 138 19.5C138 8.73045 129.27 0 118.5 0Z" fill="#BD00FF"/>
<path d="M95 14H143V28H95V14Z" fill="#F4DDFF"/>
<path d="M236.614 16.04H232.714V26H231.949V16.04H228.049V15.35H236.614V16.04Z" fill="#BD00FF"/>
<path d="M223.423 15.35H224.083L228.583 26H227.773L226.288 22.49H221.203L219.718 26H218.893L223.423 15.35ZM226.078 21.86L223.753 16.28L221.383 21.86H226.078Z" fill="#BD00FF"/>
<path d="M210.791 26V15.35H211.556V20.21H213.341L217.136 15.35H218.036L213.986 20.525L218.261 26H217.316L213.371 20.915H211.556V26H210.791Z" fill="#BD00FF"/>
<path d="M204.013 15.35H204.673L209.173 26H208.363L206.878 22.49H201.793L200.308 26H199.483L204.013 15.35ZM206.668 21.86L204.343 16.28L201.973 21.86H206.668Z" fill="#BD00FF"/>
<path d="M197.134 26V16.04H192.439L192.379 18.41C192.339 19.9 192.239 21.135 192.079 22.115C191.929 23.095 191.714 23.87 191.434 24.44C191.164 25.01 190.829 25.415 190.429 25.655C190.029 25.885 189.564 26 189.034 26V25.31C189.424 25.31 189.774 25.205 190.084 24.995C190.394 24.775 190.654 24.405 190.864 23.885C191.084 23.365 191.259 22.65 191.389 21.74C191.519 20.82 191.604 19.66 191.644 18.26L191.734 15.35H197.899V26H197.134Z" fill="#BD00FF"/>
<path d="M179.165 26V15.35H187.025V26H186.26V16.04H179.93V26H179.165Z" fill="#BD00FF"/>
<path d="M172.446 22.265V21.575H176.766V22.265H172.446Z" fill="#BD00FF"/>
<path d="M170.75 23.24C170.75 23.76 170.62 24.23 170.36 24.65C170.11 25.06 169.765 25.39 169.325 25.64C168.895 25.88 168.415 26 167.885 26H162.905V15.35H167.87C168.37 15.35 168.8 15.485 169.16 15.755C169.53 16.015 169.81 16.355 170 16.775C170.2 17.185 170.3 17.615 170.3 18.065C170.3 18.595 170.165 19.09 169.895 19.55C169.625 20 169.25 20.33 168.77 20.54C169.38 20.72 169.86 21.06 170.21 21.56C170.57 22.05 170.75 22.61 170.75 23.24ZM169.985 23.135C169.985 22.755 169.895 22.4 169.715 22.07C169.545 21.74 169.31 21.47 169.01 21.26C168.71 21.05 168.37 20.945 167.99 20.945H163.67V25.31H167.885C168.275 25.31 168.63 25.21 168.95 25.01C169.27 24.8 169.52 24.53 169.7 24.2C169.89 23.86 169.985 23.505 169.985 23.135ZM163.67 16.04V20.3H167.57C167.96 20.3 168.3 20.2 168.59 20C168.89 19.79 169.125 19.525 169.295 19.205C169.465 18.875 169.55 18.53 169.55 18.17C169.55 17.78 169.47 17.425 169.31 17.105C169.15 16.785 168.925 16.53 168.635 16.34C168.355 16.14 168.03 16.04 167.66 16.04H163.67Z" fill="#BD00FF"/>
<path d="M160.815 25.31V26H153.72V15.35H160.68V16.04H154.485V20.225H159.9V20.885H154.485V25.31H160.815Z" fill="#BD00FF"/>
<path d="M142.156 15.425H142.906L144.496 19.295L146.086 15.425H146.836L144.961 19.91L147.196 25.1L151.276 15.35H152.116L147.556 26H146.851L144.511 20.525L142.156 26H141.451L136.906 15.35H137.731L141.826 25.1L144.031 19.91L142.156 15.425Z" fill="#BD00FF"/>
<path d="M122.93 26V15.35H123.695V24.95L130.685 15.35H131.405V26H130.64V16.55L123.725 26H122.93ZM127.19 14.36C126.72 14.36 126.325 14.295 126.005 14.165C125.695 14.025 125.46 13.845 125.3 13.625C125.14 13.395 125.055 13.145 125.045 12.875H125.675C125.705 13.125 125.825 13.355 126.035 13.565C126.245 13.775 126.63 13.88 127.19 13.88C127.73 13.88 128.11 13.785 128.33 13.595C128.55 13.395 128.67 13.155 128.69 12.875H129.32C129.3 13.145 129.21 13.395 129.05 13.625C128.89 13.845 128.655 14.025 128.345 14.165C128.035 14.295 127.65 14.36 127.19 14.36Z" fill="#BD00FF"/>
<path d="M110.419 26V15.35H111.184V19.58H114.019C114.789 19.58 115.424 19.715 115.924 19.985C116.424 20.255 116.799 20.63 117.049 21.11C117.299 21.59 117.424 22.15 117.424 22.79C117.424 23.37 117.299 23.905 117.049 24.395C116.809 24.875 116.439 25.265 115.939 25.565C115.449 25.855 114.834 26 114.094 26H110.419ZM111.184 25.34H114.004C114.634 25.34 115.144 25.22 115.534 24.98C115.924 24.73 116.204 24.41 116.374 24.02C116.554 23.63 116.644 23.22 116.644 22.79C116.644 22.35 116.564 21.935 116.404 21.545C116.254 21.155 115.984 20.84 115.594 20.6C115.204 20.36 114.664 20.24 113.974 20.24H111.184V25.34ZM119.344 26V15.365H120.109V26H119.344Z" fill="#BD00FF"/>
<path d="M107.639 15.35V26H106.874V20.9H100.154V26H99.3892V15.35H100.154V20.21H106.874V15.35H107.639Z" fill="#BD00FF"/>
<path d="M97.3025 23.24C97.3025 23.76 97.1725 24.23 96.9125 24.65C96.6625 25.06 96.3175 25.39 95.8775 25.64C95.4475 25.88 94.9675 26 94.4375 26H89.4575V15.35H94.4225C94.9225 15.35 95.3525 15.485 95.7125 15.755C96.0825 16.015 96.3625 16.355 96.5525 16.775C96.7525 17.185 96.8525 17.615 96.8525 18.065C96.8525 18.595 96.7175 19.09 96.4475 19.55C96.1775 20 95.8025 20.33 95.3225 20.54C95.9325 20.72 96.4125 21.06 96.7625 21.56C97.1225 22.05 97.3025 22.61 97.3025 23.24ZM96.5375 23.135C96.5375 22.755 96.4475 22.4 96.2675 22.07C96.0975 21.74 95.8625 21.47 95.5625 21.26C95.2625 21.05 94.9225 20.945 94.5425 20.945H90.2225V25.31H94.4375C94.8275 25.31 95.1825 25.21 95.5025 25.01C95.8225 24.8 96.0725 24.53 96.2525 24.2C96.4425 23.86 96.5375 23.505 96.5375 23.135ZM90.2225 16.04V20.3H94.1225C94.5125 20.3 94.8525 20.2 95.1425 20C95.4425 19.79 95.6775 19.525 95.8475 19.205C96.0175 18.875 96.1025 18.53 96.1025 18.17C96.1025 17.78 96.0225 17.425 95.8625 17.105C95.7025 16.785 95.4775 16.53 95.1875 16.34C94.9075 16.14 94.5825 16.04 94.2125 16.04H90.2225Z" fill="#BD00FF"/>
<path d="M78.1643 26V15.35H78.9293V24.95L85.9193 15.35H86.6393V26H85.8743V16.55L78.9593 26H78.1643Z" fill="#BD00FF"/>
<path d="M76.4776 16.04H72.5776V26H71.8126V16.04H67.9126V15.35H76.4776V16.04Z" fill="#BD00FF"/>
<path d="M59.7505 26V15.35H60.5155V20.21H62.3005L66.0955 15.35H66.9955L62.9455 20.525L67.2205 26H66.2755L62.3305 20.915H60.5155V26H59.7505Z" fill="#BD00FF"/>
<path d="M52.9734 15.35H53.6334L58.1334 26H57.3234L55.8384 22.49H50.7534L49.2684 26H48.4434L52.9734 15.35ZM55.6284 21.86L53.3034 16.28L50.9334 21.86H55.6284Z" fill="#BD00FF"/>
<path d="M41.0298 26V15.35H45.4098C45.8598 15.35 46.2698 15.445 46.6398 15.635C47.0198 15.825 47.3498 16.08 47.6298 16.4C47.9098 16.71 48.1248 17.06 48.2748 17.45C48.4348 17.84 48.5148 18.24 48.5148 18.65C48.5148 19.22 48.3848 19.76 48.1248 20.27C47.8748 20.77 47.5248 21.18 47.0748 21.5C46.6348 21.82 46.1098 21.98 45.4998 21.98H41.7948V26H41.0298ZM41.7948 21.275H45.4698C45.9398 21.275 46.3448 21.15 46.6848 20.9C47.0248 20.65 47.2848 20.325 47.4648 19.925C47.6448 19.525 47.7348 19.1 47.7348 18.65C47.7348 18.18 47.6248 17.75 47.4048 17.36C47.1948 16.96 46.9098 16.64 46.5498 16.4C46.1998 16.16 45.8098 16.04 45.3798 16.04H41.7948V21.275Z" fill="#BD00FF"/>
<path d="M38.9402 25.31V26H31.8452V15.35H38.8052V16.04H32.6102V20.225H38.0252V20.885H32.6102V25.31H38.9402Z" fill="#BD00FF"/>
<path d="M30.1885 16.04H26.2885V26H25.5235V16.04H21.6235V15.35H30.1885V16.04Z" fill="#BD00FF"/>
<path d="M19.9683 15.35V26H19.2033V20.9H12.4833V26H11.7183V15.35H12.4833V20.21H19.2033V15.35H19.9683Z" fill="#BD00FF"/>
<path d="M0.425049 26V15.35H1.19005V24.95L8.18005 15.35H8.90005V26H8.13505V16.55L1.22005 26H0.425049Z" fill="#BD00FF"/>
</svg>
