<svg width="140" height="31" viewBox="0 0 140 31" fill="none" xmlns="http://www.w3.org/2000/svg">
<path fill-rule="evenodd" clip-rule="evenodd" d="M124.5 1L15.5001 0.999998C7.49193 0.999998 1.00006 7.49187 1.00006 15.5C1.00006 23.5081 7.49193 30 15.5001 30L124.5 30C132.508 30 139 23.5081 139 15.5C139 7.49187 132.508 1 124.5 1ZM6.122e-05 15.5C6.11179e-05 24.0604 6.93964 31 15.5001 31L124.5 31C133.06 31 140 24.0604 140 15.5C140 6.93959 133.06 -3.20619e-07 124.5 -4.22701e-07L15.5001 -1.72251e-06C6.93965 -1.82459e-06 6.13221e-05 6.93958 6.122e-05 15.5Z" fill="white"/>
<path d="M112.288 14.34V15.56C112.308 16.24 112.668 16.98 113.028 17.68C113.388 18.44 113.768 19.18 113.768 19.9C113.768 21.06 113.068 21.22 112.488 21.22C111.408 21.22 110.948 20.54 110.928 19.18C109.168 21.02 107.968 21.22 107.188 21.22C105.628 21.22 104.928 20.32 104.928 19.18C104.928 17.92 105.828 17.08 107.028 16.48C106.188 15.72 105.748 14.8 105.748 13.82C105.748 12.38 106.868 11.14 108.848 11.14C110.528 11.14 112.288 11.82 112.288 14.34ZM110.928 15.36V14.34C110.928 12.42 110.468 11.4 108.728 11.4C107.108 11.4 105.988 12.46 105.988 13.82C105.988 14.78 106.388 15.62 107.248 16.38C108.308 15.9 109.508 15.6 110.928 15.36ZM109.548 17.72L109.468 17.96C108.648 17.6 108.008 17.26 107.488 16.88C106.868 17.36 106.508 18.02 106.508 18.92C106.508 20.14 107.208 20.58 108.048 20.58C109.008 20.58 110.288 19.52 110.928 18.82V15.6C109.688 15.82 108.528 16.16 107.688 16.74C108.188 17.08 108.788 17.4 109.548 17.72ZM112.288 16.82V19.64C112.288 20.14 112.408 20.74 112.928 20.74C113.228 20.74 113.528 20.54 113.528 19.9C113.528 18.92 112.808 17.82 112.288 16.82Z" fill="white"/>
<path d="M88.5583 21V20.76H90.1383V11.86C89.4383 12.06 88.5583 12.12 88.5583 12.12V11.88C89.8183 11.76 90.7383 11.46 91.4983 11.1V12.12C92.4183 11.42 93.5383 11.14 94.2583 11.14C95.7983 11.14 96.4183 11.86 96.7183 12.32C97.5383 11.7 98.7183 11.14 99.8383 11.14C102.158 11.14 102.838 12.52 102.838 14.66V20.76H104.418V21H100.098V20.76H101.478V14.44C101.478 12.8 101.118 11.5 99.4783 11.5C98.5783 11.5 97.6183 11.98 96.8383 12.54C97.0183 12.92 97.1583 13.36 97.1583 14.3V20.76H98.5583V21H94.4183V20.76H95.7983V14.3C95.7983 13.94 95.7783 13.64 95.7383 13.36C93.8383 15.14 91.5383 18.2 90.4183 21H88.5583ZM91.4983 12.4V18.32C92.7183 16.24 94.2983 14.32 95.6983 13.08C95.4583 11.92 94.8383 11.5 93.8783 11.5C92.9983 11.5 92.1783 11.9 91.4983 12.4Z" fill="white"/>
<path d="M86.8234 14.78H80.4834C80.4434 15.14 80.4234 15.5 80.4234 15.9C80.4234 20 82.0834 20.98 83.4234 20.98C85.9834 20.98 87.5034 18.42 87.5034 15.54C87.5034 14.94 87.4234 14.3 87.2634 13.68L87.5034 13.6C87.6634 14.24 87.7434 14.94 87.7434 15.54C87.7434 18.54 86.1434 21.22 83.4234 21.22C81.4034 21.22 78.8434 19.98 78.8434 16.18C78.8434 13.36 80.4834 11.14 83.2034 11.14C85.6834 11.14 86.8034 13.02 86.8234 14.78ZM83.0434 11.38C81.8034 11.38 80.8234 12.62 80.5234 14.54H85.3234C85.3034 12.84 84.6234 11.38 83.0434 11.38Z" fill="white"/>
<path d="M67.3674 20.76H68.9474V11.88C68.2274 12.08 67.3674 12.12 67.3674 12.12V11.88C68.6674 11.8 69.5874 11.44 70.3074 11.1V12.24C71.4874 11.42 72.5674 11.14 73.3074 11.14C76.1674 11.14 76.3474 13.22 76.3474 14.84V20.76H77.9274V21H67.3674V20.76ZM74.9874 20.76V14.52C74.9874 11.74 73.6474 11.5 72.8274 11.5C71.9874 11.5 70.9474 12.08 70.3074 12.54V20.76H74.9874Z" fill="white"/>
<path d="M65.198 14.34V15.56C65.218 16.24 65.578 16.98 65.938 17.68C66.298 18.44 66.678 19.18 66.678 19.9C66.678 21.06 65.978 21.22 65.398 21.22C64.318 21.22 63.858 20.54 63.838 19.18C62.078 21.02 60.878 21.22 60.098 21.22C58.538 21.22 57.838 20.32 57.838 19.18C57.838 17.92 58.738 17.08 59.938 16.48C59.098 15.72 58.658 14.8 58.658 13.82C58.658 12.38 59.778 11.14 61.758 11.14C63.438 11.14 65.198 11.82 65.198 14.34ZM63.838 15.36V14.34C63.838 12.42 63.378 11.4 61.638 11.4C60.018 11.4 58.898 12.46 58.898 13.82C58.898 14.78 59.298 15.62 60.158 16.38C61.218 15.9 62.418 15.6 63.838 15.36ZM62.458 17.72L62.378 17.96C61.558 17.6 60.918 17.26 60.398 16.88C59.778 17.36 59.418 18.02 59.418 18.92C59.418 20.14 60.118 20.58 60.958 20.58C61.918 20.58 63.198 19.52 63.838 18.82V15.6C62.598 15.82 61.438 16.16 60.598 16.74C61.098 17.08 61.698 17.4 62.458 17.72ZM65.198 16.82V19.64C65.198 20.14 65.318 20.74 65.838 20.74C66.138 20.74 66.438 20.54 66.438 19.9C66.438 18.92 65.718 17.82 65.198 16.82Z" fill="white"/>
<path d="M56.1984 14.78H49.8584C49.8184 15.14 49.7984 15.5 49.7984 15.9C49.7984 20 51.4584 20.98 52.7984 20.98C55.3584 20.98 56.8784 18.42 56.8784 15.54C56.8784 14.94 56.7984 14.3 56.6384 13.68L56.8784 13.6C57.0384 14.24 57.1184 14.94 57.1184 15.54C57.1184 18.54 55.5184 21.22 52.7984 21.22C50.7784 21.22 48.2184 19.98 48.2184 16.18C48.2184 13.36 49.8584 11.14 52.5784 11.14C55.0584 11.14 56.1784 13.02 56.1984 14.78ZM52.4184 11.38C51.1784 11.38 50.1984 12.62 49.8984 14.54H54.6984C54.6784 12.84 53.9984 11.38 52.4184 11.38Z" fill="white"/>
<path d="M39.8088 21V20.76H41.3888V11.88C40.6488 12.06 39.8088 12.12 39.8088 12.12V11.88C41.1288 11.78 42.0088 11.44 42.7488 11.1V13.04C43.2888 11.92 44.1888 11.14 45.1888 11.14C45.7288 11.14 46.1288 11.36 46.4288 11.58L46.4088 11.14H46.6688L46.7688 16.48H46.5488L46.4488 12.74C46.4488 12.18 45.9688 11.38 45.0888 11.38C43.7088 11.38 42.7488 13.2 42.7488 14.86V20.76H44.5288V21H39.8088Z" fill="white"/>
<path d="M24.1 20.7599H26.08V6.77994H24.1V6.53994H26.98C27.6 6.53994 28.28 6.51994 29 6.47994C29.66 6.45994 30.3 6.43994 30.84 6.43994C38.04 6.43994 38.66 11.5999 38.66 13.5399C38.66 15.9399 37.66 21.0999 30.84 21.0999C30.28 21.0999 29.54 21.0799 28.84 21.0399C28.24 21.0199 27.68 20.9999 27.34 20.9999H24.1V20.7599ZM27.74 10.5999V20.7599C28.38 20.7999 29.64 20.8599 30.52 20.8599C34.64 20.8599 36.36 18.3399 36.76 15.1999C36.16 16.5399 34.82 17.3599 33.3 17.3599C31.06 17.3599 28.52 15.5199 27.74 10.5999ZM27.74 6.77994V7.37994C27.74 14.5399 30.74 17.1399 33.3 17.1399C35.14 17.1399 36.78 15.6799 36.84 13.6999C36.82 11.0199 35.76 6.67994 30.64 6.67994C29.66 6.67994 28.54 6.71994 27.74 6.77994Z" fill="white"/>
</svg>
