<svg width="55" height="259" viewBox="0 0 55 259" fill="none" xmlns="http://www.w3.org/2000/svg">
<g filter="url(#filter0_bi_56_32515)">
<path fill-rule="evenodd" clip-rule="evenodd" d="M53.6043 230.929L53.6043 28.3621C53.6043 13.907 41.8861 2.18879 27.431 2.18879C12.9758 2.18879 1.25764 13.907 1.25764 28.3621L1.25764 230.929C1.25764 245.384 12.9758 257.102 27.431 257.102C41.8861 257.102 53.6043 245.384 53.6043 230.929ZM27.431 0.931152C12.2813 0.931152 0 13.2124 0 28.3621L0 230.929C0 246.079 12.2813 258.36 27.431 258.36C42.5807 258.36 54.8619 246.079 54.8619 230.929L54.8619 28.3621C54.8619 13.2124 42.5807 0.931152 27.431 0.931152Z" fill="#E6E6DA" fill-opacity="0.1"/>
<path d="M53.6043 28.3621L53.6043 230.929C53.6043 245.384 41.8861 257.102 27.431 257.102C12.9758 257.102 1.25764 245.384 1.25764 230.929L1.25764 28.3621C1.25764 13.907 12.9758 2.18879 27.431 2.18879C41.8861 2.18879 53.6043 13.907 53.6043 28.3621Z" fill="#E6E6DA" fill-opacity="0.1"/>
<path d="M53.1043 28.3621L53.1043 230.929C53.1043 245.108 41.6099 256.602 27.431 256.602C13.252 256.602 1.75764 245.108 1.75764 230.929L1.75764 28.3621C1.75764 14.1831 13.252 2.68879 27.431 2.68879C41.6099 2.68879 53.1043 14.1831 53.1043 28.3621ZM54.1043 230.929L54.1043 28.3621C54.1043 13.6308 42.1622 1.68879 27.431 1.68879C12.6997 1.68879 0.757637 13.6309 0.757637 28.3621L0.757637 230.929C0.757637 245.66 12.6997 257.602 27.431 257.602C42.1622 257.602 54.1043 245.66 54.1043 230.929ZM0.5 28.3621C0.5 13.4886 12.5574 1.43115 27.431 1.43115C42.3045 1.43115 54.3619 13.4886 54.3619 28.3621L54.3619 230.929C54.3619 245.803 42.3045 257.86 27.431 257.86C12.5574 257.86 0.5 245.803 0.5 230.929L0.5 28.3621Z" stroke="white"/>
</g>
<path d="M27 235C29.2091 235 31 233.209 31 231C31 228.791 29.2091 227 27 227C24.7909 227 23 228.791 23 231C23 233.209 24.7909 235 27 235ZM26.25 27L26.25 231L27.75 231L27.75 27L26.25 27Z" fill="white"/>
<path d="M44 44L27.7071 27.7071C27.3166 27.3166 26.6834 27.3166 26.2929 27.7071L10 44" stroke="white" stroke-width="1.5" stroke-linecap="round"/>
<defs>
<filter id="filter0_bi_56_32515" x="-10" y="-9.06885" width="80.8618" height="283.429" filterUnits="userSpaceOnUse" color-interpolation-filters="sRGB">
<feFlood flood-opacity="0" result="BackgroundImageFix"/>
<feGaussianBlur in="BackgroundImageFix" stdDeviation="5"/>
<feComposite in2="SourceAlpha" operator="in" result="effect1_backgroundBlur_56_32515"/>
<feBlend mode="normal" in="SourceGraphic" in2="effect1_backgroundBlur_56_32515" result="shape"/>
<feColorMatrix in="SourceAlpha" type="matrix" values="0 0 0 0 0 0 0 0 0 0 0 0 0 0 0 0 0 0 127 0" result="hardAlpha"/>
<feOffset dx="16" dy="16"/>
<feGaussianBlur stdDeviation="12.5"/>
<feComposite in2="hardAlpha" operator="arithmetic" k2="-1" k3="1"/>
<feColorMatrix type="matrix" values="0 0 0 0 1 0 0 0 0 1 0 0 0 0 1 0 0 0 0.6 0"/>
<feBlend mode="normal" in2="shape" result="effect2_innerShadow_56_32515"/>
</filter>
</defs>
</svg>
